<?xml version="1.0" encoding="utf-8"?>
<!-- Generator: Adobe Illustrator 16.0.0, SVG Export Plug-In . SVG Version: 6.00 Build 0)  -->
<!DOCTYPE svg PUBLIC "-//W3C//DTD SVG 1.1//EN" "http://www.w3.org/Graphics/SVG/1.1/DTD/svg11.dtd">
<svg version="1.1" id="Capa_1" xmlns="http://www.w3.org/2000/svg" xmlns:xlink="http://www.w3.org/1999/xlink" x="0px" y="0px"
	 width="28.291px" height="28.28px" viewBox="0 0 28.291 28.28" enable-background="new 0 0 28.291 28.28" xml:space="preserve">
<g id="XMLID_20_">
	<path id="XMLID_21_" fill="#FFFFFF" d="M20.483,0H7.806C3.503,0,0,3.498,0,7.805v12.673c0,4.305,3.503,7.803,7.806,7.803h12.678
		c4.308,0,7.808-3.498,7.808-7.803V7.805C28.291,3.498,24.791,0,20.483,0z M22.724,15.83c-1.145,0-2.272,0-3.417,0
		c0,3.056,0,6.098,0,9.148c-1.188,0-2.361,0-3.541,0c0-3.045,0-6.085,0-9.148c-0.812,0-1.618,0-2.426,0c0-1.121,0-2.223,0-3.343
		c0.413,0,0.808-0.005,1.212-0.005c0.402,0,0.793,0,1.209,0c0-0.072,0-0.132,0-0.195c0-0.842,0.005-1.689,0-2.533
		c0-0.533,0.066-1.057,0.244-1.562c0.42-1.209,1.26-2.011,2.452-2.442c0.525-0.192,1.077-0.292,1.641-0.313
		c0.713-0.023,1.426,0,2.136,0.059c0.153,0.014,0.313,0.024,0.472,0.041c0.046,0,0.097,0.016,0.166,0.029
		c-0.034,1.037-0.063,2.068-0.088,3.119c-0.062,0-0.115,0-0.175,0c-0.664-0.005-1.329-0.005-1.996-0.01
		c-0.223,0-0.442,0.023-0.651,0.096c-0.295,0.097-0.485,0.298-0.577,0.598c-0.062,0.223-0.077,0.451-0.077,0.682
		c-0.011,0.771-0.005,1.546,0,2.318c0,0.035,0,0.064,0.005,0.12c1.19,0,2.37,0,3.573,0C22.831,13.607,22.777,14.709,22.724,15.83z"
		/>
</g>
</svg>
