<?xml version="1.0" encoding="utf-8"?>
<!-- Generator: Adobe Illustrator 16.0.0, SVG Export Plug-In . SVG Version: 6.00 Build 0)  -->
<!DOCTYPE svg PUBLIC "-//W3C//DTD SVG 1.1//EN" "http://www.w3.org/Graphics/SVG/1.1/DTD/svg11.dtd">
<svg version="1.1" id="Capa_1" xmlns="http://www.w3.org/2000/svg" xmlns:xlink="http://www.w3.org/1999/xlink" x="0px" y="0px"
	 width="30.328px" height="30.33px" viewBox="0 0 30.328 30.33" enable-background="new 0 0 30.328 30.33" xml:space="preserve">
<g>
	<g>
		<path fill="#FFFFFF" d="M15.163,30.33C6.802,30.33,0,23.526,0,15.164C0,6.803,6.802,0,15.163,0
			c8.362,0,15.165,6.803,15.165,15.164C30.328,23.526,23.525,30.33,15.163,30.33z M15.163,1C7.354,1,1,7.354,1,15.164
			C1,22.976,7.354,29.33,15.163,29.33c7.811,0,14.165-6.354,14.165-14.166C29.328,7.354,22.974,1,15.163,1z"/>
	</g>
	<g>
		<g>
			<g>
				<rect x="14.317" y="7.831" fill="#FFFFFF" width="1.692" height="12.833"/>
			</g>
		</g>
		<g>
			<g>
				<g>
					<polygon fill="#FFFFFF" points="8.244,15.057 9.482,13.902 15.162,20.014 20.842,13.902 22.082,15.057 15.162,22.498 					"/>
				</g>
			</g>
		</g>
	</g>
</g>
</svg>
