<?xml version="1.0" encoding="utf-8"?>
<!-- Generator: Adobe Illustrator 16.0.0, SVG Export Plug-In . SVG Version: 6.00 Build 0)  -->
<!DOCTYPE svg PUBLIC "-//W3C//DTD SVG 1.1//EN" "http://www.w3.org/Graphics/SVG/1.1/DTD/svg11.dtd">
<svg version="1.1" id="Capa_1" xmlns="http://www.w3.org/2000/svg" xmlns:xlink="http://www.w3.org/1999/xlink" x="0px" y="0px"
	 width="30.328px" height="30.33px" viewBox="0 0 30.328 30.33" enable-background="new 0 0 30.328 30.33" xml:space="preserve">
<g>
	<g>
		<path fill="#FFFFFF" d="M15.164,0.001c8.361,0,15.164,6.803,15.164,15.164s-6.803,15.164-15.164,15.164S0,23.526,0,15.165
			S6.803,0.001,15.164,0.001z M15.164,29.329c7.811,0,14.164-6.354,14.164-14.164S22.975,1.001,15.164,1.001S1,7.354,1,15.165
			C1,22.975,7.354,29.329,15.164,29.329z"/>
	</g>
	<g>
		<g>
			<g>
				<rect x="9.666" y="14.319" fill="#FFFFFF" width="12.832" height="1.691"/>
			</g>
		</g>
		<g>
			<g>
				<g>
					<polygon fill="#FFFFFF" points="15.271,8.245 16.426,9.484 10.314,15.163 16.426,20.844 15.271,22.083 7.83,15.163 					"/>
				</g>
			</g>
		</g>
	</g>
</g>
</svg>
