<?xml version="1.0" encoding="utf-8"?>
<!-- Generator: Adobe Illustrator 16.0.0, SVG Export Plug-In . SVG Version: 6.00 Build 0)  -->
<!DOCTYPE svg PUBLIC "-//W3C//DTD SVG 1.1//EN" "http://www.w3.org/Graphics/SVG/1.1/DTD/svg11.dtd">
<svg version="1.1" id="Capa_1" xmlns="http://www.w3.org/2000/svg" xmlns:xlink="http://www.w3.org/1999/xlink" x="0px" y="0px"
	 width="30.328px" height="30.33px" viewBox="0 0 30.328 30.33" enable-background="new 0 0 30.328 30.33" xml:space="preserve">
<g>
	<g>
		<path fill="#FFFFFF" d="M15.164,30.329C6.803,30.329,0,23.526,0,15.165S6.803,0.001,15.164,0.001s15.164,6.803,15.164,15.164
			S23.525,30.329,15.164,30.329z M15.164,1.001C7.354,1.001,1,7.355,1,15.165c0,7.811,6.354,14.164,14.164,14.164
			c7.811,0,14.164-6.354,14.164-14.164C29.328,7.355,22.975,1.001,15.164,1.001z"/>
	</g>
	<g>
		<g>
			<g>
				<rect x="7.83" y="14.319" fill="#FFFFFF" width="12.832" height="1.691"/>
			</g>
		</g>
		<g>
			<g>
				<g>
					<polygon fill="#FFFFFF" points="15.057,22.085 13.902,20.846 20.014,15.167 13.902,9.486 15.057,8.247 22.498,15.167 					"/>
				</g>
			</g>
		</g>
	</g>
</g>
</svg>
