<?xml version="1.0" encoding="utf-8"?>
<!-- Generator: Adobe Illustrator 16.0.0, SVG Export Plug-In . SVG Version: 6.00 Build 0)  -->
<!DOCTYPE svg PUBLIC "-//W3C//DTD SVG 1.1//EN" "http://www.w3.org/Graphics/SVG/1.1/DTD/svg11.dtd">
<svg version="1.1" id="Capa_1" xmlns="http://www.w3.org/2000/svg" xmlns:xlink="http://www.w3.org/1999/xlink" x="0px" y="0px"
	 width="29px" height="29px" viewBox="0 0 29 29" enable-background="new 0 0 29 29" xml:space="preserve">
<g>
	<g>
		<path fill="#FFFFFF" d="M27.5,7.215h-26c-0.579,0-1.048-0.469-1.048-1.048S0.921,5.118,1.5,5.118h26
			c0.579,0,1.048,0.469,1.048,1.048S28.079,7.215,27.5,7.215z"/>
	</g>
	<g>
		<path fill="#FFFFFF" d="M27.5,15.548h-26c-0.579,0-1.048-0.469-1.048-1.048s0.469-1.048,1.048-1.048h26
			c0.579,0,1.048,0.469,1.048,1.048S28.079,15.548,27.5,15.548z"/>
	</g>
	<g>
		<path fill="#FFFFFF" d="M27.5,23.882h-26c-0.579,0-1.048-0.469-1.048-1.048s0.469-1.048,1.048-1.048h26
			c0.579,0,1.048,0.469,1.048,1.048S28.079,23.882,27.5,23.882z"/>
	</g>
</g>
</svg>
