<?xml version="1.0" encoding="utf-8"?>
<!-- Generator: Adobe Illustrator 16.0.0, SVG Export Plug-In . SVG Version: 6.00 Build 0)  -->
<!DOCTYPE svg PUBLIC "-//W3C//DTD SVG 1.1//EN" "http://www.w3.org/Graphics/SVG/1.1/DTD/svg11.dtd">
<svg version="1.1" id="Capa_1" xmlns="http://www.w3.org/2000/svg" xmlns:xlink="http://www.w3.org/1999/xlink" x="0px" y="0px"
	 width="29px" height="29px" viewBox="0 0 29 29" enable-background="new 0 0 29 29" xml:space="preserve">
<g>
	<path fill="#FFFFFF" d="M14.501,19.668l5.945-6.221c0.418-0.439,0.402-1.141-0.037-1.562c-0.422-0.404-1.156-0.389-1.562,0.036
		l-3.24,3.39V5.724c0-0.609-0.496-1.105-1.105-1.105s-1.105,0.496-1.105,1.105v9.587l-3.24-3.39
		c-0.406-0.424-1.139-0.441-1.564-0.035c-0.439,0.421-0.455,1.122-0.035,1.562L14.501,19.668z"/>
	<path fill="#FFFFFF" d="M23.579,16.256c-0.609,0-1.105,0.496-1.105,1.105v2.613c0,1.252-0.885,2.197-2.059,2.197H8.585
		c-1.174,0-2.059-0.945-2.059-2.197v-2.751c0-0.609-0.496-1.105-1.105-1.105s-1.105,0.496-1.105,1.105v2.751
		c0,2.472,1.875,4.407,4.27,4.407h11.832c2.393,0,4.268-1.936,4.268-4.407v-2.613C24.685,16.752,24.188,16.256,23.579,16.256z"/>
</g>
</svg>
