<?xml version="1.0" encoding="utf-8"?>
<!-- Generator: Adobe Illustrator 16.0.0, SVG Export Plug-In . SVG Version: 6.00 Build 0)  -->
<!DOCTYPE svg PUBLIC "-//W3C//DTD SVG 1.1//EN" "http://www.w3.org/Graphics/SVG/1.1/DTD/svg11.dtd">
<svg version="1.1" id="Capa_1" xmlns="http://www.w3.org/2000/svg" xmlns:xlink="http://www.w3.org/1999/xlink" x="0px" y="0px"
	 width="29px" height="29px" viewBox="0 0 29 29" enable-background="new 0 0 29 29" xml:space="preserve">
<g>
	<path fill="#1D1D1B" d="M23.554,21.974l-3.518-3.518c1.11-1.451,1.697-3.183,1.697-5.031c-0.002-2.221-0.866-4.307-2.437-5.874
		c-1.565-1.569-3.652-2.433-5.874-2.433c-2.221,0-4.306,0.864-5.873,2.433c-1.568,1.566-2.43,3.653-2.43,5.874
		c0,2.222,0.861,4.307,2.43,5.875c1.567,1.569,3.654,2.433,5.873,2.433c1.849,0,3.58-0.585,5.032-1.695l3.518,3.518
		c0.211,0.211,0.493,0.327,0.79,0.327c0.299,0,0.578-0.116,0.791-0.327C23.989,23.117,23.987,22.41,23.554,21.974z M19.497,13.425
		c0,1.622-0.634,3.147-1.779,4.293c-1.147,1.146-2.672,1.779-4.294,1.779c-1.623,0-3.146-0.633-4.295-1.779
		c-2.365-2.367-2.365-6.22,0-8.588c1.148-1.146,2.674-1.778,4.295-1.778c1.622,0,3.147,0.631,4.294,1.778
		C18.863,10.279,19.497,11.803,19.497,13.425z"/>
</g>
</svg>
