<?xml version="1.0" encoding="utf-8"?>
<!-- Generator: Adobe Illustrator 16.0.0, SVG Export Plug-In . SVG Version: 6.00 Build 0)  -->
<!DOCTYPE svg PUBLIC "-//W3C//DTD SVG 1.1//EN" "http://www.w3.org/Graphics/SVG/1.1/DTD/svg11.dtd">
<svg version="1.1" id="Capa_1" xmlns="http://www.w3.org/2000/svg" xmlns:xlink="http://www.w3.org/1999/xlink" x="0px" y="0px"
	 width="28.291px" height="28.28px" viewBox="0 0 28.291 28.28" enable-background="new 0 0 28.291 28.28" xml:space="preserve">
<g id="XMLID_40_">
	<path id="XMLID_45_" fill="#FFFFFF" d="M20.484,0H7.806C3.504,0,0.001,3.498,0.001,7.805v12.673c0,4.305,3.503,7.803,7.805,7.803
		h12.678c4.307,0,7.805-3.498,7.805-7.803V7.805C28.289,3.498,24.791,0,20.484,0z M25.777,20.478c0,2.919-2.377,5.296-5.293,5.296
		H7.806c-2.916,0-5.288-2.377-5.288-5.296V7.805c0-2.924,2.372-5.296,5.288-5.296h12.678c2.916,0,5.293,2.372,5.293,5.296V20.478
		L25.777,20.478z"/>
	<path id="XMLID_42_" fill="#FFFFFF" d="M14.143,6.854c-4.016,0-7.288,3.27-7.288,7.282c0,4.023,3.272,7.294,7.288,7.294
		c4.025,0,7.296-3.271,7.296-7.294C21.439,10.123,18.168,6.854,14.143,6.854z M14.143,18.918c-2.63,0-4.776-2.145-4.776-4.782
		c0-2.632,2.146-4.776,4.776-4.776c2.64,0,4.785,2.145,4.785,4.776C18.928,16.773,16.783,18.918,14.143,18.918z"/>
	<path id="XMLID_41_" fill="#FFFFFF" d="M21.736,4.729c-0.48,0-0.957,0.189-1.295,0.535c-0.344,0.338-0.539,0.814-0.539,1.297
		c0,0.488,0.195,0.963,0.539,1.309c0.338,0.335,0.814,0.533,1.295,0.533c0.488,0,0.963-0.198,1.305-0.533
		c0.346-0.346,0.537-0.82,0.537-1.309c0-0.482-0.191-0.959-0.537-1.297C22.703,4.918,22.225,4.729,21.736,4.729z"/>
</g>
</svg>
