<?xml version="1.0" encoding="utf-8"?>
<!-- Generator: Adobe Illustrator 16.0.0, SVG Export Plug-In . SVG Version: 6.00 Build 0)  -->
<!DOCTYPE svg PUBLIC "-//W3C//DTD SVG 1.1//EN" "http://www.w3.org/Graphics/SVG/1.1/DTD/svg11.dtd">
<svg version="1.1" id="Capa_1" xmlns="http://www.w3.org/2000/svg" xmlns:xlink="http://www.w3.org/1999/xlink" x="0px" y="0px"
	 width="28.291px" height="28.28px" viewBox="0 0 28.291 28.28" enable-background="new 0 0 28.291 28.28" xml:space="preserve">
<path fill="#FFFFFF" d="M20.565,18.088c-1.107-0.184-2.424-0.789-3.472-1.246l-2.492,1.719c-2.411-2.014-3.306-3.237-4.47-6.109
	l2.492-1.718c-0.104-1.118-0.384-2.693-0.084-3.896c-0.052-0.231-0.358-0.651-0.765-0.706L8.12,5.514
	C7.75,5.453,7.319,5.751,7.291,6.103c-1.222,9.036,3.231,15.123,12.456,16.667c0.379,0.042,0.812-0.256,0.873-0.614l0.575-3.243
	C21.242,18.568,20.936,18.147,20.565,18.088z"/>
</svg>
