<?xml version="1.0" encoding="utf-8"?>
<!-- Generator: Adobe Illustrator 16.0.0, SVG Export Plug-In . SVG Version: 6.00 Build 0)  -->
<!DOCTYPE svg PUBLIC "-//W3C//DTD SVG 1.1//EN" "http://www.w3.org/Graphics/SVG/1.1/DTD/svg11.dtd">
<svg version="1.1" id="Capa_1" xmlns="http://www.w3.org/2000/svg" xmlns:xlink="http://www.w3.org/1999/xlink" x="0px" y="0px"
	 width="184.841px" height="200px" viewBox="0 0 184.841 200" enable-background="new 0 0 184.841 200" xml:space="preserve">
<g>
	<g id="POLYLINE_94_">
		<rect fill="#F7E434" width="184.841" height="200"/>
	</g>
	<g>
		<polygon fill="#303030" points="17.747,164.366 23.094,164.366 23.094,162.951 19.332,162.951 19.332,160.979 22.536,160.979 
			22.536,159.565 19.332,159.565 19.332,157.661 23.094,157.661 23.094,156.247 17.747,156.247 		"/>
		<polygon fill="#303030" points="26.382,156.247 24.797,156.247 24.797,164.366 30.065,164.366 30.065,162.951 26.382,162.951 		
			"/>
		<polygon fill="#303030" points="34.299,164.366 39.647,164.366 39.647,162.951 35.884,162.951 35.884,160.979 39.088,160.979 
			39.088,159.565 35.884,159.565 35.884,157.661 39.647,157.661 39.647,156.247 34.299,156.247 		"/>
		<path fill="#303030" d="M44.417,159.622l-0.969-0.148c-0.342-0.046-0.581-0.159-0.741-0.307c-0.171-0.16-0.229-0.365-0.229-0.583
			c0-0.558,0.399-1.025,1.243-1.025c0.536,0,1.164,0.069,1.665,0.559l1.003-0.992c-0.696-0.672-1.504-0.946-2.623-0.946
			c-1.755,0-2.828,1.015-2.828,2.463c0,0.685,0.194,1.221,0.582,1.597c0.366,0.354,0.855,0.569,1.573,0.673l0.969,0.147
			c0.411,0.058,0.57,0.126,0.729,0.274c0.171,0.17,0.251,0.398,0.251,0.672c0,0.649-0.501,1.016-1.447,1.016
			c-0.742,0-1.437-0.171-1.95-0.685l-1.027,1.025c0.799,0.811,1.734,1.073,2.965,1.073c1.711,0,3.011-0.891,3.011-2.464
			c0-0.729-0.194-1.311-0.628-1.709C45.615,159.918,45.158,159.726,44.417,159.622z"/>
		<path fill="#303030" d="M51.387,156.247h-3.147v8.119h1.585v-3.056h1.562c1.688,0,2.679-1.152,2.679-2.532
			C54.066,157.399,53.075,156.247,51.387,156.247z M51.307,159.885h-1.482v-2.224h1.482c0.719,0,1.174,0.456,1.174,1.117
			C52.481,159.44,52.025,159.885,51.307,159.885z"/>
		<polygon fill="#303030" points="55.553,164.366 60.9,164.366 60.9,162.951 57.137,162.951 57.137,160.979 60.341,160.979 
			60.341,159.565 57.137,159.565 57.137,157.661 60.9,157.661 60.9,156.247 55.553,156.247 		"/>
		<path fill="#303030" d="M65.328,157.593c0.787,0,1.197,0.49,1.356,1.151h1.619c-0.295-1.699-1.459-2.565-2.975-2.565
			c-0.935,0-1.619,0.309-2.178,0.855c-0.81,0.809-0.821,1.723-0.821,3.272s0.011,2.463,0.821,3.273
			c0.559,0.546,1.243,0.854,2.178,0.854c1.505,0,2.68-0.867,2.975-2.566h-1.608c-0.159,0.662-0.581,1.152-1.367,1.152
			c-0.434,0-0.788-0.16-1.015-0.423c-0.297-0.342-0.399-0.741-0.399-2.291s0.103-1.95,0.399-2.292
			C64.541,157.752,64.895,157.593,65.328,157.593z"/>
		<rect x="69.823" y="156.247" fill="#303030" width="1.585" height="8.119"/>
		<path fill="#303030" d="M75.515,156.247l-2.953,8.119h1.653l0.49-1.438h2.885l0.479,1.438h1.654l-2.965-8.119H75.515z
			 M75.15,161.596l1.026-2.954l0.992,2.954H75.15z"/>
		<polygon fill="#303030" points="82.462,156.247 80.878,156.247 80.878,164.366 86.145,164.366 86.145,162.951 82.462,162.951 		
			"/>
		<rect x="87.585" y="156.247" fill="#303030" width="1.584" height="8.119"/>
		<path fill="#303030" d="M94.281,159.622l-0.97-0.148c-0.342-0.046-0.581-0.159-0.74-0.307c-0.172-0.16-0.229-0.365-0.229-0.583
			c0-0.558,0.399-1.025,1.243-1.025c0.536,0,1.163,0.069,1.664,0.559l1.004-0.992c-0.696-0.672-1.505-0.946-2.623-0.946
			c-1.755,0-2.828,1.015-2.828,2.463c0,0.685,0.194,1.221,0.582,1.597c0.365,0.354,0.855,0.569,1.573,0.673l0.97,0.147
			c0.41,0.058,0.57,0.126,0.729,0.274c0.171,0.17,0.251,0.398,0.251,0.672c0,0.649-0.502,1.016-1.447,1.016
			c-0.742,0-1.438-0.171-1.95-0.685l-1.026,1.025c0.798,0.811,1.733,1.073,2.964,1.073c1.711,0,3.011-0.891,3.011-2.464
			c0-0.729-0.193-1.311-0.627-1.709C95.479,159.918,95.021,159.726,94.281,159.622z"/>
		<polygon fill="#303030" points="103.327,156.247 97.499,156.247 97.499,157.661 99.621,157.661 99.621,164.366 101.206,164.366 
			101.206,157.661 103.327,157.661 		"/>
		<path fill="#303030" d="M106.031,156.247l-2.952,8.119h1.653l0.489-1.438h2.884l0.48,1.438h1.653l-2.965-8.119H106.031z
			 M105.667,161.596l1.026-2.954l0.991,2.954H105.667z"/>
		<polygon fill="#303030" points="114.188,164.366 119.536,164.366 119.536,162.951 115.772,162.951 115.772,160.979 
			118.976,160.979 118.976,159.565 115.772,159.565 115.772,157.661 119.536,157.661 119.536,156.247 114.188,156.247 		"/>
		<polygon fill="#303030" points="125.868,161.218 122.652,156.247 121.237,156.247 121.237,164.366 122.822,164.366 
			122.822,159.382 126.04,164.366 127.452,164.366 127.452,156.247 125.868,156.247 		"/>
		<path fill="#303030" d="M134.357,156.247l-2.954,8.119h1.654l0.489-1.438h2.885l0.479,1.438h1.654l-2.965-8.119H134.357z
			 M133.991,161.596l1.027-2.954l0.991,2.954H133.991z"/>
		<path fill="#303030" d="M142.331,157.593c0.786,0,1.196,0.49,1.356,1.151h1.619c-0.296-1.699-1.459-2.565-2.976-2.565
			c-0.936,0-1.618,0.309-2.177,0.855c-0.811,0.809-0.822,1.723-0.822,3.272s0.012,2.463,0.822,3.273
			c0.559,0.546,1.241,0.854,2.177,0.854c1.506,0,2.68-0.867,2.976-2.566h-1.607c-0.16,0.662-0.582,1.152-1.368,1.152
			c-0.434,0-0.787-0.16-1.015-0.423c-0.297-0.342-0.399-0.741-0.399-2.291s0.103-1.95,0.399-2.292
			C141.543,157.752,141.897,157.593,142.331,157.593z"/>
		<polygon fill="#303030" points="146.827,164.366 152.173,164.366 152.173,162.951 148.411,162.951 148.411,160.979 
			151.615,160.979 151.615,159.565 148.411,159.565 148.411,157.661 152.173,157.661 152.173,156.247 146.827,156.247 		"/>
		<path fill="#303030" d="M159.692,158.732c0-1.355-0.98-2.485-2.634-2.485h-3.182v8.119h1.584v-3.239h1.142l1.585,3.239h1.835
			l-1.813-3.501C158.996,160.58,159.692,159.873,159.692,158.732z M156.955,159.804h-1.494v-2.143h1.494
			c0.695,0,1.151,0.445,1.151,1.071C158.106,159.361,157.65,159.804,156.955,159.804z"/>
		<path fill="#303030" d="M166.262,157.034c-0.547-0.547-1.23-0.855-2.166-0.855c-0.935,0-1.631,0.309-2.177,0.855
			c-0.811,0.809-0.822,1.723-0.822,3.272s0.012,2.463,0.822,3.273c0.546,0.546,1.242,0.854,2.177,0.854
			c0.936,0,1.619-0.309,2.166-0.854c0.811-0.811,0.833-1.724,0.833-3.273S167.073,157.843,166.262,157.034z M165.112,162.575
			c-0.229,0.262-0.583,0.445-1.016,0.445s-0.787-0.184-1.027-0.445c-0.295-0.343-0.386-0.719-0.386-2.269s0.091-1.938,0.386-2.28
			c0.24-0.263,0.595-0.434,1.027-0.434s0.786,0.171,1.016,0.434c0.295,0.342,0.398,0.73,0.398,2.28S165.407,162.232,165.112,162.575
			z"/>
		<polygon fill="#303030" points="28.854,148.73 21.763,148.73 21.763,145.862 27.821,145.862 27.821,142.282 21.763,142.282 
			21.763,139.552 28.854,139.552 28.854,135.971 17.747,135.971 17.747,152.31 28.854,152.31 		"/>
		<polygon fill="#303030" points="43.586,148.73 36.725,148.73 36.725,135.971 32.708,135.971 32.708,152.31 43.586,152.31 		"/>
		<path fill="#303030" d="M64.902,147.125h-4.084c-0.253,0.917-0.757,1.742-2.088,1.742c-0.735,0-1.285-0.298-1.583-0.688
			c-0.368-0.481-0.62-1.054-0.62-4.038c0-2.983,0.252-3.557,0.62-4.039c0.298-0.39,0.848-0.688,1.583-0.688
			c1.331,0,1.835,0.825,2.088,1.743h4.084c-0.597-3.603-3.075-5.324-6.172-5.324c-1.997,0-3.374,0.62-4.544,1.79
			c-1.675,1.676-1.675,3.764-1.675,6.518c0,2.755,0,4.842,1.675,6.517c1.17,1.171,2.547,1.791,4.544,1.791
			C61.828,152.448,64.306,150.728,64.902,147.125z"/>
		<polygon fill="#303030" points="76.308,142.26 72.04,142.26 72.04,135.971 68.023,135.971 68.023,152.31 72.04,152.31 
			72.04,145.839 76.308,145.839 76.308,152.31 80.323,152.31 80.323,135.971 76.308,135.971 		"/>
		<path fill="#303030" d="M93.012,149.878l0.758,2.432h4.199l-5.943-16.339h-3.099l-5.943,16.339h4.2l0.803-2.432H93.012z
			 M90.581,142.167l1.377,4.36h-2.846L90.581,142.167z"/>
		<path fill="#303030" d="M112.678,141.227c0-2.685-1.95-5.256-5.576-5.256h-6.472v16.339h4.017v-6.08H106l2.893,6.08h4.659
			l-3.535-6.814C111.301,144.853,112.678,143.452,112.678,141.227z M106.919,142.878h-2.272v-3.305h2.272
			c1.101,0,1.743,0.803,1.743,1.653C108.663,142.075,108.02,142.878,106.919,142.878z"/>
		<path fill="#303030" d="M128.649,141.227c0-2.685-1.949-5.256-5.576-5.256h-6.471v16.339h4.017v-6.08h1.354l2.892,6.08h4.658
			l-3.533-6.814C127.273,144.853,128.649,143.452,128.649,141.227z M122.89,142.878h-2.271v-3.305h2.271
			c1.101,0,1.744,0.803,1.744,1.653C124.634,142.075,123.991,142.878,122.89,142.878z"/>
		<rect x="132.573" y="135.971" fill="#303030" width="4.017" height="16.339"/>
		<polygon fill="#303030" points="143.956,152.31 147.97,152.31 147.97,139.552 151.987,139.552 151.987,135.971 139.939,135.971 
			139.939,139.552 143.956,139.552 		"/>
		<path fill="#303030" d="M167.017,144.141c0-2.754,0-4.842-1.676-6.518c-1.17-1.17-2.547-1.79-4.543-1.79s-3.374,0.62-4.544,1.79
			c-1.675,1.676-1.675,3.764-1.675,6.518c0,2.755,0,4.842,1.675,6.517c1.17,1.171,2.548,1.791,4.544,1.791s3.373-0.62,4.543-1.791
			C167.017,148.982,167.017,146.896,167.017,144.141z M162.405,148.133c-0.299,0.392-0.873,0.734-1.606,0.734
			c-0.734,0-1.308-0.343-1.607-0.734c-0.366-0.481-0.596-1.008-0.596-3.992c0-2.983,0.229-3.534,0.596-4.016
			c0.3-0.391,0.873-0.711,1.607-0.711c0.733,0,1.308,0.32,1.606,0.711c0.367,0.481,0.597,1.032,0.597,4.016
			C163.001,147.125,162.772,147.651,162.405,148.133z"/>
		<polygon fill="#303030" points="100.193,60.532 100.196,60.527 100.198,60.523 100.2,60.52 100.201,60.516 100.202,60.512 
			100.204,60.508 100.206,60.503 100.207,60.499 100.208,60.496 100.209,60.491 100.21,60.487 100.212,60.483 100.212,60.479 
			100.213,60.475 100.213,60.472 100.214,60.467 100.215,60.463 100.215,60.459 100.215,60.455 100.215,60.451 100.215,60.447 
			100.215,60.443 100.215,60.439 100.215,60.436 100.215,60.432 100.214,60.428 100.213,60.424 100.212,60.417 100.212,60.412 
			100.21,60.408 100.208,60.401 100.207,60.397 100.204,60.39 100.202,60.386 100.199,60.379 100.194,60.371 100.19,60.364 
			100.184,60.357 100.178,60.351 100.172,60.343 100.167,60.336 100.159,60.33 100.152,60.322 100.148,60.319 100.14,60.312 
			100.131,60.307 100.123,60.3 100.113,60.294 100.104,60.288 100.093,60.281 100.083,60.275 100.071,60.27 100.061,60.264 
			100.048,60.258 100.037,60.252 100.011,60.241 99.983,60.23 99.957,60.22 99.926,60.21 99.896,60.2 99.864,60.191 99.831,60.183 
			99.762,60.166 99.688,60.151 99.613,60.138 99.534,60.126 99.452,60.116 99.368,60.107 99.283,60.101 99.197,60.096 
			99.109,60.093 99.022,60.091 98.935,60.091 98.76,60.095 98.587,60.103 98.417,60.115 97.511,60.203 97.386,60.217 97.269,60.232 
			97.213,60.241 97.161,60.251 97.109,60.263 97.083,60.269 97.058,60.274 97.034,60.282 97.01,60.289 96.987,60.297 96.963,60.305 
			96.941,60.313 96.92,60.322 96.898,60.332 96.876,60.343 96.856,60.354 96.836,60.364 96.816,60.377 96.796,60.389 96.778,60.402 
			96.768,60.409 96.759,60.416 96.75,60.423 96.742,60.431 96.733,60.438 96.724,60.445 96.714,60.453 96.707,60.462 96.698,60.47 
			96.691,60.479 96.682,60.487 96.674,60.496 96.666,60.505 96.658,60.515 96.651,60.523 96.643,60.534 96.635,60.544 
			96.628,60.554 96.613,60.574 96.6,60.597 96.586,60.619 96.573,60.643 96.561,60.667 96.548,60.692 96.537,60.72 96.526,60.747 
			96.515,60.776 96.504,60.806 96.495,60.837 96.485,60.868 96.476,60.901 96.468,60.936 96.46,60.971 96.453,61.008 96.438,61.085 
			96.426,61.167 96.417,61.253 96.41,61.343 96.403,61.437 96.399,61.532 96.396,61.63 96.396,61.729 96.398,61.828 96.401,61.926 
			96.407,62.024 96.415,62.12 96.422,62.215 96.435,62.306 96.449,62.394 96.464,62.478 96.473,62.518 96.482,62.556 96.493,62.594 
			96.502,62.629 96.512,62.663 96.524,62.696 96.536,62.728 96.548,62.759 96.559,62.787 96.573,62.813 96.58,62.827 96.586,62.84 
			96.593,62.852 96.6,62.863 96.606,62.875 96.613,62.886 96.621,62.897 96.628,62.907 96.635,62.917 96.642,62.927 96.65,62.936 
			96.657,62.944 96.665,62.952 96.672,62.96 96.68,62.968 96.688,62.975 96.695,62.981 96.699,62.984 96.703,62.988 96.707,62.991 
			96.71,62.994 96.714,62.997 96.718,62.999 96.722,63.002 96.726,63.004 96.731,63.006 96.735,63.009 96.739,63.011 96.743,63.013 
			96.746,63.015 96.75,63.017 96.754,63.019 96.758,63.02 96.762,63.021 96.767,63.022 96.77,63.023 96.775,63.024 96.779,63.026 
			96.783,63.026 96.788,63.027 96.791,63.028 96.794,63.029 96.798,63.029 96.803,63.029 96.807,63.03 96.811,63.03 96.816,63.03 
			96.82,63.03 96.824,63.03 96.828,63.029 96.833,63.029 96.836,63.028 96.839,63.028 96.843,63.027 96.848,63.026 96.852,63.026 
			96.857,63.024 96.861,63.023 96.865,63.021 96.87,63.021 96.875,63.02 96.877,63.018 96.881,63.016 96.885,63.014 96.889,63.012 
			96.893,63.01 96.898,63.008 96.902,63.006 96.907,63.003 96.911,63 96.915,62.998 96.918,62.995 96.923,62.992 96.927,62.989 
			96.93,62.985 96.935,62.982 96.939,62.979 96.947,62.973 96.956,62.964 96.963,62.956 96.972,62.948 96.98,62.938 96.987,62.929 
			96.996,62.919 97.004,62.909 97.012,62.898 97.027,62.876 97.043,62.852 97.06,62.826 97.076,62.8 97.108,62.742 97.139,62.681 
			97.405,62.112 97.441,62.042 97.478,61.974 97.515,61.908 97.535,61.877 97.554,61.847 97.575,61.816 97.593,61.786 
			97.616,61.758 97.636,61.73 97.658,61.702 97.679,61.676 97.703,61.649 97.725,61.624 97.75,61.599 97.773,61.575 97.797,61.552 
			97.823,61.528 97.85,61.506 97.875,61.484 97.904,61.463 97.931,61.442 97.96,61.422 97.99,61.402 98.02,61.383 98.052,61.363 
			98.083,61.346 98.117,61.328 98.15,61.312 98.186,61.294 98.222,61.277 98.257,61.262 98.294,61.246 98.333,61.231 98.415,61.203 
			98.499,61.176 98.585,61.149 98.675,61.125 99.415,60.941 99.501,60.918 99.585,60.893 99.665,60.867 99.74,60.84 99.777,60.825 
			99.81,60.812 99.843,60.798 99.875,60.782 99.907,60.768 99.936,60.752 99.964,60.736 99.991,60.721 100.015,60.705 
			100.04,60.688 100.062,60.672 100.073,60.664 100.083,60.656 100.093,60.647 100.103,60.639 100.112,60.632 100.121,60.623 
			100.129,60.615 100.138,60.606 100.145,60.598 100.153,60.59 100.159,60.582 100.167,60.573 100.172,60.565 100.178,60.557 
			100.184,60.548 100.188,60.54 100.191,60.536 		"/>
		<polygon fill="#303030" points="95.243,62.464 95.174,61.543 95.166,61.45 95.155,61.359 95.143,61.271 95.128,61.184 
			95.121,61.143 95.111,61.101 95.102,61.06 95.091,61.02 95.081,60.98 95.067,60.942 95.054,60.904 95.04,60.868 95.032,60.85 
			95.024,60.832 95.015,60.815 95.007,60.798 94.999,60.781 94.99,60.765 94.98,60.748 94.969,60.732 94.96,60.717 94.95,60.702 
			94.938,60.686 94.927,60.672 94.917,60.657 94.905,60.643 94.892,60.63 94.879,60.616 94.868,60.603 94.854,60.591 94.839,60.578 
			94.827,60.566 94.812,60.555 94.796,60.543 94.781,60.532 94.766,60.521 94.75,60.511 94.734,60.501 94.717,60.491 94.701,60.481 
			94.684,60.473 94.667,60.463 94.648,60.455 94.631,60.446 94.613,60.438 94.594,60.431 94.575,60.424 94.555,60.416 
			94.516,60.403 94.476,60.391 94.434,60.379 94.392,60.369 94.348,60.359 94.305,60.352 94.259,60.344 94.213,60.337 
			94.167,60.333 94.119,60.328 94.071,60.324 94.022,60.32 93.92,60.317 93.819,60.316 93.713,60.319 93.608,60.323 93.5,60.331 
			93.391,60.34 93.282,60.351 93.06,60.38 92.837,60.416 92.616,60.46 92.396,60.51 92.18,60.566 91.968,60.629 91.764,60.697 
			91.665,60.732 91.569,60.77 91.475,60.808 91.382,60.847 91.294,60.887 91.208,60.928 91.125,60.97 91.046,61.012 90.97,61.055 
			90.898,61.099 90.829,61.143 90.765,61.187 90.734,61.208 90.704,61.23 90.675,61.253 90.648,61.275 90.622,61.298 90.596,61.32 
			90.572,61.343 90.549,61.364 90.527,61.387 90.507,61.409 90.487,61.432 90.469,61.454 90.453,61.476 90.445,61.486 
			90.438,61.498 90.43,61.508 90.423,61.52 90.416,61.53 90.41,61.541 90.404,61.552 90.399,61.562 90.393,61.573 90.389,61.584 
			90.383,61.594 90.379,61.604 90.376,61.615 90.372,61.624 90.369,61.635 90.366,61.645 90.363,61.655 90.361,61.665 90.36,61.675 
			90.358,61.685 90.357,61.689 90.356,61.694 90.356,61.699 90.356,61.704 90.355,61.709 90.355,61.713 90.355,61.718 
			90.355,61.723 90.355,61.728 90.356,61.732 90.356,61.736 90.356,61.741 90.357,61.745 90.358,61.75 90.358,61.755 90.36,61.759 
			90.36,61.764 90.361,61.768 90.362,61.772 90.363,61.776 90.365,61.781 90.366,61.785 90.367,61.789 90.369,61.793 90.371,61.798 
			90.373,61.802 90.375,61.807 90.376,61.81 90.378,61.814 90.38,61.818 90.383,61.822 90.385,61.826 90.387,61.83 90.393,61.838 
			90.396,61.842 90.398,61.846 90.404,61.854 90.411,61.86 90.417,61.867 90.424,61.874 90.432,61.881 90.436,61.884 90.44,61.888 
			90.443,61.891 90.447,61.895 90.453,61.897 90.461,61.903 90.471,61.909 90.48,61.916 90.491,61.922 90.501,61.927 90.513,61.932 
			90.524,61.938 90.536,61.942 90.548,61.946 90.562,61.951 90.574,61.956 90.588,61.96 90.602,61.964 90.616,61.968 90.646,61.976 
			90.677,61.982 90.71,61.988 90.745,61.993 90.78,61.999 90.856,62.007 90.937,62.015 92.154,62.059 92.376,62.077 92.596,62.101 
			92.812,62.131 92.917,62.147 93.019,62.166 93.12,62.188 93.217,62.21 93.311,62.234 93.402,62.261 93.488,62.288 93.53,62.303 
			93.57,62.318 93.611,62.334 93.648,62.35 93.685,62.367 93.721,62.384 93.756,62.4 93.792,62.419 93.825,62.437 93.856,62.455 
			93.918,62.493 93.979,62.531 94.036,62.571 94.09,62.61 94.195,62.691 94.441,62.889 94.49,62.926 94.541,62.962 94.591,62.996 
			94.641,63.027 94.667,63.043 94.693,63.058 94.718,63.071 94.743,63.085 94.768,63.097 94.792,63.108 94.817,63.119 
			94.841,63.129 94.866,63.138 94.876,63.141 94.888,63.145 94.9,63.148 94.912,63.151 94.922,63.154 94.934,63.156 94.945,63.159 
			94.957,63.161 94.967,63.162 94.978,63.164 94.988,63.165 94.999,63.166 95.009,63.166 95.018,63.166 95.023,63.166 
			95.029,63.166 95.034,63.165 95.039,63.165 95.043,63.164 95.047,63.164 95.053,63.163 95.058,63.162 95.061,63.162 
			95.066,63.161 95.071,63.16 95.075,63.159 95.08,63.158 95.084,63.156 95.088,63.155 95.093,63.153 95.097,63.152 95.101,63.15 
			95.106,63.148 95.109,63.146 95.114,63.145 95.118,63.143 95.125,63.139 95.128,63.136 95.133,63.134 95.14,63.128 95.147,63.122 
			95.154,63.116 95.16,63.109 95.167,63.103 95.172,63.095 95.175,63.091 95.178,63.087 95.181,63.083 95.184,63.078 95.187,63.074 
			95.189,63.069 95.192,63.065 95.194,63.061 95.198,63.056 95.2,63.051 95.202,63.045 95.204,63.041 95.208,63.029 95.211,63.02 
			95.215,63.007 95.219,62.996 95.222,62.983 95.226,62.971 95.229,62.957 95.231,62.944 95.234,62.93 95.239,62.901 95.243,62.871 
			95.246,62.84 95.248,62.808 95.249,62.773 95.25,62.702 95.249,62.626 		"/>
		<polygon fill="#303030" points="95.322,67.031 95.324,67.002 95.327,66.972 95.332,66.941 95.335,66.91 95.341,66.878 
			95.353,66.812 95.433,66.452 95.466,66.295 95.481,66.214 95.494,66.131 95.504,66.048 95.508,66.005 95.512,65.963 95.515,65.92 
			95.518,65.876 95.52,65.79 95.519,65.704 95.515,65.618 95.509,65.535 95.5,65.454 95.495,65.416 95.49,65.378 95.483,65.34 
			95.477,65.305 95.469,65.27 95.461,65.236 95.453,65.203 95.444,65.173 95.435,65.144 95.424,65.116 95.419,65.104 95.415,65.091 
			95.41,65.078 95.404,65.067 95.398,65.055 95.392,65.045 95.387,65.034 95.381,65.025 95.375,65.016 95.373,65.012 95.37,65.008 
			95.366,65.003 95.364,64.999 95.36,64.995 95.357,64.991 95.354,64.988 95.351,64.984 95.348,64.981 95.345,64.979 95.342,64.976 
			95.339,64.973 95.335,64.971 95.333,64.968 95.331,64.966 95.329,64.965 95.328,64.964 95.326,64.964 95.324,64.962 
			95.322,64.961 95.321,64.961 95.319,64.96 95.317,64.959 95.316,64.958 95.314,64.957 95.313,64.956 95.311,64.956 95.308,64.955 
			95.307,64.954 95.305,64.954 95.303,64.953 95.302,64.953 95.3,64.952 95.298,64.952 95.296,64.952 95.295,64.952 95.294,64.951 
			95.292,64.951 95.291,64.951 95.289,64.95 95.287,64.95 95.286,64.95 95.283,64.95 95.282,64.95 95.28,64.95 95.278,64.95 
			95.276,64.95 95.275,64.951 95.273,64.951 95.271,64.951 95.269,64.952 95.268,64.952 95.266,64.952 95.264,64.952 95.262,64.953 
			95.26,64.953 95.258,64.954 95.256,64.954 95.254,64.955 95.253,64.956 95.25,64.957 95.247,64.959 95.243,64.96 95.24,64.962 
			95.236,64.964 95.232,64.966 95.228,64.968 95.224,64.971 95.22,64.973 95.217,64.976 95.213,64.979 95.209,64.98 95.206,64.984 
			95.202,64.986 95.199,64.99 95.192,64.997 95.184,65.004 95.177,65.012 95.168,65.02 95.162,65.028 95.155,65.038 95.147,65.047 
			95.14,65.057 95.132,65.067 95.118,65.089 95.103,65.111 95.089,65.136 95.074,65.161 95.061,65.188 95.046,65.216 95.034,65.243 
			95.02,65.273 94.995,65.334 94.969,65.396 94.948,65.46 94.926,65.523 94.909,65.588 94.892,65.649 94.878,65.71 94.869,65.77 
			94.859,65.826 94.85,65.882 94.816,66.192 94.808,66.241 94.799,66.29 94.794,66.313 94.79,66.338 94.784,66.361 94.778,66.386 
			94.771,66.41 94.762,66.434 94.754,66.458 94.746,66.482 94.735,66.506 94.726,66.53 94.713,66.555 94.702,66.579 94.677,66.628 
			94.648,66.678 94.62,66.728 94.394,67.078 94.363,67.129 94.333,67.179 94.306,67.229 94.281,67.279 94.269,67.304 94.257,67.329 
			94.247,67.354 94.237,67.379 94.227,67.403 94.219,67.428 94.21,67.452 94.204,67.477 94.198,67.501 94.192,67.525 94.186,67.55 
			94.183,67.573 94.179,67.598 94.178,67.608 94.178,67.621 94.176,67.632 94.176,67.644 94.176,67.655 94.175,67.668 
			94.176,67.679 94.176,67.69 94.176,67.702 94.178,67.713 94.178,67.725 94.179,67.736 94.181,67.747 94.183,67.758 94.185,67.77 
			94.188,67.78 94.19,67.791 94.193,67.802 94.197,67.812 94.2,67.823 94.204,67.835 94.208,67.845 94.211,67.855 94.216,67.866 
			94.22,67.877 94.225,67.887 94.23,67.897 94.236,67.907 94.242,67.917 94.249,67.928 94.254,67.938 94.261,67.947 94.267,67.957 
			94.276,67.967 94.283,67.977 94.292,67.986 94.299,67.996 94.308,68.005 94.316,68.014 94.326,68.022 94.334,68.032 
			94.345,68.041 94.355,68.05 94.365,68.059 94.386,68.076 94.407,68.093 94.431,68.109 94.454,68.125 94.478,68.141 94.502,68.156 
			94.528,68.17 94.552,68.185 94.579,68.197 94.604,68.21 94.629,68.223 94.681,68.245 94.731,68.266 94.78,68.283 94.802,68.291 
			94.826,68.299 94.847,68.306 94.868,68.312 94.887,68.316 94.906,68.321 94.922,68.325 94.939,68.327 94.948,68.328 
			94.955,68.329 94.961,68.33 94.967,68.331 94.974,68.331 94.98,68.331 94.983,68.331 94.985,68.331 94.988,68.331 94.99,68.331 
			94.993,68.331 94.995,68.331 94.997,68.33 94.999,68.33 95,68.329 95,68.329 95.001,68.329 95.002,68.329 95.003,68.328 
			95.006,68.328 95.009,68.327 95.012,68.325 95.012,68.324 95.014,68.323 95.014,68.322 95.015,68.322 95.015,68.321 
			95.016,68.319 95.016,68.318 95.018,68.317 95.018,68.316 95.018,68.315 95.019,68.314 95.019,68.312 95.02,68.308 95.019,68.304 
			95.019,68.302 95.018,68.3 95.018,68.299 95.018,68.297 95.017,68.295 95.016,68.293 95.016,68.291 95.015,68.288 95.014,68.284 
			95.012,68.28 95.01,68.276 95.009,68.272 95.005,68.265 94.981,68.22 94.976,68.21 94.971,68.2 94.969,68.196 94.967,68.191 
			94.966,68.186 94.964,68.182 94.962,68.177 94.961,68.172 94.959,68.167 94.959,68.165 94.958,68.162 94.958,68.16 94.958,68.157 
			94.958,68.155 94.957,68.153 94.957,68.15 94.957,68.148 94.957,68.146 94.957,68.144 94.957,68.142 94.957,68.14 94.957,68.138 
			94.957,68.135 94.957,68.133 94.958,68.131 94.958,68.129 94.958,68.126 94.958,68.125 94.958,68.124 94.958,68.123 
			94.959,68.122 94.959,68.121 94.959,68.12 94.96,68.118 94.961,68.117 94.961,68.116 94.961,68.116 94.962,68.115 94.962,68.114 
			94.963,68.113 94.963,68.111 94.964,68.11 94.965,68.109 94.965,68.108 94.966,68.107 94.967,68.106 94.967,68.105 94.967,68.104 
			94.967,68.104 94.968,68.103 94.97,68.101 94.971,68.1 94.971,68.099 94.973,68.098 94.974,68.097 94.974,68.096 94.976,68.095 
			94.978,68.093 94.981,68.091 94.983,68.09 94.985,68.088 94.988,68.086 94.99,68.084 94.993,68.083 94.995,68.081 94.998,68.079 
			95,68.078 95.003,68.076 95.007,68.075 95.013,68.072 95.019,68.069 95.027,68.066 95.034,68.064 95.042,68.062 95.049,68.059 
			95.065,68.054 95.083,68.05 95.101,68.046 95.12,68.042 95.161,68.034 95.204,68.027 95.475,67.994 95.516,67.987 95.535,67.984 
			95.553,67.98 95.572,67.977 95.587,67.973 95.595,67.971 95.603,67.968 95.611,67.966 95.618,67.963 95.624,67.961 95.63,67.958 
			95.636,67.956 95.642,67.953 95.649,67.95 95.654,67.948 95.659,67.945 95.665,67.942 95.668,67.939 95.67,67.938 95.673,67.936 
			95.675,67.935 95.677,67.933 95.679,67.931 95.681,67.93 95.683,67.929 95.685,67.927 95.687,67.925 95.689,67.924 95.691,67.922 
			95.692,67.92 95.694,67.918 95.695,67.917 95.697,67.914 95.698,67.913 95.699,67.911 95.701,67.909 95.702,67.907 95.703,67.905 
			95.705,67.904 95.706,67.902 95.706,67.9 95.708,67.898 95.708,67.896 95.708,67.895 95.709,67.893 95.71,67.891 95.711,67.889 
			95.711,67.887 95.712,67.885 95.712,67.883 95.712,67.881 95.713,67.879 95.714,67.876 95.714,67.875 95.714,67.872 95.714,67.87 
			95.714,67.868 95.714,67.866 95.714,67.863 95.714,67.861 95.714,67.859 95.714,67.857 95.714,67.855 95.714,67.853 
			95.714,67.851 95.713,67.849 95.712,67.847 95.712,67.844 95.712,67.842 95.712,67.839 95.711,67.835 95.709,67.83 95.708,67.825 
			95.706,67.82 95.705,67.815 95.703,67.811 95.7,67.806 95.698,67.8 95.695,67.795 95.692,67.789 95.689,67.784 95.683,67.773 
			95.676,67.763 95.668,67.752 95.661,67.74 95.653,67.729 95.643,67.717 95.633,67.704 95.613,67.679 95.516,67.568 95.492,67.537 
			95.466,67.504 95.455,67.486 95.442,67.47 95.43,67.451 95.419,67.433 95.408,67.414 95.397,67.395 95.388,67.375 95.377,67.354 
			95.369,67.333 95.36,67.312 95.356,67.3 95.352,67.289 95.348,67.277 95.345,67.266 95.342,67.255 95.339,67.243 95.336,67.23 
			95.333,67.219 95.332,67.206 95.33,67.194 95.327,67.182 95.326,67.169 95.324,67.156 95.323,67.143 95.322,67.13 95.321,67.115 
			95.321,67.103 95.32,67.089 95.321,67.061 		"/>
		<polygon fill="#303030" points="90.307,71.218 90.281,71.258 90.255,71.3 90.229,71.342 90.204,71.386 90.181,71.431 
			90.156,71.476 90.134,71.522 90.111,71.57 90.089,71.619 90.068,71.668 90.048,71.72 90.028,71.771 90.009,71.825 89.991,71.88 
			89.975,71.936 89.957,71.993 89.941,72.052 89.927,72.111 89.913,72.173 89.901,72.235 89.888,72.299 89.878,72.364 
			89.868,72.432 89.86,72.5 89.852,72.569 89.839,72.714 89.832,72.863 89.829,73.021 89.831,73.185 89.837,73.354 89.838,73.36 
			89.838,73.366 89.838,73.372 89.839,73.378 89.84,73.385 89.84,73.39 89.842,73.396 89.842,73.401 89.845,73.413 89.848,73.424 
			89.852,73.435 89.855,73.445 89.859,73.455 89.862,73.466 89.867,73.476 89.872,73.485 89.877,73.494 89.882,73.504 
			89.887,73.513 89.893,73.521 89.898,73.529 89.905,73.537 89.911,73.545 89.917,73.552 89.924,73.56 89.931,73.565 89.938,73.571 
			89.945,73.578 89.953,73.584 89.959,73.589 89.967,73.594 89.975,73.599 89.978,73.601 89.985,73.604 89.993,73.608 90,73.611 
			90.004,73.613 90.008,73.614 90.015,73.617 90.023,73.619 90.027,73.62 90.035,73.622 90.042,73.623 90.049,73.624 90.057,73.624 
			90.06,73.624 90.068,73.624 90.074,73.623 90.081,73.622 90.088,73.62 90.095,73.618 90.102,73.615 90.108,73.612 90.113,73.61 
			90.118,73.607 90.122,73.604 90.126,73.602 90.132,73.597 90.138,73.591 90.143,73.585 90.147,73.578 90.152,73.571 
			90.157,73.563 90.161,73.557 90.163,73.552 90.165,73.548 90.166,73.543 90.168,73.539 90.17,73.534 90.171,73.529 90.173,73.524 
			90.174,73.52 90.176,73.514 90.176,73.509 90.177,73.503 90.179,73.497 90.179,73.491 90.181,73.486 90.181,73.479 90.196,73.351 
			90.213,73.23 90.233,73.115 90.255,73.006 90.267,72.954 90.28,72.904 90.292,72.855 90.306,72.808 90.321,72.762 90.336,72.717 
			90.352,72.674 90.368,72.632 90.385,72.591 90.402,72.552 90.42,72.514 90.439,72.478 90.458,72.441 90.479,72.407 90.499,72.374 
			90.52,72.343 90.542,72.312 90.564,72.282 90.588,72.254 90.612,72.227 90.637,72.2 90.662,72.176 90.688,72.151 90.714,72.128 
			90.742,72.105 90.77,72.085 90.798,72.064 90.827,72.045 90.857,72.026 90.888,72.008 90.918,71.991 90.951,71.976 90.983,71.96 
			91.017,71.945 91.051,71.932 91.085,71.919 91.12,71.906 91.157,71.895 91.193,71.883 91.23,71.873 91.27,71.863 91.308,71.854 
			91.388,71.837 91.47,71.821 91.556,71.809 91.644,71.798 91.735,71.787 91.927,71.771 92.343,71.747 93.739,71.69 93.975,71.673 
			94.208,71.651 94.435,71.624 94.547,71.608 94.656,71.591 94.763,71.572 94.868,71.55 94.969,71.527 95.069,71.501 95.166,71.474 
			95.258,71.442 95.304,71.427 95.348,71.41 95.392,71.393 95.435,71.375 95.458,71.387 95.483,71.397 95.509,71.409 95.537,71.419 
			95.566,71.43 95.596,71.439 95.66,71.46 95.727,71.479 95.8,71.498 95.875,71.516 95.956,71.532 96.125,71.565 96.307,71.596 
			96.694,71.651 97.901,71.798 98.261,71.848 98.424,71.875 98.575,71.903 98.646,71.92 98.714,71.937 98.781,71.954 98.846,71.974 
			98.906,71.995 98.937,72.006 98.965,72.018 98.995,72.029 99.024,72.041 99.05,72.055 99.079,72.067 99.104,72.082 99.13,72.097 
			99.157,72.111 99.181,72.127 99.207,72.144 99.23,72.16 99.255,72.178 99.278,72.196 99.301,72.214 99.324,72.233 99.347,72.254 
			99.369,72.275 99.39,72.297 99.412,72.319 99.433,72.343 99.454,72.367 99.474,72.392 99.495,72.417 99.513,72.443 99.534,72.471 
			99.553,72.5 99.572,72.529 99.591,72.559 99.609,72.59 99.628,72.623 99.646,72.655 99.683,72.725 99.717,72.798 99.752,72.876 
			99.787,72.959 99.822,73.046 99.855,73.138 99.888,73.234 99.892,73.246 99.897,73.257 99.901,73.268 99.906,73.278 
			99.911,73.288 99.917,73.297 99.919,73.302 99.921,73.306 99.923,73.31 99.926,73.314 99.929,73.318 99.932,73.322 99.938,73.329 
			99.944,73.337 99.95,73.344 99.956,73.35 99.961,73.355 99.968,73.36 99.974,73.366 99.981,73.371 99.987,73.374 99.994,73.378 
			100,73.382 100.007,73.385 100.014,73.388 100.02,73.39 100.027,73.392 100.034,73.394 100.041,73.395 100.046,73.396 
			100.054,73.396 100.059,73.396 100.066,73.395 100.072,73.394 100.079,73.393 100.085,73.391 100.091,73.389 100.097,73.387 
			100.104,73.384 100.109,73.381 100.115,73.377 100.121,73.373 100.125,73.369 100.131,73.364 100.136,73.359 100.142,73.354 
			100.147,73.349 100.151,73.343 100.155,73.337 100.159,73.33 100.163,73.323 100.167,73.315 100.168,73.312 100.169,73.308 
			100.171,73.304 100.173,73.3 100.175,73.297 100.176,73.291 100.177,73.287 100.178,73.283 100.18,73.279 100.181,73.274 
			100.182,73.27 100.184,73.265 100.184,73.26 100.185,73.256 100.186,73.25 100.187,73.245 100.188,73.235 100.189,73.225 
			100.189,73.214 100.189,73.203 100.189,73.191 100.189,73.18 100.187,73.167 100.145,72.781 100.122,72.609 100.098,72.45 
			100.072,72.303 100.045,72.167 100.016,72.041 99.987,71.925 99.957,71.816 99.923,71.716 99.89,71.621 99.855,71.532 
			99.819,71.448 99.78,71.368 99.739,71.291 99.699,71.215 99.656,71.141 99.611,71.066 99.518,70.923 99.421,70.781 99.321,70.644 
			99.115,70.375 98.905,70.114 98.698,69.862 98.645,69.801 98.591,69.742 98.537,69.685 98.481,69.629 98.423,69.575 
			98.394,69.549 98.365,69.523 98.333,69.499 98.303,69.476 98.272,69.452 98.24,69.429 98.208,69.407 98.175,69.387 98.142,69.366 
			98.107,69.348 98.073,69.329 98.037,69.311 98.001,69.295 97.963,69.279 97.925,69.264 97.887,69.25 97.847,69.237 97.806,69.226 
			97.764,69.215 97.72,69.205 97.673,69.195 97.625,69.187 97.577,69.179 97.525,69.172 97.414,69.16 97.292,69.15 97.161,69.144 
			96.855,69.135 95.537,69.145 94.964,69.089 94.488,69.056 94.281,69.048 94.094,69.044 93.924,69.047 93.846,69.05 93.77,69.053 
			93.699,69.059 93.629,69.065 93.564,69.072 93.5,69.081 93.44,69.091 93.381,69.102 93.326,69.113 93.272,69.126 93.218,69.14 
			93.167,69.154 93.118,69.17 93.068,69.187 93.021,69.204 92.972,69.223 92.878,69.262 92.784,69.305 92.688,69.351 92.591,69.399 
			92.496,69.451 92.397,69.507 92.298,69.566 92.094,69.694 91.882,69.835 91.663,69.99 91.191,70.341 91.067,70.438 90.94,70.54 
			90.876,70.593 90.813,70.648 90.75,70.705 90.688,70.765 90.626,70.826 90.564,70.891 90.505,70.958 90.446,71.028 90.418,71.063 
			90.39,71.102 90.362,71.139 90.334,71.178 		"/>
		<path fill="#303030" d="M82.353,122.524l0.965-0.768l2.128-1.784l1.563,0.795l1.5,0.728l2.691,1.226l2.507,1.047l2.342,0.89
			l2.191,0.756l2.051,0.644l6.828,1.964l0.353,0.098l0.162,0.04l0.156,0.035l0.148,0.029l0.071,0.012l0.072,0.012l0.069,0.008
			l0.07,0.009l0.067,0.007l0.068,0.004l0.068,0.003l0.066,0.002h0.066l0.065-0.003l0.066-0.004l0.064-0.005l0.064-0.009l0.064-0.008
			l0.063-0.013l0.063-0.014l0.063-0.017l0.062-0.018l0.063-0.02l0.062-0.022l0.03-0.013l0.03-0.013l0.031-0.013l0.03-0.015
			l0.03-0.014l0.03-0.016l0.06-0.031l0.062-0.035l0.06-0.037l0.06-0.04l0.059-0.043l0.059-0.045l0.059-0.048l0.059-0.051
			l0.058-0.054l0.058-0.057l0.059-0.061l0.057-0.062l0.056-0.065l0.057-0.07l0.058-0.071l0.056-0.075l0.057-0.08l0.056-0.082
			l0.056-0.085l0.114-0.183l0.115-0.197l0.118-0.214l0.121-0.23l3.69-7.562l1.179-2.472l1.177-2.604l1.108-2.661l0.516-1.335
			l0.485-1.328l0.45-1.318l0.413-1.299l0.371-1.275l0.325-1.245l0.276-1.211l0.12-0.595l0.108-0.585l0.094-0.58l0.082-0.574
			l0.069-0.568l0.058-0.563l0.044-0.56l0.031-0.557l0.02-0.553l0.007-0.551l-0.007-0.55l-0.02-0.548l-0.031-0.548l-0.044-0.548
			l-0.059-0.548l-0.068-0.548l-0.08-0.545l-0.09-0.542l-0.204-1.068l-0.229-1.037l-0.248-0.993l-0.257-0.94l-0.506-1.673
			l-0.235-0.713l-0.22-0.631l-0.208-0.555l-0.2-0.486l-0.097-0.219l-0.096-0.203l-0.095-0.19l-0.095-0.176l-0.093-0.164
			l-0.093-0.152l-0.047-0.071l-0.047-0.069l-0.046-0.066l-0.048-0.064l-0.047-0.061l-0.047-0.061l-0.049-0.057l-0.048-0.055
			l-0.048-0.052l-0.049-0.051l-0.05-0.049l-0.05-0.047l-0.051-0.044l-0.052-0.043l-0.051-0.041l-0.053-0.038l-0.054-0.038
			l-0.055-0.035l-0.057-0.034l-0.057-0.032l-0.057-0.03l-0.06-0.029l-0.061-0.027l-0.061-0.026l-0.063-0.024l-0.063-0.024
			l-0.065-0.022l-0.067-0.021l-0.069-0.021l-0.069-0.019l-0.071-0.018l-0.074-0.017l-0.152-0.03l-0.16-0.028l-0.169-0.024
			l-0.177-0.021l-0.385-0.037l-5.362-0.339l-2.282-0.107l-1.343-0.024l-1.493,0.009l-1.657,0.048l-1.831,0.099l-0.054,0.003
			l-0.055,0.001l-0.058-0.001l-0.058-0.003l-0.06-0.004l-0.06-0.005l-0.062-0.007l-0.062-0.009l-0.062-0.009l-0.063-0.012
			l-0.128-0.025l-0.13-0.029l-0.132-0.033l-0.13-0.037l-0.128-0.04l-0.126-0.042l-0.124-0.045l-0.119-0.046l-0.115-0.048
			l-0.109-0.048l-0.103-0.048l-0.06-0.029l-0.06-0.03l-0.119-0.066l-0.121-0.071l-0.121-0.075l-0.121-0.08l-0.12-0.081l-0.234-0.168
			l-0.224-0.17l-0.207-0.164L97.9,79.126l-0.127-0.109l-0.051-0.048l-0.024-0.021l-0.021-0.021l-0.02-0.021l-0.019-0.019
			l-0.015-0.02l-0.008-0.009l-0.008-0.009l-0.006-0.009l-0.007-0.009l-0.006-0.009l-0.006-0.008l-0.004-0.009l-0.005-0.009
			l-0.004-0.008l-0.002-0.005l-0.002-0.004l-0.002-0.004l-0.002-0.004l-0.002-0.004l-0.001-0.004l-0.001-0.005l-0.002-0.004
			l-0.001-0.004l-0.001-0.004l-0.002-0.004l-0.001-0.004v-0.005l-0.001-0.004l-0.001-0.004v-0.004l-0.001-0.004l-0.001-0.005v-0.004
			v-0.004v-0.005l-0.001-0.003v-0.005v-0.004l0.001-0.005v-0.004V78.68l0.001-0.004l0.001-0.005v-0.004l0.002-0.01l0.001-0.008
			l0.002-0.01l0.002-0.009l0.003-0.01l0.004-0.01l0.003-0.009l0.003-0.011l0.008-0.021l0.009-0.021l0.01-0.021l0.023-0.048
			l0.201-0.392l0.04-0.082l0.038-0.086l0.037-0.092l0.037-0.096l0.035-0.102l0.033-0.104l0.014-0.054l0.016-0.056l0.014-0.057
			l0.014-0.057l0.011-0.06l0.011-0.06l0.009-0.061l0.009-0.062l0.003-0.022l0.001-0.021l0.002-0.021l0.001-0.021v-0.02l-0.001-0.02
			l-0.001-0.019l-0.001-0.019l-0.003-0.019l-0.003-0.018l-0.001-0.008l-0.002-0.008l-0.001-0.009l-0.003-0.008l-0.002-0.008
			l-0.002-0.008l-0.002-0.008l-0.003-0.008l-0.003-0.008l-0.002-0.007l-0.003-0.007l-0.003-0.007l-0.003-0.007l-0.004-0.007
			L98.1,76.753l-0.003-0.007l-0.003-0.006l-0.005-0.007l-0.004-0.006l-0.004-0.006l-0.003-0.007l-0.005-0.005l-0.004-0.006
			l-0.005-0.006l-0.005-0.005l-0.005-0.005l-0.003-0.006l-0.006-0.005l-0.005-0.005l-0.005-0.005l-0.005-0.004l-0.006-0.005
			l-0.005-0.005l-0.006-0.004l-0.006-0.004l-0.005-0.004l-0.006-0.004l-0.006-0.004l-0.007-0.004l-0.005-0.004l-0.007-0.003
			l-0.007-0.003l-0.007-0.004l-0.005-0.003l-0.007-0.003l-0.007-0.003l-0.007-0.003l-0.008-0.002l-0.007-0.003l-0.008-0.002
			l-0.006-0.003L97.9,76.594l-0.016-0.004l-0.015-0.003l-0.016-0.004l-0.017-0.003l-0.017-0.002l-0.016-0.002l-0.018-0.001
			l-0.017-0.001h-0.018h-0.019h-0.018l-0.019,0.001l-0.02,0.001l-0.019,0.002l-0.02,0.002l-0.02,0.003l-0.02,0.003l-0.02,0.003
			l-0.043,0.009l-0.042,0.009l-0.043,0.011l-0.044,0.013l-0.045,0.014l-0.39,0.12l-0.368,0.102l-0.348,0.084l-0.169,0.036
			l-0.162,0.031l-0.159,0.027l-0.154,0.023l-0.15,0.021l-0.148,0.017l-0.144,0.013l-0.142,0.01l-0.138,0.007l-0.135,0.003
			l-0.133,0.001l-0.13-0.002l-0.128-0.004l-0.126-0.008l-0.124-0.009l-0.123-0.012l-0.242-0.029l-0.235-0.035l-0.235-0.043
			l-0.47-0.098l-0.953-0.229l-0.933-0.258l-0.442-0.135l-0.414-0.136l-0.381-0.136l-0.175-0.066l-0.165-0.065l-0.152-0.065
			l-0.142-0.064l-0.131-0.063l-0.062-0.033l-0.06-0.032l-0.058-0.034l-0.055-0.033l-0.054-0.034l-0.051-0.035l-0.051-0.035
			l-0.048-0.036l-0.046-0.038l-0.046-0.038l-0.043-0.04l-0.043-0.04l-0.042-0.041l-0.04-0.044l-0.041-0.044l-0.039-0.046
			l-0.038-0.047l-0.038-0.05l-0.037-0.051l-0.038-0.053l-0.036-0.055l-0.037-0.057l-0.073-0.119l-0.075-0.129l-0.075-0.138
			l-0.077-0.146l-0.155-0.313l-0.156-0.333l-0.151-0.344l-0.28-0.68l-0.123-0.316l-0.413-1.211l-0.03-0.076l-0.03-0.073L86.27,70.85
			l-0.017-0.035l-0.017-0.034l-0.018-0.034L86.2,70.712l-0.02-0.033l-0.02-0.033l-0.021-0.033l-0.023-0.034l-0.023-0.033
			l-0.025-0.034l-0.026-0.034l-0.055-0.068l-0.315-0.378l-0.067-0.086l-0.066-0.09l-0.066-0.096L85.44,69.71l-0.032-0.051
			l-0.032-0.052l-0.03-0.054l-0.03-0.056l-0.03-0.057l-0.028-0.059l-0.027-0.061l-0.026-0.062l-0.025-0.064l-0.024-0.065
			l-0.022-0.067l-0.021-0.07l-0.02-0.071l-0.019-0.074l-0.018-0.074l-0.016-0.076l-0.015-0.078L85,68.459l-0.021-0.165l-0.017-0.168
			l-0.013-0.171l-0.009-0.172l-0.006-0.174l-0.001-0.174l0.001-0.172l0.004-0.171l0.017-0.332l0.027-0.314l0.016-0.147l0.019-0.143
			l0.021-0.135l0.025-0.13l0.013-0.063l0.014-0.061l0.015-0.06l0.017-0.059l0.018-0.057l0.018-0.055l0.02-0.055l0.021-0.053
			l0.022-0.05l0.023-0.051l0.025-0.048l0.013-0.023l0.014-0.023l0.013-0.022l0.014-0.023l0.015-0.022l0.014-0.021l0.015-0.021
			l0.016-0.021l0.016-0.021l0.017-0.02l0.016-0.021l0.017-0.021l0.018-0.019l0.018-0.02l0.018-0.02l0.019-0.019l0.019-0.018
			l0.021-0.019l0.021-0.018l0.021-0.018l0.021-0.018l0.022-0.016l0.021-0.017l0.022-0.017l0.023-0.015l0.024-0.017l0.024-0.015
			l0.024-0.015l0.025-0.015l0.026-0.014l0.025-0.014l0.026-0.014l0.026-0.012l0.027-0.013l0.027-0.011l0.027-0.011l0.029-0.011
			l0.029-0.009l0.028-0.009l0.029-0.008l0.029-0.007l0.03-0.007l0.029-0.005l0.03-0.004l0.03-0.004l0.03-0.002l0.031-0.002h0.015
			h0.016h0.015l0.016,0.001l0.015,0.001l0.016,0.001l0.016,0.001l0.016,0.002l0.016,0.002l0.016,0.002l0.016,0.003l0.016,0.003
			l0.016,0.004l0.016,0.003l0.016,0.004l0.016,0.005l0.016,0.004l0.015,0.005l0.016,0.006l0.016,0.006l0.016,0.005l0.016,0.007
			l0.016,0.007l0.017,0.007l0.015,0.008l0.016,0.008l0.016,0.009l0.016,0.008l0.016,0.009l0.015,0.01l0.016,0.01l0.016,0.011
			l0.015,0.011l0.016,0.011l0.016,0.012l0.015,0.012l0.016,0.013l0.016,0.013l0.015,0.013l0.015,0.014l0.031,0.029l0.03,0.03
			l0.031,0.032l0.03,0.034l0.029,0.036l0.03,0.039l0.028,0.039l0.029,0.042l0.029,0.045l0.029,0.046l0.028,0.049l0.027,0.051
			l0.028,0.054l0.027,0.056l0.026,0.057l0.026,0.061l0.025,0.062l0.026,0.065l0.024,0.066l0.048,0.142l0.046,0.152l0.011,0.041
			l0.011,0.041l0.019,0.084l0.036,0.168l0.035,0.161l0.009,0.037l0.01,0.036l0.011,0.035l0.01,0.033l0.005,0.017l0.006,0.015
			l0.005,0.015l0.006,0.015l0.006,0.014l0.007,0.014l0.006,0.013l0.003,0.006l0.004,0.006l0.004,0.006l0.003,0.006l0.003,0.005
			l0.004,0.006l0.003,0.005l0.004,0.005l0.004,0.005l0.004,0.005l0.004,0.005l0.003,0.004l0.004,0.004l0.004,0.004l0.005,0.004
			c0.002,0.002,0.004,0.003,0.004,0.003c0.002,0.002,0.004,0.004,0.004,0.004c0.002,0.002,0.005,0.003,0.005,0.003
			c0.002,0.001,0.004,0.003,0.004,0.003c0.003,0.001,0.005,0.002,0.005,0.002c0.003,0.002,0.005,0.003,0.005,0.003
			c0.002,0.001,0.004,0.002,0.004,0.002c0.002,0.001,0.005,0.003,0.005,0.003c0.003,0.001,0.006,0.002,0.006,0.002
			c0.001,0.001,0.005,0.002,0.005,0.002c0.002,0,0.004,0.001,0.004,0.001c0.003,0,0.005,0.001,0.005,0.001
			c0.002,0.001,0.006,0.001,0.006,0.001c0.002,0.001,0.005,0.001,0.005,0.001c0.003,0,0.006,0,0.006,0
			c0.002,0.001,0.006,0.001,0.006,0.001c0.003,0,0.005,0,0.005,0c0.003,0,0.006,0,0.006,0c0.003,0,0.006-0.001,0.006-0.001
			c0.002,0,0.005,0,0.005,0c0.002-0.001,0.006-0.001,0.006-0.001c0.003-0.001,0.006-0.001,0.006-0.001l0.006-0.002l0.006-0.002
			l0.007-0.001l0.007-0.003l0.006-0.002l0.007-0.003l0.007-0.003l0.007-0.003l0.008-0.004l0.007-0.003l0.007-0.005l0.007-0.004
			l0.008-0.005l0.056-0.035l0.054-0.035l0.053-0.035l0.05-0.035l0.047-0.036l0.046-0.035l0.043-0.036l0.042-0.036l0.038-0.036
			l0.038-0.036l0.035-0.037l0.017-0.018l0.016-0.019l0.015-0.019l0.016-0.019l0.014-0.019l0.014-0.019l0.014-0.019l0.013-0.019
			l0.012-0.019l0.011-0.019l0.021-0.036l0.021-0.036l0.021-0.038l0.02-0.039l0.019-0.04l0.018-0.04l0.017-0.041l0.007-0.02
			l0.007-0.021l0.008-0.021l0.005-0.021l0.006-0.021l0.005-0.021l0.004-0.02l0.004-0.021l0.004-0.02l0.002-0.021l0.002-0.02
			l0.001-0.01l0-0.01l0-0.01v-0.01v-0.011V65.68v-0.01l0-0.009l0-0.01l-0.001-0.01l-0.001-0.01l-0.001-0.009l-0.002-0.009
			l-0.002-0.009l-0.064-0.325l-0.053-0.308l-0.042-0.29l-0.032-0.275l-0.023-0.26l-0.016-0.246l-0.008-0.233l-0.003-0.223
			l0.003-0.21l0.005-0.201l0.066-1.056l0.009-0.315l0-0.302l-0.007-0.284l-0.071-1.151l0-0.032l0-0.03l0-0.029l0.001-0.014
			l0.001-0.015l0-0.014l0.002-0.014l0.002-0.013l0.002-0.013l0.002-0.013l0.002-0.013l0.003-0.013l0.004-0.012l0.002-0.013
			l0.004-0.011l0.004-0.013l0.005-0.012l0.005-0.012l0.005-0.012l0.006-0.012l0.006-0.012l0.007-0.012l0.007-0.013l0.007-0.012
			l0.008-0.012l0.008-0.013l0.009-0.012l0.01-0.013l0.01-0.012l0.022-0.026l0.023-0.026l0.026-0.027l0.029-0.029l0.064-0.062
			l0.16-0.145l0.472-0.402l0.153-0.125l0.169-0.134l0.186-0.139l0.203-0.145l0.221-0.148l0.24-0.15l0.26-0.152l0.281-0.152
			l0.301-0.151l0.323-0.148l0.346-0.146l0.37-0.14l0.395-0.135l0.42-0.127l0.435-0.115l0.457-0.105l0.477-0.095l0.494-0.082
			l0.509-0.067l0.522-0.053l0.53-0.036l0.271-0.011l0.27-0.006l0.271-0.001l0.273,0.003l0.272,0.01l0.275,0.015l0.273,0.021
			l0.273,0.025l0.272,0.032l0.273,0.039l0.271,0.045l0.271,0.051l0.268,0.059l0.266,0.064l0.264,0.072l0.261,0.079l0.258,0.087
			l0.255,0.095l0.016,0.006l0.007,0.002l0.008,0.003l0.007,0.002l0.008,0.002l0.008,0.002l0.006,0.002l0.008,0.001l0.006,0.001
			l0.007,0.002l0.007,0.001h0.007l0.007,0.001h0.006h0.007h0.006h0.006l0.006-0.001h0.006l0.006-0.001
			c0.003,0,0.006-0.001,0.006-0.001c0.003,0,0.006-0.001,0.006-0.001c0.002-0.001,0.006-0.001,0.006-0.001
			c0.002-0.001,0.004-0.002,0.004-0.002c0.003,0,0.005-0.001,0.005-0.001c0.003-0.001,0.005-0.002,0.005-0.002
			c0.003-0.001,0.006-0.002,0.006-0.002c0.002-0.001,0.004-0.003,0.004-0.003c0.003-0.001,0.006-0.002,0.006-0.002
			c0.002-0.001,0.004-0.003,0.004-0.003c0.002-0.001,0.005-0.003,0.005-0.003c0.002-0.001,0.004-0.003,0.004-0.003
			c0.003-0.001,0.005-0.003,0.005-0.003c0.002-0.001,0.003-0.003,0.003-0.003c0.002-0.002,0.004-0.004,0.004-0.004
			c0.002-0.001,0.004-0.003,0.004-0.003c0.002-0.003,0.004-0.004,0.004-0.004c0.002-0.002,0.004-0.005,0.004-0.005
			c0.001-0.002,0.003-0.004,0.003-0.004c0.002-0.002,0.004-0.004,0.004-0.004c0.001-0.002,0.003-0.005,0.003-0.005
			c0.002-0.002,0.004-0.004,0.004-0.004c0.001-0.003,0.003-0.006,0.003-0.006l0.003-0.005l0.002-0.005l0.003-0.005l0.003-0.007
			l0.002-0.006l0.002-0.005l0.002-0.007l0.001-0.006l0.002-0.007l0.002-0.006l0.002-0.007l0.001-0.007l0.001-0.007l0.001-0.008
			l0.002-0.008v-0.007l0.002-0.008v-0.009v-0.008v-0.009l0.002-0.095l-0.002-0.089l-0.002-0.042l-0.003-0.041l-0.004-0.04
			l-0.005-0.038l-0.001-0.012l-0.002-0.012l-0.002-0.011l-0.003-0.012l-0.003-0.011l-0.003-0.011l-0.004-0.012l-0.004-0.011
			l-0.004-0.011l-0.006-0.011l-0.005-0.01l-0.005-0.01l-0.006-0.01l-0.005-0.01l-0.007-0.01l-0.007-0.009l-0.007-0.01l-0.007-0.008
			l-0.007-0.009l-0.008-0.009l-0.008-0.008l-0.008-0.008l-0.009-0.008l-0.009-0.006l-0.005-0.004l-0.005-0.003l-0.004-0.004
			l-0.004-0.003l-0.005-0.004l-0.005-0.002l-0.005-0.004l-0.005-0.002l-0.005-0.004l-0.005-0.002l-0.005-0.003l-0.006-0.003
			l-0.004-0.002l-0.006-0.003l-0.005-0.002l-0.006-0.002l-0.463-0.183l-0.433-0.162l-0.404-0.142l-0.381-0.124l-0.357-0.106
			l-0.335-0.09l-0.318-0.075l-0.3-0.061l-0.288-0.049l-0.274-0.037l-0.264-0.026l-0.258-0.017L97.4,55.044l-0.248-0.002
			l-0.248,0.005l-0.25,0.009l-0.537,0.032l-0.549,0.048L95.01,55.2l-0.562,0.081l-0.562,0.096l-0.561,0.111l-0.554,0.127
			l-0.544,0.142l-0.531,0.157l-0.261,0.084l-0.259,0.089l-0.256,0.094l-0.254,0.098l-0.251,0.104l-0.251,0.108l-0.249,0.113
			l-0.249,0.119l-0.248,0.125l-0.247,0.131l-0.247,0.138l-0.248,0.144l-0.248,0.15l-0.248,0.156l-0.446,0.297l-2.404,1.706
			l-0.542,0.362l-0.572,0.361l-0.024,0.016l-0.023,0.016l-0.022,0.016l-0.022,0.017l-0.021,0.017l-0.021,0.017l-0.02,0.017
			l-0.019,0.019l-0.02,0.018l-0.019,0.018l-0.018,0.02l-0.018,0.019l-0.017,0.02l-0.017,0.02l-0.015,0.021l-0.015,0.02l-0.015,0.021
			l-0.014,0.021l-0.014,0.021l-0.013,0.021l-0.012,0.022l-0.012,0.022l-0.011,0.022l-0.01,0.022l-0.01,0.022l-0.01,0.023
			l-0.01,0.023l-0.008,0.023l-0.007,0.024l-0.008,0.024l-0.007,0.024l-0.006,0.024l-0.006,0.024l-0.005,0.025l-0.006,0.025
			l-0.004,0.025l-0.004,0.026l-0.004,0.026l-0.003,0.026l-0.002,0.026l-0.003,0.026L83.695,61.2l-0.002,0.055l0,0.056l0,0.055
			l0.002,0.058l0.005,0.057l0.006,0.058l0.007,0.058l0.01,0.059l0.01,0.06l0.013,0.06l0.014,0.06l0.005,0.023l0.005,0.023
			l0.005,0.024l0.004,0.024l0.007,0.049l0.006,0.051l0.005,0.052l0.003,0.052l0.002,0.053l0,0.055l-0.001,0.109l-0.005,0.112
			l-0.007,0.114l-0.076,0.829l-0.006,0.117l-0.003,0.117v0.114l0.004,0.112l0.007,0.111l0.01,0.108l0.013,0.105l0.014,0.103
			l0.017,0.102l0.018,0.097l0.019,0.094l0.02,0.091l0.043,0.17l0.149,0.515l0.013,0.052l0.012,0.053l0.01,0.053l0.01,0.056
			l0.007,0.059l0.006,0.062l0.004,0.068l0.001,0.073l0.001,0.082l-0.001,0.09l-0.118,2.235l-0.004,0.434l0.008,0.449l0.02,0.462
			l0.031,0.466l0.191,2.127l0.022,0.329l0.006,0.146l0.002,0.137l-0.001,0.128l-0.002,0.061l-0.003,0.06l-0.005,0.06l-0.005,0.058
			l-0.007,0.057l-0.008,0.057l-0.008,0.057l-0.011,0.057L84.18,73.44l-0.013,0.058l-0.014,0.059l-0.016,0.059L84.1,73.738
			l-0.042,0.13l-0.049,0.14l-0.644,1.682l-0.23,0.643l-0.253,0.756l-0.274,0.882l-0.292,1.021l-0.308,1.172l-0.321,1.336
			l-0.048,0.201l-0.052,0.204l-0.058,0.204l-0.062,0.203l-0.068,0.2l-0.074,0.198l-0.04,0.097l-0.041,0.096l-0.043,0.095
			l-0.044,0.093l-0.046,0.091l-0.047,0.089l-0.05,0.087l-0.052,0.084l-0.054,0.082l-0.056,0.079l-0.029,0.039l-0.029,0.038
			l-0.029,0.037l-0.031,0.036l-0.031,0.035l-0.031,0.035l-0.033,0.034l-0.032,0.033l-0.034,0.032l-0.034,0.031l-0.034,0.031
			l-0.035,0.029l-0.035,0.029l-0.036,0.027l-0.037,0.027l-0.037,0.025l-0.039,0.024l-0.038,0.023l-0.04,0.022l-0.04,0.022
			l-4.428,2.407l-1.812,1.051l-1.569,0.949l-1.348,0.852l-1.144,0.754l-1.754,1.223l-0.648,0.475l-0.521,0.396l-0.217,0.173
			l-0.191,0.16L66.37,92.8l-0.076,0.07l-0.07,0.067l-0.064,0.065l-0.061,0.064l-0.056,0.062l-0.052,0.061l-0.048,0.059l-0.044,0.059
			l-0.041,0.059l-0.038,0.058l-0.035,0.057l-0.032,0.057l-0.03,0.058l-0.028,0.058l-0.026,0.059l-0.024,0.06l-0.023,0.061
			l-0.022,0.062l-0.021,0.064l-0.021,0.065l-0.041,0.136l-0.038,0.144l-0.036,0.15l-0.069,0.329l-1.763,8.325l-0.094,0.558
			l-0.076,0.528l-0.062,0.512l-0.048,0.507l-0.037,0.511l-0.05,1.083l-0.024,1.22l0.003,0.658l0.019,0.686l0.036,0.707l0.058,0.729
			l0.082,0.742l0.052,0.377l0.059,0.378l0.066,0.38l0.075,0.382l0.082,0.382l0.09,0.384l0.098,0.384l0.104,0.385l0.112,0.384
			l0.12,0.385l0.261,0.767l0.29,0.763l0.317,0.755l0.168,0.374l0.176,0.372l0.369,0.736l0.393,0.722l0.408,0.707l0.42,0.688
			l0.856,1.315l0.844,1.22l0.796,1.104l0.376,0.5l0.359,0.46l0.342,0.417l0.164,0.19l0.158,0.178l0.154,0.166l0.149,0.152
			l0.143,0.139l0.07,0.064l0.068,0.061l0.066,0.056l0.066,0.054l0.065,0.05l0.032,0.023l0.032,0.021l0.032,0.021l0.032,0.021
			l0.032,0.021l0.032,0.019l0.033,0.018l0.032,0.018l0.032,0.016l0.033,0.015l0.033,0.015l0.033,0.013l0.034,0.012l0.034,0.011
			l0.035,0.011l0.034,0.01l0.036,0.009l0.035,0.006l0.036,0.007l0.037,0.006l0.037,0.005l0.039,0.003l0.038,0.004l0.039,0.001
			l0.041,0.001h0.041l0.041-0.001l0.043-0.003l0.043-0.003l0.045-0.004l0.045-0.005l0.046-0.006l0.096-0.015l0.1-0.02l0.105-0.022
			l0.109-0.026l0.116-0.03l0.248-0.072l0.273-0.088l0.629-0.225l0.728-0.282l0.414-0.176l0.452-0.205l0.492-0.239l0.534-0.278
			l0.579-0.322l0.626-0.371l0.677-0.425l0.729-0.483l0.785-0.547l0.841-0.615L82.353,122.524z M82.415,83.155l0-0.015l0.001-0.014
			l0.001-0.014l0.001-0.014l0.002-0.014l0.002-0.014l0.002-0.015l0.003-0.013l0.002-0.015l0.004-0.014l0.004-0.015l0.004-0.014
			l0.004-0.014l0.005-0.015l0.004-0.014l0.005-0.014l0.011-0.028l0.012-0.028l0.014-0.028l0.015-0.029l0.015-0.028l0.018-0.027
			l0.018-0.029l0.019-0.028l0.02-0.028l0.021-0.029l0.022-0.028l0.022-0.029l0.024-0.028l0.05-0.058l0.053-0.058l0.057-0.058
			l0.059-0.059l0.063-0.058l0.064-0.058l0.068-0.058l0.07-0.058l0.146-0.115l0.774-0.579l0.721-0.52l0.67-0.464l0.622-0.41
			l0.576-0.361l0.532-0.315l0.493-0.274l0.453-0.234l0.418-0.2l0.385-0.169l0.354-0.141l0.326-0.117l0.3-0.096l0.276-0.08
			l0.256-0.065l0.238-0.056l0.431-0.091l0.196-0.036l0.185-0.029l0.177-0.022l0.085-0.009l0.083-0.007l0.082-0.006l0.081-0.003
			l0.08-0.002h0.079l0.078,0.002l0.078,0.004l0.078,0.006l0.077,0.008l0.077,0.009l0.078,0.012l0.077,0.013l0.079,0.015l0.08,0.017
			l0.08,0.019l0.082,0.021l0.084,0.022l0.173,0.051l0.181,0.06l0.181,0.064l0.189,0.072l0.198,0.082l0.207,0.094l0.217,0.106
			l0.225,0.119l0.234,0.135l0.242,0.151l0.251,0.168l0.261,0.188l0.268,0.208l0.277,0.229l0.286,0.252l0.294,0.276l0.303,0.302
			l0.311,0.328l0.021,0.022l0.021,0.022l0.018,0.022l0.019,0.022l0.018,0.022l0.017,0.023l0.017,0.023l0.015,0.022l0.016,0.023
			l0.015,0.023l0.014,0.023l0.012,0.023l0.013,0.024l0.012,0.023l0.012,0.023l0.01,0.024l0.01,0.024l0.009,0.023l0.009,0.024
			l0.008,0.023l0.007,0.024l0.005,0.024l0.007,0.024l0.005,0.025l0.006,0.023l0.003,0.025l0.004,0.024l0.002,0.024l0.003,0.025
			l0.001,0.025l0.001,0.024v0.024v0.025l-0.002,0.025l-0.001,0.024l-0.003,0.025l-0.002,0.025l-0.005,0.025l-0.003,0.025
			l-0.005,0.024l-0.006,0.025l-0.006,0.025l-0.007,0.026l-0.006,0.025l-0.008,0.025l-0.009,0.025l-0.008,0.025l-0.011,0.025
			l-0.009,0.025l-0.011,0.025l-0.011,0.025l-0.013,0.025l-0.012,0.025l-0.012,0.025l-0.028,0.052l-0.029,0.051l-0.032,0.051
			l-0.034,0.051l-0.036,0.051l-0.074,0.1l-0.079,0.099l-0.085,0.098l-0.087,0.097l-0.092,0.095l-0.095,0.094l-0.1,0.093
			l-0.103,0.092l-0.106,0.091l-0.112,0.089l-0.113,0.088l-0.12,0.087l-0.122,0.086l-0.127,0.084l-0.131,0.084l-0.134,0.082
			l-0.233,0.134l-0.123,0.066l-0.128,0.066l-0.132,0.063l-0.133,0.062l-0.136,0.058l-0.137,0.054l-0.137,0.049l-0.069,0.022
			l-0.068,0.021l-0.068,0.019l-0.067,0.018l-0.068,0.016l-0.066,0.015l-0.067,0.012l-0.064,0.01l-0.066,0.008l-0.064,0.005
			l-0.031,0.002l-0.031,0.002h-0.031h-0.031h-0.031l-0.03-0.002l-0.03-0.002l-0.028-0.002l-0.922-0.081l-0.921-0.06l-0.922-0.038
			l-0.923-0.017l-0.923,0.004l-0.922,0.025l-0.922,0.047l-0.921,0.067l-0.673,0.051l-0.362,0.015l-0.183,0.003l-0.183-0.001
			l-0.181-0.007l-0.178-0.012l-0.088-0.008l-0.086-0.01l-0.085-0.011l-0.083-0.014l-0.082-0.014l-0.08-0.018l-0.078-0.019
			l-0.076-0.021l-0.038-0.012l-0.037-0.012l-0.036-0.012l-0.036-0.014l-0.034-0.013l-0.034-0.015l-0.033-0.015l-0.033-0.015
			l-0.111-0.056l-0.109-0.057l-0.108-0.058l-0.106-0.06l-0.104-0.062l-0.102-0.062l-0.102-0.064l-0.099-0.066l-0.035-0.024
			l-0.032-0.024l-0.032-0.024l-0.028-0.024l-0.028-0.024l-0.013-0.013l-0.012-0.013l-0.012-0.013l-0.012-0.013l-0.011-0.013
			l-0.011-0.013l-0.011-0.013l-0.009-0.013l-0.01-0.013l-0.009-0.013l-0.009-0.013l-0.009-0.014l-0.008-0.013l-0.008-0.013
			l-0.007-0.013l-0.007-0.014l-0.007-0.013l-0.006-0.013l-0.006-0.014l-0.004-0.014l-0.006-0.013l-0.004-0.014l-0.004-0.014
			l-0.003-0.013l-0.003-0.014l-0.004-0.014l-0.002-0.013l-0.003-0.014L82.42,83.25l-0.002-0.014l-0.001-0.014l-0.001-0.013l0-0.014
			l0-0.014v-0.015V83.155z M90.731,102.313l0.02,0.019l0.021,0.02l0.02,0.021l0.02,0.021l0.019,0.021l0.018,0.022l0.018,0.022
			l0.018,0.022l0.017,0.023l0.017,0.025l0.017,0.024l0.016,0.026l0.015,0.025l0.016,0.027l0.015,0.026l0.015,0.027l0.027,0.057
			l0.027,0.059l0.025,0.061l0.024,0.062l0.023,0.064l0.021,0.065l0.02,0.066l0.02,0.07l0.018,0.068l0.018,0.072l0.031,0.146
			l0.435,2.099l0.464,2l0.495,1.901l0.522,1.807l0.008,0.024l0.004,0.013l0.002,0.012l0.002,0.013l0.003,0.012l0.002,0.012
			l0.002,0.012l0.001,0.011l0.001,0.012l0.002,0.012v0.01v0.011l0.001,0.011l-0.001,0.01v0.011v0.009l-0.002,0.01l-0.001,0.01
			l-0.001,0.01l-0.002,0.01l-0.002,0.008l-0.003,0.01l-0.002,0.008l-0.002,0.01l-0.003,0.009l-0.003,0.008l-0.004,0.007
			l-0.003,0.008l-0.005,0.009l-0.004,0.007l-0.005,0.009l-0.005,0.007l-0.005,0.006l-0.005,0.008l-0.005,0.007l-0.005,0.007
			l-0.005,0.007l-0.007,0.006l-0.006,0.007l-0.007,0.006l-0.007,0.006l-0.007,0.006l-0.006,0.006l-0.007,0.006l-0.008,0.006
			l-0.008,0.005l-0.008,0.006l-0.008,0.004l-0.008,0.005l-0.008,0.006l-0.009,0.005l-0.009,0.005l-0.01,0.004l-0.009,0.005
			L93,111.743l-0.02,0.009l-0.02,0.007l-0.02,0.008l-0.021,0.008l-0.021,0.007l-0.022,0.006l-0.022,0.006l-0.023,0.006l-0.048,0.01
			l-0.05,0.009l-0.053,0.008l-0.053,0.007l-0.111,0.012l-0.117,0.007l-0.119,0.006l-0.248,0.009l-4.583,0.084l-0.131-0.001
			l-0.128-0.003l-0.125-0.005l-0.061-0.004l-0.059-0.006l-0.058-0.006l-0.056-0.008l-0.054-0.009l-0.051-0.011l-0.025-0.005
			l-0.025-0.006l-0.023-0.007l-0.024-0.006l-0.022-0.008l-0.023-0.008l-0.022-0.009l-0.021-0.008l-0.021-0.009l-0.02-0.009
			l-0.019-0.01l-0.009-0.005l-0.01-0.006l-0.009-0.005l-0.008-0.006l-0.009-0.005l-0.009-0.006l-0.007-0.006l-0.009-0.006
			l-0.008-0.007l-0.007-0.006l-0.007-0.005l-0.007-0.007l-0.007-0.007l-0.007-0.007l-0.006-0.007l-0.006-0.007l-0.006-0.008
			l-0.006-0.007l-0.006-0.007l-0.005-0.008l-0.006-0.008l-0.005-0.009l-0.005-0.007l-0.004-0.008l-0.004-0.008l-0.004-0.009
			l-0.004-0.009l-0.004-0.01l-0.003-0.009l-0.003-0.008l-0.002-0.01l-0.003-0.01l-0.003-0.01l-0.002-0.01l-0.001-0.009l-0.002-0.01
			l-0.002-0.011l-0.001-0.011l-0.001-0.01l0-0.011l-0.001-0.011v-0.012v-0.011v-0.011l0.001-0.012l0-0.013l0-0.012l0.002-0.012
			l0.001-0.013l0.003-0.013l0.001-0.012l0.002-0.013l0.003-0.014l0.003-0.014l0.006-0.026l0.008-0.026l0.523-1.807l0.493-1.901
			l0.465-2l0.435-2.099l0.031-0.146l0.017-0.072l0.018-0.068l0.02-0.07l0.02-0.066l0.021-0.065l0.023-0.064l0.023-0.062l0.026-0.061
			l0.026-0.059l0.028-0.057l0.014-0.027l0.015-0.026l0.015-0.027l0.016-0.025l0.016-0.026l0.016-0.024l0.017-0.025l0.018-0.023
			l0.017-0.022l0.018-0.022l0.018-0.022l0.02-0.021l0.019-0.021l0.02-0.021l0.02-0.02l0.021-0.019l0.021-0.019l0.021-0.019
			l0.022-0.017l0.022-0.017l0.023-0.016l0.023-0.015l0.024-0.015l0.024-0.014l0.025-0.013l0.025-0.012l0.026-0.012l0.026-0.011
			l0.027-0.011l0.027-0.009l0.028-0.009l0.029-0.007l0.029-0.007l0.03-0.007l0.03-0.005l0.031-0.004l0.031-0.004l0.031-0.003
			l0.033-0.002l0.033-0.001l0.348-0.004l0.348,0.004l0.033,0.001l0.032,0.002l0.032,0.003l0.031,0.004l0.031,0.004l0.03,0.005
			l0.029,0.007l0.029,0.007l0.029,0.007l0.028,0.009l0.028,0.009l0.026,0.011l0.027,0.011l0.026,0.012l0.025,0.012l0.025,0.013
			l0.023,0.014l0.024,0.015l0.023,0.015l0.023,0.016l0.022,0.017l0.022,0.017l0.021,0.019L90.731,102.313z M80.277,94.94
			l0.001,0.025l0,0.026l0.002,0.025l0.004,0.054l0.006,0.054l0.009,0.055l0.01,0.056l0.012,0.057l0.015,0.058l0.017,0.06l0.019,0.06
			l0.021,0.062l0.024,0.064l0.025,0.065l0.029,0.067l0.032,0.069l0.036,0.073l0.039,0.075l0.043,0.078l0.046,0.081l0.051,0.085
			l0.056,0.089l0.125,0.189l0.145,0.206L81.21,96.9l0.189,0.245l0.454,0.562l0.566,0.667l0.689,0.785l0.01,0.011l0.004,0.005
			l0.004,0.006l0.004,0.006l0.004,0.006l0.003,0.005l0.004,0.006l0.003,0.006l0.003,0.006l0.004,0.005l0.002,0.006l0.003,0.006
			l0.003,0.006l0.003,0.005l0.002,0.006l0.003,0.007l0.001,0.005l0.003,0.006l0.001,0.006l0.002,0.006l0.001,0.006l0.002,0.006
			l0.002,0.006l0,0.006l0.002,0.006l0,0.006l0,0.006l0.001,0.007l0,0.006l0.001,0.005v0.007v0.005v0.007v0.006v0.006l0,0.006
			l0,0.006l0,0.006l-0.001,0.006l0,0.006l-0.001,0.007l-0.001,0.006l-0.002,0.006l-0.001,0.006l-0.001,0.006l-0.002,0.006
			l-0.002,0.006l-0.001,0.006l-0.002,0.007l-0.003,0.005l-0.001,0.007l-0.003,0.006l-0.003,0.006l-0.003,0.006l-0.002,0.006
			l-0.003,0.007l-0.003,0.005l-0.003,0.006l-0.004,0.007l-0.004,0.006l-0.004,0.005l-0.008,0.013l-0.039,0.052l-0.041,0.052
			l-0.041,0.051l-0.042,0.05l-0.004,0.005l-0.004,0.006l-0.005,0.004l-0.003,0.005l-0.004,0.004l-0.004,0.004L82.93,99.77
			l-0.004,0.005l-0.004,0.003l-0.005,0.003l-0.004,0.004l-0.005,0.003l-0.004,0.003l-0.004,0.003l-0.005,0.002l-0.005,0.003
			L82.884,99.8l-0.004,0.002l-0.004,0.002l-0.005,0.002l-0.004,0.001l-0.005,0.002l-0.005,0.001l-0.004,0.001l-0.005,0.001
			l-0.004,0.001l-0.006,0.001h-0.004l-0.004,0.001h-0.005h-0.005h-0.005h-0.005l-0.005-0.001h-0.005l-0.005-0.001l-0.005-0.001
			l-0.005-0.001l-0.004-0.001l-0.005-0.002l-0.006-0.001l-0.005-0.002l-0.005-0.002l-0.004-0.002L82.748,99.8l-0.005-0.003
			l-0.006-0.002l-0.004-0.003l-0.005-0.002l-0.005-0.003l-0.006-0.003l-0.005-0.003l-0.004-0.003l-0.006-0.003l-0.01-0.008
			l-0.01-0.007l-0.011-0.009l-0.009-0.009l-0.011-0.009l-0.464-0.426l-0.453-0.438l-0.441-0.448l-0.43-0.461l-0.418-0.471
			l-0.407-0.481l-0.392-0.493l-0.379-0.502l-0.027-0.038l-0.026-0.037l-0.024-0.038l-0.024-0.038l-0.022-0.037l-0.021-0.038
			L79.1,95.75l-0.02-0.039l-0.018-0.038l-0.018-0.038l-0.017-0.039l-0.015-0.038l-0.014-0.038l-0.014-0.039l-0.012-0.039
			l-0.013-0.038l-0.009-0.039l-0.01-0.039l-0.008-0.038l-0.008-0.039l-0.006-0.039l-0.006-0.039l-0.005-0.039l-0.003-0.039
			L78.9,95.053l-0.001-0.04l-0.001-0.038v-0.04l0.001-0.039l0.001-0.039l0.002-0.039l0.004-0.039l0.005-0.039l0.005-0.039
			l0.007-0.039l0.007-0.04l0.008-0.039l0.01-0.038l0.01-0.04l0.011-0.039l0.011-0.039l0.013-0.039l0.013-0.039l0.015-0.038
			l0.016-0.039l0.016-0.039l0.017-0.038l0.018-0.039l0.019-0.039l0.02-0.038L79.169,94l0.044-0.077l0.048-0.076l0.052-0.076
			l0.055-0.075l0.058-0.075l0.061-0.075l1.738-2.049l0.448-0.501l0.457-0.491l0.469-0.48l0.483-0.468l0.011-0.01l0.011-0.01
			l0.011-0.009l0.011-0.009l0.011-0.008l0.011-0.008l0.006-0.004l0.005-0.003l0.006-0.003l0.005-0.003l0.006-0.004l0.005-0.003
			l0.005-0.003l0.006-0.002l0.006-0.003l0.005-0.002l0.005-0.002l0.006-0.002l0.006-0.002l0.005-0.002l0.006-0.002l0.006-0.001
			l0.006-0.002l0.005-0.001l0.006-0.001l0.005-0.002h0.006l0.005-0.001h0.007l0.006-0.001h0.006h0.005h0.006h0.005l0.006,0.001
			l0.005,0.001h0.006l0.006,0.001l0.006,0.001l0.005,0.002l0.006,0.001l0.006,0.001l0.006,0.002l0.006,0.002l0.006,0.003
			l0.006,0.001l0.006,0.003l0.005,0.002l0.006,0.003l0.006,0.003l0.006,0.003l0.005,0.003l0.006,0.004l0.005,0.003l0.006,0.003
			l0.005,0.004l0.006,0.004l0.006,0.005l0.011,0.009l0.011,0.008l0.011,0.01l0.011,0.009l0.01,0.009l0.011,0.01l0.01,0.01l0.01,0.01
			l0.01,0.01l0.009,0.011l0.01,0.01l0.01,0.011l0.009,0.011l0.009,0.011l0.009,0.011l0.009,0.011l0.005,0.007l0.004,0.007
			l0.004,0.006l0.004,0.006l0.003,0.007c0.001,0.003,0.003,0.006,0.003,0.006c0.002,0.003,0.003,0.006,0.003,0.006
			c0.001,0.004,0.003,0.007,0.003,0.007c0.001,0.003,0.001,0.006,0.001,0.006c0.001,0.004,0.002,0.007,0.002,0.007
			c0.001,0.003,0.002,0.006,0.002,0.006c0.001,0.004,0.002,0.007,0.002,0.007c0,0.003,0.001,0.007,0.001,0.007
			c0,0.003,0.001,0.006,0.001,0.006c0,0.004,0,0.007,0,0.007c0.001,0.003,0.001,0.006,0.001,0.006c0,0.004,0,0.007,0,0.007
			c0,0.003,0,0.007,0,0.007v0.007l0,0.006l0,0.007l-0.001,0.007l0,0.006l0,0.007l-0.002,0.007l-0.001,0.007l-0.002,0.007
			l-0.001,0.006l-0.002,0.007l-0.002,0.007l-0.002,0.007l-0.003,0.006l-0.002,0.008l-0.003,0.007l-0.003,0.006l-0.003,0.007
			l-0.007,0.015l-0.007,0.013l-0.008,0.014l-0.009,0.015l-0.009,0.014l-0.009,0.014l-0.021,0.028l-0.021,0.029L83.485,90.1
			l-1.206,1.483l-0.79,1.016l-0.275,0.376L81,93.283l-0.17,0.26l-0.14,0.229l-0.121,0.21l-0.054,0.102l-0.049,0.099l-0.022,0.049
			l-0.021,0.049L80.4,94.329l-0.019,0.048l-0.017,0.049l-0.016,0.047l-0.015,0.048l-0.013,0.049l-0.011,0.048L80.3,94.666
			l-0.008,0.049l-0.006,0.05l-0.003,0.024l-0.001,0.024l-0.002,0.025l-0.001,0.025l0,0.025l-0.001,0.025V94.94z M80.712,120.267
			l-0.638,0.46l-0.599,0.413l-0.56,0.37l-0.524,0.329l-0.489,0.291l-0.456,0.258l-0.424,0.226l-0.394,0.198l-0.366,0.172
			l-0.339,0.149l-0.313,0.131l-0.559,0.216l-0.543,0.192l-0.237,0.077l-0.214,0.062l-0.1,0.026l-0.095,0.022l-0.091,0.021
			l-0.087,0.016l-0.083,0.012l-0.04,0.006l-0.04,0.005l-0.039,0.003l-0.037,0.003l-0.037,0.002l-0.036,0.001h-0.035l-0.035-0.001
			l-0.034-0.001l-0.034-0.003l-0.033-0.003l-0.032-0.004l-0.032-0.005l-0.031-0.005l-0.031-0.006l-0.031-0.008l-0.03-0.009
			l-0.03-0.009l-0.029-0.01l-0.029-0.01l-0.029-0.012l-0.028-0.012l-0.028-0.014l-0.028-0.013l-0.028-0.016l-0.027-0.016
			l-0.028-0.015l-0.027-0.018l-0.028-0.019l-0.027-0.018l-0.028-0.021l-0.028-0.02l-0.056-0.042l-0.057-0.046l-0.057-0.049
			l-0.059-0.054l-0.061-0.055l-0.124-0.121l-0.127-0.132l-0.134-0.143l-0.137-0.153l-0.142-0.165l-0.294-0.36l-0.311-0.397
			l-0.325-0.432l-0.689-0.954l-0.729-1.054l-0.74-1.138l-0.364-0.596l-0.354-0.61l-0.338-0.624l-0.321-0.636l-0.151-0.321
			l-0.146-0.325l-0.274-0.653l-0.249-0.657l-0.226-0.663l-0.104-0.332l-0.097-0.333l-0.091-0.332l-0.084-0.332l-0.077-0.331
			l-0.071-0.331l-0.064-0.33l-0.057-0.328l-0.051-0.326l-0.044-0.325l-0.071-0.642l-0.05-0.629l-0.032-0.612l-0.015-0.593
			l-0.003-0.569l0.021-1.054l0.043-0.937l0.032-0.441l0.042-0.438l0.053-0.443l0.066-0.456l0.081-0.482l1.524-7.194l0.061-0.285
			l0.031-0.131l0.032-0.124l0.034-0.117l0.019-0.057l0.018-0.055l0.02-0.054l0.021-0.053l0.021-0.052l0.023-0.05l0.024-0.05
			l0.025-0.05l0.028-0.05l0.031-0.05l0.032-0.05l0.035-0.051l0.038-0.051l0.042-0.052l0.044-0.053l0.047-0.055l0.052-0.056
			l0.055-0.059l0.06-0.059l0.064-0.062l0.142-0.13l0.163-0.142l0.184-0.154l0.441-0.354l0.549-0.426l1.482-1.103l0.967-0.683
			l1.14-0.773l1.329-0.865l1.535-0.959l3.757-2.207l0.64-0.364l0.152-0.082l0.075-0.037l0.074-0.036l0.072-0.034l0.073-0.031
			l0.071-0.028l0.071-0.025l0.036-0.012l0.035-0.011l0.034-0.01l0.034-0.009l0.034-0.009l0.034-0.007l0.034-0.007l0.033-0.006
			l0.033-0.005l0.034-0.003l0.032-0.003l0.033-0.001l0.032-0.001l0.032,0.001h0.017l0.016,0.001l0.016,0.002l0.016,0.001
			l0.016,0.002l0.016,0.003l0.016,0.002l0.017,0.003l0.015,0.003l0.015,0.003l0.017,0.004l0.015,0.004l0.015,0.005l0.016,0.004
			l0.015,0.006l0.015,0.005l0.016,0.006l0.015,0.006l0.015,0.006l0.016,0.008l0.015,0.007l0.015,0.007l0.015,0.008l0.015,0.008
			l0.015,0.008l0.015,0.01l0.015,0.009l0.014,0.01l0.014,0.01l0.015,0.01l0.014,0.011l0.014,0.011l0.015,0.012l0.013,0.012
			l0.014,0.013l0.015,0.012l0.27,0.252l0.256,0.25l0.241,0.248l0.228,0.246l0.028,0.031l0.027,0.033l0.025,0.031l0.024,0.032
			l0.022,0.032l0.022,0.032l0.02,0.032l0.019,0.032l0.018,0.031l0.016,0.033l0.014,0.031l0.014,0.032l0.013,0.032l0.011,0.033
			l0.005,0.016l0.004,0.017l0.004,0.016l0.004,0.017l0.003,0.016l0.004,0.016l0.002,0.017l0.003,0.017l0.002,0.016l0.003,0.016
			l0.002,0.017l0.002,0.016l0.001,0.017l0.001,0.016l0,0.017l0.001,0.016l0,0.017v0.017l-0.001,0.032l-0.001,0.032l-0.004,0.032
			l-0.003,0.032l-0.006,0.032l-0.006,0.032l-0.007,0.032l-0.009,0.032l-0.009,0.032l-0.01,0.032l-0.012,0.032l-0.012,0.032
			l-0.013,0.032l-0.015,0.033l-0.015,0.031l-0.017,0.032l-0.017,0.032L83,87.801l-0.018,0.032l-0.02,0.032l-0.021,0.032L82.92,87.93
			l-0.022,0.032l-0.048,0.064l-0.05,0.064l-0.054,0.064L82.69,88.22l-0.06,0.064l-0.062,0.064l-0.066,0.064l-0.067,0.064
			l-0.071,0.063l-0.187,0.172l-0.201,0.191l-0.442,0.445l-0.496,0.525l-0.55,0.608l-1.266,1.462l-1.482,1.788l-0.052,0.065
			l-0.048,0.065l-0.046,0.065l-0.043,0.065l-0.042,0.066l-0.038,0.067l-0.036,0.066l-0.033,0.068l-0.017,0.033l-0.014,0.034
			l-0.014,0.033l-0.015,0.035l-0.012,0.033l-0.013,0.034l-0.011,0.034l-0.011,0.034l-0.009,0.034l-0.009,0.034l-0.009,0.034
			l-0.008,0.034l-0.007,0.035l-0.006,0.034l-0.005,0.034l-0.004,0.034l-0.005,0.034l-0.002,0.034l-0.002,0.035l-0.002,0.034l0,0.035
			v0.033l0,0.035l0.001,0.034l0.002,0.034l0.003,0.034l0.004,0.034l0.005,0.034l0.005,0.034l0.006,0.034l0.007,0.034l0.008,0.034
			l0.009,0.034l0.009,0.034l0.011,0.033l0.012,0.034l0.012,0.033l0.014,0.034l0.013,0.034l0.014,0.033l0.016,0.033l0.017,0.033
			l0.017,0.033l0.019,0.033l0.019,0.033l0.02,0.033l0.021,0.033l0.022,0.033l0.514,0.729l0.538,0.713l0.561,0.694l0.585,0.677
			l0.609,0.659l0.632,0.642l0.656,0.623l0.681,0.606l0.029,0.026l0.031,0.022l0.03,0.022l0.03,0.021l0.029,0.019l0.015,0.009
			l0.014,0.009l0.015,0.009l0.015,0.006l0.014,0.009l0.014,0.007l0.014,0.007l0.014,0.006l0.015,0.006l0.014,0.006l0.014,0.004
			l0.015,0.005l0.013,0.005l0.015,0.004l0.014,0.004l0.014,0.004l0.014,0.003l0.014,0.003l0.014,0.002l0.015,0.002l0.013,0.002
			l0.014,0.001l0.014,0.001h0.014h0.013h0.014h0.013h0.014l0.014-0.001l0.013-0.002l0.014-0.002l0.013-0.002l0.014-0.002
			l0.013-0.003l0.013-0.003l0.013-0.003l0.013-0.004l0.013-0.004l0.012-0.004l0.013-0.005L83,101.423l0.013-0.005l0.012-0.006
			l0.013-0.005l0.012-0.007l0.013-0.006l0.013-0.007l0.012-0.007l0.013-0.006l0.012-0.008l0.025-0.016l0.024-0.017l0.024-0.017
			l0.024-0.02l0.024-0.018l0.024-0.021l0.024-0.021l0.024-0.021l0.023-0.024l0.024-0.023l0.023-0.025l0.023-0.026l0.023-0.026
			l0.023-0.028l0.045-0.057l0.044-0.061l0.044-0.063l0.044-0.067l0.044-0.069l0.043-0.07l0.085-0.149l0.083-0.159l0.413-0.774
			l0.442-0.772l0.472-0.768l0.501-0.765l0.532-0.761l0.561-0.758l0.59-0.754l0.62-0.75l0.02-0.023l0.02-0.022l0.02-0.021l0.02-0.021
			l0.02-0.02l0.02-0.019l0.019-0.018l0.02-0.017l0.02-0.016l0.02-0.016l0.019-0.014l0.02-0.013l0.019-0.012l0.009-0.006l0.009-0.005
			l0.009-0.005l0.009-0.005l0.01-0.005l0.009-0.004l0.009-0.005l0.009-0.004l0.009-0.003l0.009-0.003l0.009-0.004l0.008-0.002
			l0.009-0.003l0.008-0.002L88.4,93.98l0.009-0.002l0.008-0.002l0.008-0.001l0.009-0.001h0.008h0.004h0.004h0.003h0.004h0.004h0.004
			l0.004,0.001l0.004,0.001h0.004l0.004,0.001h0.004l0.004,0.001l0.003,0.001l0.004,0.001l0.004,0.001
			c0.004,0.001,0.007,0.002,0.007,0.002l0.004,0.001c0.004,0.001,0.007,0.003,0.007,0.003c0.004,0.001,0.008,0.003,0.008,0.003
			c0.003,0.001,0.007,0.003,0.007,0.003c0.004,0.002,0.007,0.004,0.007,0.004c0.003,0.001,0.008,0.004,0.008,0.004
			c0.002,0.002,0.006,0.004,0.006,0.004c0.003,0.002,0.007,0.004,0.007,0.004c0.003,0.003,0.007,0.006,0.007,0.006
			c0.003,0.002,0.006,0.004,0.006,0.004c0.003,0.004,0.007,0.006,0.007,0.006c0.003,0.004,0.006,0.006,0.006,0.006
			c0.003,0.003,0.007,0.006,0.007,0.006l0.005,0.007l0.006,0.007l0.006,0.007l0.006,0.008l0.006,0.008l0.006,0.008l0.005,0.009
			l0.005,0.009l0.005,0.009l0.005,0.01l0.005,0.01l0.005,0.011l0.005,0.01l0.004,0.012l0.005,0.012l0.004,0.011l0.004,0.013
			l0.003,0.012l0.004,0.013l0.003,0.014l0.004,0.013l0.007,0.028l0.006,0.03l0.006,0.031l0.004,0.032l0.004,0.034l0.004,0.036
			l0.003,0.037l0.002,0.039l0.002,0.041l0,0.042l0,0.089l-0.004,0.097l-0.007,0.103l-0.011,0.11l-0.013,0.116l-0.651,4.516
			l-0.363,2.125l-0.388,2.035l-0.412,1.946l-0.438,1.858l-0.463,1.769l-0.488,1.68l-0.009,0.029l-0.01,0.03l-0.01,0.028
			l-0.012,0.028l-0.012,0.028l-0.012,0.027l-0.013,0.026l-0.014,0.025l-0.014,0.025l-0.015,0.026l-0.015,0.023l-0.015,0.024
			l-0.017,0.022l-0.017,0.023l-0.016,0.022l-0.018,0.021l-0.018,0.021l-0.018,0.021l-0.019,0.021l-0.019,0.019l-0.021,0.02
			l-0.02,0.019l-0.021,0.018l-0.021,0.019l-0.021,0.017l-0.022,0.017l-0.022,0.017l-0.022,0.015l-0.023,0.015l-0.023,0.016
			l-0.024,0.013l-0.024,0.014l-0.025,0.014l-0.025,0.013l-0.025,0.012l-0.026,0.013l-0.026,0.011l-0.026,0.011l-0.027,0.01
			l-0.027,0.01l-0.028,0.01l-0.028,0.009l-0.029,0.009l-0.028,0.008l-0.059,0.015l-0.06,0.014l-0.062,0.011l-0.062,0.009
			l-0.063,0.008l-0.064,0.006l-0.065,0.005l-0.066,0.003l-0.067,0.001l-0.068-0.001l-0.743-0.016l-0.017,0.67l3.407,0.041
			l3.407-0.032l10.848-0.479l0.72-0.021l0.721-0.004l0.299,0.004l0.297,0.011l0.299,0.017l0.297,0.023l0.248,0.027l0.248,0.033
			l0.122,0.021l0.123,0.021l0.122,0.025l0.121,0.026l0.107,0.025l0.106,0.028l0.105,0.03l0.104,0.032l0.104,0.035l0.104,0.037
			l0.103,0.039l0.102,0.042l0.264-0.615l-0.146-0.06l-0.148-0.056l-0.151-0.053l-0.153-0.047l-0.157-0.044l-0.161-0.04l-0.163-0.037
			l-0.166-0.033l-0.147-0.028l-0.131-0.029l-0.059-0.014l-0.055-0.016l-0.052-0.016l-0.023-0.007l-0.022-0.008l-0.022-0.009
			l-0.021-0.009l-0.02-0.009l-0.018-0.008l-0.02-0.009l-0.008-0.006l-0.008-0.004l-0.009-0.005l-0.007-0.005l-0.009-0.005
			l-0.007-0.005l-0.008-0.006l-0.007-0.004l-0.005-0.005l-0.007-0.006l-0.007-0.006l-0.005-0.006l-0.006-0.005l-0.007-0.006
			l-0.005-0.006l-0.005-0.006l-0.004-0.005l-0.004-0.006l-0.005-0.007l-0.004-0.006l-0.004-0.007l-0.003-0.006
			c-0.002-0.004-0.004-0.007-0.004-0.007c-0.002-0.004-0.003-0.006-0.003-0.006c-0.002-0.003-0.003-0.007-0.003-0.007
			c-0.002-0.004-0.003-0.007-0.003-0.007l-0.003-0.008l-0.001-0.007l-0.003-0.007l-0.001-0.008l-0.002-0.007l-0.001-0.007
			l-0.001-0.008l-0.001-0.008v-0.008v-0.009v-0.008v-0.008v-0.009v-0.009l0.001-0.009l0.001-0.008l0.001-0.01l0.002-0.009
			l0.002-0.009l0.002-0.011l0.001-0.009l0.003-0.009l0.006-0.021l0.007-0.02l0.007-0.022l0.008-0.022l0.008-0.021l0.01-0.023
			l0.011-0.023l0.023-0.05l0.026-0.054l0.03-0.056l0.034-0.058l0.075-0.13l0.04-0.068l0.04-0.07l0.077-0.142l0.052-0.104
			l0.051-0.106l0.096-0.216l0.091-0.219l0.085-0.22l0.166-0.463l0.16-0.465l0.919-2.87l1.005-3.448l0.934-3.47l-0.649-0.169
			l-1.555,5.641l-0.744,2.438l-0.724,2.184l-0.139,0.387l-0.068,0.178l-0.068,0.169l-0.068,0.158l-0.069,0.149l-0.069,0.141
			l-0.035,0.067l-0.035,0.063l-0.036,0.064l-0.037,0.06l-0.037,0.06l-0.037,0.057l-0.038,0.055l-0.038,0.054l-0.039,0.051
			l-0.041,0.05l-0.041,0.048l-0.042,0.046l-0.042,0.044l-0.044,0.042l-0.045,0.04l-0.045,0.039l-0.046,0.038l-0.048,0.035
			l-0.049,0.035l-0.05,0.032l-0.051,0.032l-0.052,0.03l-0.055,0.028l-0.055,0.026l-0.057,0.027l-0.058,0.024l-0.06,0.023
			l-0.061,0.022l-0.062,0.021l-0.064,0.02l-0.065,0.02l-0.068,0.019l-0.068,0.016l-0.071,0.017l-0.147,0.029l-0.155,0.025
			l-0.164,0.022l-0.172,0.02l-0.372,0.031l-0.409,0.022l-4.591,0.247l-0.311,0.011l-0.147,0.001l-0.145-0.005l-0.07-0.003
			l-0.069-0.005l-0.067-0.006l-0.065-0.009l-0.064-0.011l-0.063-0.011l-0.031-0.007l-0.029-0.007l-0.03-0.007l-0.029-0.009
			l-0.029-0.009l-0.028-0.009l-0.027-0.01l-0.028-0.01l-0.026-0.011l-0.027-0.012l-0.025-0.013l-0.025-0.012l-0.025-0.014
			l-0.023-0.014l-0.023-0.015l-0.023-0.016l-0.023-0.016l-0.022-0.016l-0.021-0.018l-0.021-0.019l-0.02-0.019l-0.011-0.009
			l-0.01-0.01l-0.009-0.011l-0.01-0.009l-0.009-0.012l-0.01-0.01l-0.009-0.012l-0.009-0.01l-0.008-0.012l-0.009-0.012l-0.009-0.012
			l-0.008-0.011l-0.009-0.013l-0.008-0.012l-0.007-0.013l-0.008-0.013l-0.014-0.025l-0.015-0.026l-0.013-0.028l-0.012-0.027
			l-0.012-0.03l-0.011-0.029l-0.009-0.031l-0.489-1.68l-0.463-1.769l-0.438-1.858l-0.413-1.946l-0.388-2.035l-0.363-2.125
			l-0.651-4.516l-0.014-0.116l-0.01-0.11l-0.007-0.103l-0.004-0.097l0-0.089l0-0.042l0.002-0.041l0.002-0.039l0.003-0.037
			l0.003-0.036l0.004-0.034l0.004-0.032l0.006-0.031l0.006-0.03l0.006-0.028l0.004-0.013l0.004-0.014l0.004-0.013l0.003-0.012
			l0.004-0.013l0.005-0.011l0.004-0.012l0.005-0.012l0.004-0.01l0.005-0.011l0.005-0.01l0.005-0.01l0.006-0.009l0.005-0.009
			l0.006-0.009l0.005-0.008l0.006-0.008l0.006-0.008l0.005-0.007l0.006-0.007l0.007-0.007c0.003-0.003,0.006-0.006,0.006-0.006
			c0.003-0.002,0.006-0.006,0.006-0.006c0.003-0.002,0.007-0.006,0.007-0.006c0.003-0.002,0.007-0.004,0.007-0.004
			c0.002-0.003,0.006-0.006,0.006-0.006c0.003-0.002,0.007-0.004,0.007-0.004c0.003-0.002,0.007-0.004,0.007-0.004
			c0.003-0.003,0.007-0.004,0.007-0.004c0.004-0.002,0.007-0.004,0.007-0.004c0.004-0.002,0.008-0.003,0.008-0.003l0.003-0.002
			c0.004-0.001,0.007-0.003,0.007-0.003l0.004-0.001c0.004-0.001,0.007-0.002,0.007-0.002l0.004-0.001l0.004-0.001
			c0.003-0.001,0.008-0.002,0.008-0.002l0.003-0.001h0.004l0.004-0.001h0.003l0.004-0.001l0.004-0.001h0.004h0.004h0.004h0.004
			h0.003h0.004h0.009l0.008,0.001l0.009,0.001l0.008,0.002l0.008,0.002l0.009,0.001l0.009,0.002l0.008,0.003l0.009,0.002
			l0.008,0.004l0.009,0.003l0.009,0.003l0.009,0.004l0.009,0.005l0.01,0.004l0.009,0.005l0.009,0.005l0.009,0.005l0.01,0.005
			l0.01,0.006l0.019,0.012l0.02,0.013l0.019,0.014l0.02,0.016l0.02,0.016l0.02,0.017l0.02,0.018l0.019,0.019l0.02,0.02l0.02,0.021
			l0.02,0.021l0.02,0.022l0.02,0.023l0.62,0.75l0.59,0.754l0.561,0.758l0.531,0.761l0.502,0.765l0.472,0.768l0.443,0.772
			l0.412,0.774l0.083,0.159l0.085,0.149l0.043,0.07l0.044,0.069l0.044,0.067l0.045,0.063l0.045,0.061l0.045,0.057l0.022,0.028
			l0.023,0.026l0.023,0.026l0.023,0.025l0.022,0.023l0.024,0.024l0.023,0.021l0.024,0.021l0.023,0.021l0.024,0.018l0.024,0.02
			l0.024,0.017l0.024,0.017l0.025,0.016l0.012,0.008l0.013,0.006l0.013,0.007l0.012,0.007l0.013,0.006l0.013,0.007l0.013,0.005
			l0.013,0.006l0.013,0.005l0.014,0.004l0.013,0.005l0.013,0.004l0.013,0.004l0.014,0.004l0.012,0.003l0.014,0.003l0.013,0.003
			l0.014,0.002l0.014,0.002l0.013,0.002l0.014,0.002l0.013,0.001h0.014h0.013h0.015h0.013h0.014l0.015-0.001l0.013-0.001
			l0.014-0.002l0.015-0.002l0.014-0.002l0.013-0.003l0.014-0.003l0.015-0.004l0.014-0.004l0.015-0.004l0.014-0.005l0.014-0.005
			l0.015-0.004l0.015-0.006l0.014-0.006l0.015-0.006l0.014-0.007l0.016-0.007l0.014-0.009L97,101.376l0.015-0.009l0.014-0.009
			l0.016-0.009l0.029-0.019l0.03-0.021l0.029-0.022l0.03-0.022l0.03-0.026l0.68-0.606l0.656-0.623l0.633-0.642l0.608-0.659
			l0.585-0.677l0.562-0.694l0.538-0.713l0.515-0.729l0.021-0.033l0.021-0.033l0.02-0.033l0.02-0.033l0.019-0.033l0.018-0.033
			l0.016-0.033l0.016-0.033l0.015-0.033l0.015-0.034l0.013-0.034l0.012-0.033l0.012-0.034l0.011-0.033l0.01-0.034l0.008-0.034
			l0.009-0.034l0.007-0.034l0.007-0.034l0.005-0.034l0.006-0.034l0.004-0.034l0.003-0.034l0.002-0.034l0.002-0.034v-0.035v-0.033
			v-0.035l-0.002-0.034l-0.003-0.035l-0.003-0.034l-0.004-0.034l-0.005-0.034l-0.006-0.034l-0.007-0.034l-0.007-0.035l-0.008-0.034
			l-0.007-0.034l-0.01-0.034l-0.01-0.034l-0.012-0.034l-0.01-0.034l-0.013-0.034l-0.013-0.033l-0.014-0.035l-0.014-0.033
			l-0.015-0.034l-0.017-0.033l-0.033-0.068l-0.035-0.066l-0.038-0.067l-0.042-0.066l-0.044-0.065l-0.046-0.065l-0.05-0.065
			l-0.05-0.065l-1.484-1.788l-1.265-1.462l-0.551-0.608l-0.495-0.525l-0.442-0.445l-0.2-0.191l-0.187-0.172L96.1,87.67l-0.238-0.21
			l-0.222-0.206l-0.104-0.102l-0.098-0.102l-0.092-0.101l-0.042-0.049l-0.042-0.049l-0.038-0.05l-0.037-0.049l-0.035-0.049
			l-0.034-0.048l-0.03-0.049l-0.028-0.048l-0.014-0.023l-0.013-0.024l-0.013-0.023l-0.011-0.023l-0.011-0.023l-0.011-0.024
			l-0.01-0.022l-0.009-0.024l-0.008-0.023l-0.008-0.022l-0.007-0.023l-0.006-0.023l-0.006-0.023l-0.004-0.022l-0.005-0.023
			l-0.004-0.022l-0.001-0.023l-0.002-0.022l-0.001-0.022l-0.001-0.022l0.001-0.012v-0.012l0.001-0.011v-0.011l0.001-0.012
			l0.001-0.011l0.001-0.012l0.002-0.012l0.002-0.011l0.001-0.011l0.004-0.012l0.001-0.011l0.003-0.012l0.003-0.011l0.003-0.011
			l0.004-0.011l0.003-0.012l0.005-0.011l0.003-0.011l0.005-0.011l0.005-0.012l0.003-0.011l0.005-0.011l0.005-0.011l0.012-0.022
			l0.012-0.021l0.013-0.021l0.013-0.021l0.015-0.021l0.016-0.021l0.017-0.021l0.017-0.021l0.019-0.021l0.02-0.021l0.021-0.021
			l0.021-0.021l0.022-0.021l0.023-0.021l0.024-0.021l0.024-0.021l0.027-0.021l0.027-0.021l0.027-0.021l0.031-0.021l1.021-0.712
			l0.974-0.724l0.929-0.734l0.883-0.747l0.027-0.022l0.028-0.022l0.028-0.021l0.029-0.021l0.029-0.02l0.03-0.021l0.031-0.019
			l0.031-0.019l0.033-0.019l0.031-0.017l0.033-0.017l0.034-0.017l0.035-0.016l0.035-0.015l0.035-0.015l0.035-0.015l0.074-0.025
			l0.074-0.024l0.077-0.022l0.078-0.021l0.079-0.019l0.08-0.018l0.082-0.015l0.082-0.014l0.084-0.013l0.084-0.011l0.17-0.018
			l0.17-0.012l0.171-0.01l0.171-0.004l0.168-0.002l0.326,0.003l2.974,0.103l2.408,0.152l1.931,0.182l1.543,0.192l1.233,0.188
			l0.52,0.092l0.461,0.091l0.41,0.091l0.364,0.091l0.324,0.091l0.149,0.046l0.141,0.047l0.134,0.047l0.127,0.048l0.121,0.049
			l0.114,0.051l0.056,0.027l0.055,0.026l0.053,0.027l0.052,0.028l0.049,0.029l0.049,0.03l0.048,0.031l0.047,0.031l0.046,0.032
			l0.045,0.035l0.044,0.035l0.043,0.036l0.042,0.038l0.041,0.04l0.041,0.04l0.039,0.042l0.039,0.043l0.038,0.046l0.039,0.047
			l0.036,0.048l0.036,0.051l0.037,0.052l0.035,0.054l0.036,0.056l0.035,0.059l0.034,0.06l0.034,0.062l0.035,0.064l0.067,0.136
			l0.067,0.146L116,85.142l0.067,0.168l0.066,0.18l0.065,0.193l0.132,0.428l0.136,0.486l0.139,0.551l0.144,0.621l0.302,1.456
			l0.148,0.816l0.141,0.862l0.127,0.897l0.11,0.922l0.086,0.938l0.059,0.944l0.017,0.471l0.01,0.471l0.001,0.471l-0.009,0.471
			l-0.017,0.472l-0.025,0.474l-0.035,0.476l-0.044,0.479l-0.054,0.481l-0.062,0.485l-0.072,0.49l-0.082,0.495l-0.196,1.006
			l-0.235,1.033l-0.277,1.062l-0.315,1.086l-0.349,1.104l-0.379,1.112l-0.826,2.231l-0.892,2.19l-0.923,2.1l-2.576,5.407
			l-1.265,2.576l-0.266,0.504l-0.249,0.446l-0.121,0.202l-0.117,0.187l-0.117,0.173l-0.057,0.081l-0.057,0.078l-0.057,0.074
			l-0.056,0.071l-0.058,0.066l-0.056,0.063l-0.058,0.059l-0.028,0.03l-0.029,0.027l-0.028,0.027l-0.03,0.026l-0.03,0.026
			l-0.029,0.023l-0.031,0.024l-0.03,0.023l-0.03,0.022l-0.033,0.021l-0.031,0.021l-0.032,0.019l-0.033,0.02l-0.033,0.019
			l-0.034,0.018l-0.034,0.018l-0.035,0.015l-0.036,0.016l-0.036,0.015l-0.037,0.013l-0.039,0.014l-0.038,0.013l-0.039,0.012
			l-0.04,0.01l-0.04,0.011l-0.042,0.01l-0.042,0.009l-0.044,0.008l-0.044,0.007l-0.045,0.006l-0.094,0.012l-0.098,0.009
			l-0.102,0.006l-0.105,0.003h-0.111l-0.115-0.001l-0.121-0.005l-0.126-0.008l-0.269-0.021l-0.292-0.03l-0.658-0.089l-0.748-0.121
			l-0.825-0.154l-0.893-0.182l-1.938-0.438l-2.066-0.521l-2.122-0.592l-2.19-0.68l-2.292-0.793l-2.427-0.934l-2.62-1.104
			l-2.956-1.342l-7.602-3.693l-0.034-0.017l-0.033-0.018l-0.032-0.018l-0.031-0.02l-0.031-0.019l-0.03-0.02l-0.03-0.02l-0.028-0.021
			l-0.029-0.021l-0.028-0.021l-0.027-0.022l-0.026-0.021l-0.026-0.023l-0.025-0.022l-0.024-0.024l-0.024-0.024l-0.023-0.024
			l-0.023-0.025l-0.022-0.024l-0.022-0.026l-0.021-0.026l-0.02-0.027l-0.02-0.026l-0.02-0.029l-0.019-0.026l-0.018-0.028
			l-0.018-0.029l-0.017-0.029l-0.016-0.029l-0.016-0.03l-0.015-0.029l-0.015-0.031l-0.014-0.03l-0.013-0.031l-0.013-0.032
			l-0.012-0.031l-0.012-0.032l-0.011-0.033l-0.011-0.032l-0.009-0.033l-0.009-0.033l-0.009-0.035l-0.009-0.033l-0.007-0.034
			l-0.013-0.07l-0.011-0.069l-0.008-0.072l-0.007-0.071l-0.004-0.075l-0.002-0.073v-0.074l0.002-0.077l0.004-0.076l0.007-0.077
			l0.069-0.802l0.094-1.874l0.255-8.255l-0.503-0.015l-0.254,8.247l-0.093,1.859l-0.047,0.6l-0.05,0.467l-0.028,0.202l-0.015,0.097
			l-0.017,0.094l-0.018,0.09l-0.021,0.088l-0.012,0.044l-0.012,0.042l-0.012,0.042l-0.013,0.042l-0.015,0.041l-0.015,0.041
			l-0.017,0.04l-0.017,0.04l-0.018,0.041l-0.019,0.039l-0.02,0.039l-0.021,0.04l-0.023,0.039l-0.023,0.038l-0.025,0.039l-0.026,0.04
			l-0.027,0.039l-0.029,0.039l-0.031,0.039l-0.031,0.039l-0.033,0.039l-0.034,0.041l-0.037,0.039l-0.038,0.04l-0.08,0.082
			l-0.088,0.083l-0.095,0.085l-0.103,0.088l-0.111,0.089l-0.12,0.093l-0.267,0.194l-0.305,0.209l-0.734,0.471l0.265,0.428
			l0.751-0.48l0.3-0.205l0.294-0.216l0.12-0.093l0.119-0.094l0.019-0.015l0.02-0.015l0.02-0.015l0.019-0.015l0.02-0.012l0.02-0.013
			l0.02-0.012l0.02-0.011l0.021-0.01l0.02-0.01l0.02-0.01l0.021-0.009l0.021-0.009l0.021-0.007l0.02-0.007l0.021-0.006l0.021-0.007
			l0.022-0.006l0.021-0.004l0.021-0.004l0.021-0.004l0.022-0.003l0.021-0.003l0.021-0.002l0.022-0.001l0.021-0.001l0.022-0.001
			h0.021l0.021,0.001l0.023,0.001l0.021,0.001l0.022,0.002l0.021,0.002l0.022,0.003l0.022,0.004l0.022,0.004l0.022,0.004
			l0.022,0.005l0.022,0.005l0.022,0.007l0.022,0.006l0.022,0.007l0.044,0.014l0.045,0.018l0.045,0.017l0.045,0.021l0.045,0.021
			l0.044,0.022l0.045,0.024l0.044,0.025l0.045,0.026l0.044,0.029l0.044,0.029l2.057,1.389l1.954,1.254l1.857,1.134l1.768,1.026
			l-1.488,1.179L80.712,120.267z"/>
		<polygon fill="#303030" points="55.711,65.518 55.715,65.588 55.72,65.657 55.727,65.726 55.734,65.794 55.743,65.861 
			55.752,65.928 55.763,65.994 55.775,66.06 55.789,66.125 55.803,66.189 55.818,66.253 55.836,66.316 55.853,66.379 55.872,66.44 
			55.892,66.502 55.913,66.562 55.935,66.623 55.958,66.683 55.982,66.741 56.021,66.829 56.062,66.915 56.106,67 56.152,67.086 
			56.201,67.17 56.253,67.252 56.307,67.335 56.365,67.416 56.424,67.497 56.487,67.576 56.553,67.654 56.622,67.732 56.693,67.81 
			56.768,67.885 56.844,67.96 56.924,68.033 57.007,68.106 57.093,68.178 57.182,68.248 57.273,68.318 57.368,68.386 57.466,68.453 
			57.566,68.52 57.669,68.584 57.777,68.647 57.886,68.71 57.999,68.771 58.115,68.831 58.234,68.89 58.355,68.947 58.48,69.004 
			58.608,69.059 58.874,69.164 59.151,69.264 59.441,69.358 59.744,69.447 60.059,69.531 60.386,69.607 60.725,69.679 
			61.077,69.744 61.441,69.802 61.817,69.854 62.205,69.9 62.605,69.939 63.017,69.973 63.44,69.999 64.322,70.031 64.963,70.034 
			65.605,70.018 66.247,69.981 66.886,69.926 67.524,69.85 68.159,69.754 68.181,69.75 68.203,69.745 68.223,69.74 68.233,69.737 
			68.243,69.734 68.252,69.731 68.262,69.729 68.271,69.725 68.28,69.722 68.289,69.718 68.297,69.714 68.306,69.71 68.314,69.706 
			68.322,69.703 68.33,69.698 68.338,69.694 68.345,69.689 68.352,69.686 68.36,69.681 68.366,69.677 68.373,69.672 68.38,69.667 
			68.385,69.662 68.392,69.657 68.398,69.652 68.403,69.646 68.409,69.642 68.414,69.637 68.419,69.632 68.424,69.626 
			68.429,69.621 68.434,69.615 68.438,69.609 68.442,69.604 68.446,69.599 68.451,69.593 68.454,69.587 68.458,69.581 68.46,69.575 
			68.464,69.569 68.467,69.564 68.469,69.558 68.472,69.552 68.474,69.546 68.476,69.54 68.479,69.534 68.48,69.528 68.481,69.521 
			68.483,69.516 68.484,69.51 68.486,69.504 68.487,69.497 68.487,69.491 68.487,69.485 68.488,69.479 68.488,69.473 68.488,69.467 
			68.488,69.461 68.487,69.455 68.487,69.448 68.487,69.442 68.486,69.437 68.484,69.431 68.484,69.425 68.482,69.419 
			68.481,69.413 68.479,69.407 68.478,69.401 68.475,69.396 68.473,69.391 68.47,69.384 68.467,69.378 68.465,69.373 68.462,69.367 
			68.458,69.362 68.456,69.356 68.452,69.352 68.448,69.346 68.444,69.341 68.44,69.335 68.436,69.331 68.432,69.325 68.427,69.321 
			68.423,69.315 68.418,69.311 68.413,69.307 68.409,69.302 68.403,69.297 68.397,69.293 68.391,69.288 68.385,69.284 68.38,69.28 
			68.374,69.276 68.367,69.272 68.361,69.269 68.354,69.265 68.347,69.261 68.34,69.258 68.333,69.255 68.326,69.251 68.318,69.249 
			68.31,69.245 68.303,69.243 68.294,69.24 68.286,69.237 68.278,69.235 68.27,69.233 68.261,69.231 68.252,69.229 68.244,69.228 
			68.234,69.226 68.225,69.225 68.215,69.223 68.206,69.222 68.196,69.221 68.187,69.22 68.177,69.219 68.167,69.218 68.156,69.218 
			68.135,69.218 68.113,69.219 68.09,69.22 67.25,69.275 66.455,69.306 65.706,69.31 65.35,69.303 65.006,69.289 64.674,69.27 
			64.354,69.243 64.046,69.213 63.751,69.175 63.468,69.132 63.198,69.083 62.939,69.028 62.693,68.969 62.459,68.903 
			62.348,68.869 62.238,68.833 62.132,68.795 62.029,68.757 61.929,68.718 61.832,68.677 61.738,68.634 61.647,68.591 
			61.559,68.547 61.474,68.5 61.392,68.454 61.312,68.405 61.237,68.356 61.164,68.307 61.093,68.255 61.025,68.203 60.96,68.149 
			60.898,68.095 60.839,68.039 60.783,67.982 60.73,67.925 60.705,67.896 60.679,67.867 60.655,67.837 60.631,67.808 60.608,67.776 
			60.586,67.747 60.564,67.717 60.544,67.686 60.524,67.654 60.504,67.624 60.486,67.592 60.467,67.561 60.45,67.528 60.433,67.496 
			60.417,67.464 60.401,67.432 60.386,67.399 60.372,67.366 60.354,67.323 60.338,67.281 60.323,67.237 60.309,67.193 
			60.295,67.149 60.282,67.104 60.271,67.059 60.261,67.014 60.251,66.967 60.243,66.919 60.236,66.872 60.23,66.824 60.225,66.774 
			60.22,66.726 60.217,66.676 60.215,66.625 60.214,66.574 60.214,66.523 60.216,66.472 60.218,66.419 60.221,66.365 60.227,66.312 
			60.232,66.258 60.238,66.203 60.247,66.148 60.256,66.093 60.266,66.036 60.278,65.98 60.304,65.864 60.335,65.747 60.371,65.628 
			60.411,65.506 60.456,65.382 60.506,65.257 60.561,65.128 60.621,64.998 60.686,64.866 60.756,64.731 60.831,64.595 
			60.911,64.457 60.996,64.316 61.086,64.174 61.181,64.028 61.281,63.882 61.498,63.583 61.734,63.275 61.992,62.961 
			62.271,62.639 62.57,62.309 62.891,61.973 63.232,61.629 63.594,61.279 63.976,60.924 64.802,60.195 65.706,59.445 66.686,58.677 
			67.739,57.895 68.86,57.1 70.046,56.295 71.29,55.486 72.587,54.675 75.318,53.058 78.188,51.469 81.147,49.932 84.147,48.465 
			87.141,47.084 90.087,45.8 93.06,44.577 96.135,43.39 99.276,42.256 102.439,41.2 105.577,40.244 108.638,39.409 110.125,39.043 
			111.571,38.712 112.973,38.42 114.325,38.168 115.62,37.957 116.853,37.787 118.021,37.66 119.12,37.574 119.641,37.548 
			120.144,37.531 120.627,37.525 121.092,37.528 121.538,37.543 121.963,37.567 122.368,37.601 122.753,37.645 123.119,37.697 
			123.293,37.728 123.464,37.761 123.629,37.795 123.79,37.832 123.944,37.87 124.094,37.912 124.24,37.955 124.38,38.001 
			124.514,38.048 124.645,38.098 124.771,38.149 124.891,38.203 125.007,38.259 125.117,38.316 125.222,38.375 125.323,38.438 
			125.373,38.468 125.419,38.5 125.466,38.532 125.512,38.564 125.555,38.598 125.598,38.632 125.639,38.665 125.68,38.699 
			125.719,38.734 125.758,38.77 125.794,38.806 125.831,38.841 125.865,38.878 125.9,38.914 125.931,38.952 125.962,38.989 
			125.994,39.027 126.022,39.065 126.05,39.104 126.077,39.144 126.103,39.184 126.128,39.223 126.151,39.263 126.174,39.304 
			126.195,39.345 126.216,39.386 126.235,39.428 126.253,39.47 126.279,39.528 126.299,39.588 126.32,39.649 126.337,39.711 
			126.354,39.773 126.369,39.838 126.38,39.902 126.39,39.969 126.398,40.036 126.405,40.104 126.41,40.173 126.412,40.242 
			126.412,40.313 126.41,40.387 126.405,40.46 126.398,40.534 126.389,40.609 126.378,40.686 126.367,40.763 126.351,40.841 
			126.333,40.92 126.315,41.001 126.292,41.082 126.268,41.165 126.242,41.249 126.213,41.333 126.182,41.419 126.149,41.506 
			126.114,41.594 126.076,41.682 125.993,41.862 125.901,42.047 125.798,42.235 125.686,42.429 125.564,42.624 125.433,42.825 
			125.292,43.029 125.14,43.237 124.978,43.449 124.807,43.665 124.625,43.884 124.434,44.107 124.232,44.333 123.799,44.796 
			123.327,45.271 122.814,45.76 122.261,46.26 121.671,46.771 121.043,47.291 120.377,47.82 119.677,48.357 118.173,49.451 
			116.544,50.564 114.801,51.688 112.961,52.812 111.041,53.931 111.019,53.943 110.999,53.956 110.99,53.963 110.98,53.97 
			110.971,53.977 110.961,53.982 110.953,53.989 110.945,53.996 110.936,54.003 110.928,54.011 110.92,54.018 110.913,54.025 
			110.906,54.032 110.899,54.039 110.892,54.047 110.885,54.054 110.878,54.062 110.873,54.068 110.867,54.076 110.861,54.084 
			110.856,54.092 110.851,54.099 110.845,54.106 110.84,54.114 110.836,54.121 110.832,54.129 110.828,54.137 110.823,54.145 
			110.82,54.152 110.816,54.16 110.813,54.167 110.811,54.175 110.808,54.183 110.805,54.19 110.803,54.198 110.8,54.206 
			110.798,54.213 110.796,54.221 110.795,54.229 110.793,54.236 110.792,54.244 110.792,54.251 110.791,54.259 110.79,54.266 
			110.79,54.273 110.79,54.281 110.79,54.288 110.79,54.295 110.79,54.303 110.791,54.31 110.792,54.316 110.792,54.323 
			110.793,54.33 110.794,54.337 110.795,54.344 110.798,54.351 110.799,54.357 110.802,54.364 110.804,54.371 110.806,54.377 
			110.809,54.384 110.811,54.39 110.814,54.396 110.817,54.401 110.82,54.408 110.823,54.414 110.827,54.42 110.832,54.425 
			110.835,54.431 110.838,54.437 110.844,54.441 110.848,54.446 110.852,54.451 110.858,54.457 110.862,54.462 110.867,54.467 
			110.872,54.471 110.877,54.476 110.883,54.479 110.889,54.483 110.894,54.488 110.901,54.492 110.906,54.495 110.913,54.499 
			110.919,54.502 110.925,54.506 110.932,54.509 110.94,54.512 110.947,54.515 110.953,54.517 110.959,54.52 110.967,54.521 
			110.975,54.523 110.984,54.525 110.991,54.527 110.999,54.529 111.006,54.53 111.015,54.531 111.024,54.532 111.032,54.533 
			111.041,54.534 111.048,54.534 111.057,54.534 111.066,54.534 111.076,54.534 111.084,54.533 111.094,54.532 111.103,54.531 
			111.113,54.53 111.123,54.529 111.132,54.527 111.141,54.525 111.152,54.522 111.162,54.521 111.172,54.518 111.182,54.516 
			111.193,54.513 111.203,54.509 111.214,54.505 111.224,54.501 111.235,54.497 111.246,54.493 111.268,54.483 111.291,54.473 
			112.637,53.78 113.962,53.046 115.263,52.271 116.541,51.457 117.792,50.604 119.354,49.471 120.82,48.342 122.183,47.223 
			122.823,46.669 123.433,46.12 124.016,45.577 124.568,45.04 125.088,44.51 125.579,43.987 126.037,43.474 126.463,42.969 
			126.857,42.474 127.219,41.988 127.389,41.749 127.549,41.513 127.703,41.279 127.847,41.049 127.985,40.821 128.114,40.597 
			128.235,40.375 128.347,40.156 128.454,39.94 128.55,39.728 128.64,39.519 128.722,39.312 128.797,39.109 128.864,38.909 
			128.922,38.713 128.974,38.52 129.019,38.329 129.056,38.143 129.072,38.051 129.085,37.959 129.098,37.869 129.109,37.779 
			129.118,37.69 129.125,37.603 129.13,37.516 129.133,37.43 129.135,37.344 129.135,37.26 129.133,37.176 129.131,37.093 
			129.126,37.011 129.12,36.93 129.111,36.85 129.1,36.771 129.088,36.691 129.077,36.614 129.062,36.537 129.044,36.461 
			129.028,36.386 129.007,36.312 128.987,36.237 128.964,36.165 128.941,36.093 128.915,36.022 128.888,35.951 128.859,35.883 
			128.834,35.824 128.807,35.767 128.78,35.708 128.751,35.651 128.72,35.594 128.69,35.537 128.657,35.48 128.624,35.425 
			128.588,35.369 128.551,35.314 128.514,35.26 128.476,35.205 128.435,35.15 128.395,35.098 128.352,35.045 128.308,34.991 
			128.263,34.939 128.217,34.888 128.169,34.836 128.121,34.785 128.019,34.685 127.914,34.585 127.801,34.489 127.684,34.394 
			127.561,34.301 127.434,34.21 127.301,34.12 127.163,34.033 127.018,33.949 126.87,33.866 126.714,33.786 126.554,33.707 
			126.388,33.632 126.216,33.559 126.04,33.487 125.858,33.419 125.67,33.353 125.477,33.289 125.278,33.229 125.073,33.169 
			124.863,33.113 124.647,33.061 124.2,32.962 123.73,32.874 123.239,32.798 122.726,32.733 122.191,32.68 121.635,32.639 
			121.057,32.608 120.461,32.592 119.844,32.586 119.208,32.594 118.552,32.613 117.877,32.646 116.477,32.747 115.01,32.899 
			113.482,33.1 111.9,33.35 110.271,33.646 108.6,33.987 106.896,34.373 105.167,34.8 101.656,35.767 98.128,36.865 94.633,38.07 
			91.22,39.357 87.928,40.701 84.672,42.131 81.373,43.686 78.075,45.356 74.831,47.126 71.695,48.974 70.184,49.919 68.721,50.874 
			67.313,51.835 65.966,52.8 64.686,53.762 63.479,54.72 62.349,55.668 61.3,56.603 60.808,57.064 60.338,57.521 59.89,57.974 
			59.463,58.42 59.061,58.861 58.68,59.295 58.323,59.724 57.99,60.145 57.679,60.559 57.392,60.964 57.127,61.362 56.888,61.752 
			56.775,61.944 56.669,62.134 56.569,62.321 56.475,62.507 56.386,62.69 56.303,62.871 56.225,63.05 56.153,63.227 56.086,63.399 
			56.026,63.572 55.97,63.741 55.92,63.909 55.875,64.073 55.836,64.235 55.802,64.396 55.773,64.553 55.75,64.708 55.732,64.861 
			55.719,65.011 55.71,65.159 55.707,65.305 55.709,65.447 		"/>
		<polygon fill="#303030" points="87.497,39.683 90.474,38.465 93.555,37.296 92.836,35.96 92.175,34.812 91.864,34.305 
			91.565,33.838 91.279,33.41 91.004,33.019 90.739,32.663 90.485,32.34 90.24,32.047 90.005,31.782 89.779,31.545 89.669,31.435 
			89.561,31.331 89.455,31.232 89.35,31.14 89.248,31.051 89.147,30.968 89.048,30.889 88.951,30.814 88.854,30.744 88.76,30.678 
			88.667,30.615 88.575,30.558 88.484,30.503 88.395,30.452 88.306,30.404 88.219,30.36 88.133,30.32 88.048,30.282 87.964,30.247 
			87.88,30.216 87.798,30.188 87.715,30.161 87.634,30.138 87.553,30.116 87.473,30.097 87.393,30.08 87.313,30.065 87.234,30.052 
			87.154,30.041 87.076,30.032 86.997,30.024 86.918,30.019 86.76,30.009 86.603,30.005 86.444,30.004 86.122,30.01 85.958,30.018 
			85.795,30.029 85.631,30.045 85.467,30.064 85.304,30.089 85.141,30.118 85.061,30.135 84.979,30.153 84.899,30.173 
			84.818,30.193 84.74,30.216 84.66,30.241 84.582,30.268 84.503,30.296 84.426,30.325 84.35,30.356 84.273,30.39 84.198,30.426 
			84.123,30.463 84.049,30.502 83.976,30.543 83.904,30.588 83.833,30.634 83.762,30.682 83.693,30.731 83.624,30.784 
			83.556,30.839 83.489,30.895 83.423,30.954 83.359,31.016 83.296,31.079 83.232,31.146 83.17,31.213 83.109,31.283 83.049,31.356 
			82.99,31.431 82.932,31.508 82.875,31.588 82.818,31.67 82.763,31.754 82.709,31.841 82.656,31.929 82.604,32.021 82.552,32.114 
			82.501,32.21 82.453,32.309 82.358,32.513 82.267,32.726 82.179,32.948 82.097,33.182 82.018,33.426 81.943,33.686 81.908,33.823 
			81.874,33.968 81.808,34.277 81.748,34.622 81.691,35.007 81.64,35.438 81.594,35.924 81.517,37.077 81.46,38.516 81.414,42.446 
			84.475,41.008 		"/>
	</g>
</g>
</svg>
