<?xml version="1.0" encoding="utf-8"?>
<!-- Generator: Adobe Illustrator 16.0.0, SVG Export Plug-In . SVG Version: 6.00 Build 0)  -->
<!DOCTYPE svg PUBLIC "-//W3C//DTD SVG 1.1//EN" "http://www.w3.org/Graphics/SVG/1.1/DTD/svg11.dtd">
<svg version="1.1" id="Capa_1" xmlns="http://www.w3.org/2000/svg" xmlns:xlink="http://www.w3.org/1999/xlink" x="0px" y="0px"
	 width="278.789px" height="250.94px" viewBox="0 0 278.789 250.94" enable-background="new 0 0 278.789 250.94"
	 xml:space="preserve">
<g>
	<polygon fill="#FFFFFF" points="0,250.812 9.982,250.812 9.982,248.173 2.957,248.173 2.957,244.489 8.939,244.489 8.939,241.852 
		2.957,241.852 2.957,238.298 9.982,238.298 9.982,235.658 0,235.658 	"/>
	<polygon fill="#FFFFFF" points="16.119,235.658 13.16,235.658 13.16,250.812 22.995,250.812 22.995,248.173 16.119,248.173 	"/>
	<polygon fill="#FFFFFF" points="30.898,250.812 40.882,250.812 40.882,248.173 33.857,248.173 33.857,244.489 39.839,244.489 
		39.839,241.852 33.857,241.852 33.857,238.298 40.882,238.298 40.882,235.658 30.898,235.658 	"/>
	<path fill="#FFFFFF" d="M49.786,241.958l-1.81-0.277c-0.636-0.084-1.084-0.299-1.384-0.573c-0.317-0.3-0.426-0.681-0.426-1.087
		c0-1.043,0.745-1.916,2.321-1.916c1,0,2.173,0.129,3.108,1.045l1.872-1.854c-1.3-1.254-2.808-1.767-4.897-1.767
		c-3.276,0-5.278,1.894-5.278,4.598c0,1.276,0.363,2.279,1.087,2.979c0.682,0.66,1.595,1.064,2.935,1.256l1.811,0.277
		c0.765,0.107,1.063,0.234,1.361,0.51c0.319,0.318,0.468,0.746,0.468,1.256c0,1.213-0.936,1.895-2.701,1.895
		c-1.386,0-2.683-0.317-3.64-1.277l-1.917,1.916c1.49,1.512,3.235,2.002,5.533,2.002c3.193,0,5.62-1.662,5.62-4.598
		c0-1.363-0.362-2.448-1.173-3.193C52.022,242.509,51.168,242.149,49.786,241.958z"/>
	<path fill="#FFFFFF" d="M62.795,235.658H56.92v15.153h2.959v-5.703h2.917c3.151,0,5.001-2.15,5.001-4.726
		S65.946,235.658,62.795,235.658z M62.646,242.445h-2.768v-4.147h2.768c1.342,0,2.192,0.852,2.192,2.085
		C64.839,241.618,63.988,242.445,62.646,242.445z"/>
	<polygon fill="#FFFFFF" points="70.573,250.812 80.554,250.812 80.554,248.173 73.53,248.173 73.53,244.489 79.511,244.489 
		79.511,241.852 73.53,241.852 73.53,238.298 80.554,238.298 80.554,235.658 70.573,235.658 	"/>
	<path fill="#FFFFFF" d="M88.82,238.169c1.469,0,2.234,0.916,2.532,2.149h3.021c-0.551-3.171-2.724-4.789-5.553-4.789
		c-1.744,0-3.021,0.577-4.063,1.597c-1.513,1.512-1.535,3.215-1.535,6.108c0,2.896,0.021,4.599,1.535,6.109
		c1.042,1.021,2.319,1.597,4.063,1.597c2.811,0,5.002-1.619,5.553-4.791h-3c-0.298,1.236-1.084,2.15-2.553,2.15
		c-0.81,0-1.469-0.297-1.895-0.788c-0.552-0.638-0.744-1.382-0.744-4.277c0-2.894,0.191-3.639,0.744-4.278
		C87.351,238.469,88.01,238.169,88.82,238.169z"/>
	<rect x="97.211" y="235.658" fill="#FFFFFF" width="2.958" height="15.153"/>
	<path fill="#FFFFFF" d="M107.837,235.658l-5.512,15.153h3.084l0.917-2.68h5.386l0.893,2.68h3.087l-5.536-15.153H107.837z
		 M107.156,245.64l1.916-5.513l1.852,5.513H107.156z"/>
	<polygon fill="#FFFFFF" points="120.805,235.658 117.847,235.658 117.847,250.812 127.68,250.812 127.68,248.173 120.805,248.173 	
		"/>
	<rect x="130.366" y="235.658" fill="#FFFFFF" width="2.959" height="15.153"/>
	<path fill="#FFFFFF" d="M142.865,241.958l-1.808-0.277c-0.637-0.084-1.084-0.299-1.385-0.573c-0.316-0.3-0.424-0.681-0.424-1.087
		c0-1.043,0.745-1.916,2.319-1.916c1,0,2.174,0.129,3.108,1.045l1.872-1.854c-1.301-1.254-2.807-1.767-4.896-1.767
		c-3.276,0-5.277,1.894-5.277,4.598c0,1.276,0.361,2.279,1.086,2.979c0.68,0.66,1.596,1.064,2.935,1.256l1.811,0.277
		c0.766,0.107,1.063,0.234,1.361,0.51c0.318,0.318,0.468,0.746,0.468,1.256c0,1.213-0.936,1.895-2.701,1.895
		c-1.386,0-2.683-0.317-3.639-1.277l-1.918,1.916c1.493,1.512,3.236,2.002,5.535,2.002c3.195,0,5.619-1.662,5.619-4.598
		c0-1.363-0.361-2.448-1.17-3.193C145.102,242.509,144.248,242.149,142.865,241.958z"/>
	<polygon fill="#FFFFFF" points="159.752,235.658 148.875,235.658 148.875,238.298 152.834,238.298 152.834,250.812 
		155.793,250.812 155.793,238.298 159.752,238.298 	"/>
	<path fill="#FFFFFF" d="M164.8,235.658l-5.511,15.153h3.085l0.914-2.68h5.384l0.897,2.68h3.084l-5.532-15.153H164.8z
		 M164.12,245.64l1.917-5.513l1.85,5.513H164.12z"/>
	<polygon fill="#FFFFFF" points="180.026,250.812 190.01,250.812 190.01,248.173 182.984,248.173 182.984,244.489 188.965,244.489 
		188.965,241.852 182.984,241.852 182.984,238.298 190.01,238.298 190.01,235.658 180.026,235.658 	"/>
	<polygon fill="#FFFFFF" points="201.83,244.937 195.827,235.658 193.188,235.658 193.188,250.812 196.146,250.812 196.146,241.512 
		202.147,250.812 204.788,250.812 204.788,235.658 201.83,235.658 	"/>
	<path fill="#FFFFFF" d="M217.675,235.658l-5.512,15.153h3.085l0.915-2.68h5.386l0.895,2.68h3.085l-5.533-15.153H217.675z
		 M216.993,245.64l1.916-5.513l1.852,5.513H216.993z"/>
	<path fill="#FFFFFF" d="M232.561,238.169c1.469,0,2.233,0.916,2.53,2.149h3.023c-0.551-3.171-2.722-4.789-5.554-4.789
		c-1.745,0-3.021,0.577-4.065,1.597c-1.51,1.512-1.531,3.215-1.531,6.108c0,2.896,0.021,4.599,1.531,6.109
		c1.044,1.021,2.32,1.597,4.065,1.597c2.811,0,5.003-1.619,5.554-4.791h-3c-0.299,1.236-1.085,2.15-2.554,2.15
		c-0.808,0-1.47-0.297-1.895-0.788c-0.553-0.638-0.744-1.382-0.744-4.277c0-2.894,0.191-3.639,0.744-4.278
		C231.091,238.469,231.753,238.169,232.561,238.169z"/>
	<polygon fill="#FFFFFF" points="240.952,250.812 250.934,250.812 250.934,248.173 243.911,248.173 243.911,244.489 
		249.891,244.489 249.891,241.852 243.911,241.852 243.911,238.298 250.934,238.298 250.934,235.658 240.952,235.658 	"/>
	<path fill="#FFFFFF" d="M264.969,240.298c0-2.531-1.828-4.64-4.919-4.64h-5.937v15.153h2.958v-6.045h2.13l2.958,6.045h3.427
		l-3.386-6.534C263.672,243.747,264.969,242.426,264.969,240.298z M259.858,242.297h-2.787v-3.999h2.787c1.298,0,2.152,0.83,2.152,2
		C262.011,241.469,261.156,242.297,259.858,242.297z"/>
	<path fill="#FFFFFF" d="M277.235,237.126c-1.023-1.02-2.299-1.597-4.045-1.597c-1.744,0-3.045,0.577-4.062,1.597
		c-1.512,1.512-1.533,3.215-1.533,6.108c0,2.896,0.021,4.599,1.533,6.109c1.018,1.021,2.318,1.597,4.062,1.597
		c1.746,0,3.021-0.575,4.045-1.597c1.51-1.511,1.554-3.214,1.554-6.109C278.789,240.341,278.745,238.638,277.235,237.126z
		 M275.085,247.472c-0.427,0.488-1.086,0.828-1.895,0.828s-1.469-0.34-1.915-0.828c-0.554-0.642-0.724-1.342-0.724-4.237
		c0-2.894,0.17-3.618,0.724-4.257c0.446-0.489,1.106-0.809,1.915-0.809s1.468,0.319,1.895,0.809
		c0.554,0.639,0.744,1.363,0.744,4.257C275.829,246.13,275.639,246.83,275.085,247.472z"/>
	<polygon fill="#FFFFFF" points="20.734,221.626 7.497,221.626 7.497,216.271 18.805,216.271 18.805,209.589 7.497,209.589 
		7.497,204.491 20.734,204.491 20.734,197.806 0.002,197.806 0.002,228.307 20.734,228.307 	"/>
	<polygon fill="#FFFFFF" points="48.233,221.626 35.427,221.626 35.427,197.806 27.929,197.806 27.929,228.307 48.233,228.307 	"/>
	<path fill="#FFFFFF" d="M88.025,218.628h-7.622c-0.473,1.713-1.414,3.254-3.899,3.254c-1.374,0-2.398-0.557-2.956-1.285
		c-0.687-0.898-1.158-1.969-1.158-7.539c0-5.568,0.471-6.64,1.158-7.541c0.557-0.725,1.582-1.283,2.956-1.283
		c2.485,0,3.426,1.543,3.899,3.256h7.622c-1.114-6.725-5.739-9.938-11.521-9.938c-3.728,0-6.298,1.157-8.482,3.341
		c-3.126,3.126-3.126,7.027-3.126,12.166c0,5.141,0,9.039,3.126,12.164c2.185,2.188,4.755,3.342,8.482,3.342
		C82.286,228.563,86.911,225.354,88.025,218.628z"/>
	<polygon fill="#FFFFFF" points="109.317,209.546 101.35,209.546 101.35,197.806 93.853,197.806 93.853,228.307 101.35,228.307 
		101.35,216.228 109.317,216.228 109.317,228.307 116.812,228.307 116.812,197.806 109.317,197.806 	"/>
	<path fill="#FFFFFF" d="M140.498,223.767l1.415,4.54h7.838l-11.092-30.501h-5.785l-11.094,30.501h7.838l1.501-4.54H140.498z
		 M135.959,209.374l2.57,8.141h-5.312L135.959,209.374z"/>
	<path fill="#FFFFFF" d="M177.209,207.618c0-5.01-3.639-9.812-10.409-9.812h-12.08v30.501h7.496v-11.351h2.528l5.397,11.351h8.696
		l-6.597-12.721C174.64,214.386,177.209,211.773,177.209,207.618z M166.457,210.7h-4.241v-6.167h4.241
		c2.058,0,3.256,1.497,3.256,3.085C169.713,209.202,168.515,210.7,166.457,210.7z"/>
	<path fill="#FFFFFF" d="M207.021,207.618c0-5.01-3.638-9.812-10.408-9.812h-12.08v30.501h7.498v-11.351h2.525l5.398,11.351h8.698
		l-6.599-12.721C204.454,214.386,207.021,211.773,207.021,207.618z M196.271,210.7h-4.241v-6.167h4.241
		c2.056,0,3.255,1.497,3.255,3.085C199.526,209.202,198.327,210.7,196.271,210.7z"/>
	<rect x="214.347" y="197.806" fill="#FFFFFF" width="7.498" height="30.501"/>
	<polygon fill="#FFFFFF" points="235.593,228.307 243.09,228.307 243.09,204.491 250.587,204.491 250.587,197.806 228.097,197.806 
		228.097,204.491 235.593,204.491 	"/>
	<path fill="#FFFFFF" d="M278.642,213.058c0-5.139,0-9.04-3.127-12.166c-2.184-2.184-4.755-3.341-8.48-3.341
		c-3.727,0-6.297,1.157-8.481,3.341c-3.126,3.126-3.126,7.027-3.126,12.166c0,5.141,0,9.039,3.126,12.164
		c2.185,2.188,4.755,3.342,8.481,3.342c3.726,0,6.297-1.154,8.48-3.342C278.642,222.097,278.642,218.198,278.642,213.058z
		 M270.034,220.511c-0.56,0.73-1.629,1.371-3,1.371s-2.441-0.641-2.998-1.371c-0.686-0.898-1.114-1.883-1.114-7.453
		c0-5.568,0.429-6.598,1.114-7.494c0.557-0.73,1.627-1.33,2.998-1.33s2.44,0.6,3,1.33c0.684,0.896,1.111,1.926,1.111,7.494
		C271.146,218.628,270.718,219.612,270.034,220.511z"/>
	<path fill="#FFFFFF" d="M153.901,56.986l0.005-0.007l0.005-0.007l0.004-0.009v-0.008l0.006-0.006l0.004-0.007l0.003-0.01v-0.007
		l0.003-0.006l0.003-0.008l0.003-0.008l0.002-0.009l0.001-0.006l0.003-0.007l0.001-0.008v-0.009l0.001-0.006l0.002-0.008v-0.007
		v-0.007v-0.006v-0.008v-0.007v-0.007l-0.002-0.006l-0.001-0.008v-0.007c-0.001-0.007-0.004-0.016-0.004-0.016l-0.001-0.006
		l-0.002-0.007c-0.003-0.007-0.006-0.016-0.006-0.016l-0.003-0.006c-0.003-0.006-0.006-0.013-0.006-0.013l-0.003-0.008
		c-0.004-0.005-0.007-0.014-0.007-0.014c-0.003-0.006-0.009-0.014-0.009-0.014c-0.003-0.006-0.006-0.012-0.006-0.012
		c-0.006-0.007-0.013-0.014-0.013-0.014c-0.003-0.007-0.009-0.013-0.009-0.013c-0.006-0.006-0.012-0.014-0.012-0.014
		c-0.003-0.006-0.012-0.012-0.012-0.012c-0.007-0.006-0.013-0.013-0.013-0.013c-0.008-0.006-0.015-0.013-0.015-0.013l-0.007-0.004
		l-0.015-0.012l-0.016-0.014l-0.019-0.011l-0.015-0.011l-0.019-0.012l-0.021-0.011l-0.021-0.012l-0.019-0.011l-0.021-0.01
		l-0.021-0.013l-0.022-0.008l-0.047-0.023l-0.052-0.018l-0.052-0.019l-0.055-0.02l-0.058-0.018l-0.062-0.015l-0.059-0.019
		l-0.13-0.032l-0.136-0.026l-0.143-0.026l-0.149-0.021l-0.151-0.019l-0.155-0.016l-0.161-0.012l-0.16-0.009l-0.162-0.006
		l-0.164-0.004h-0.161l-0.327,0.007l-0.322,0.016l-0.318,0.023l-1.69,0.164l-0.233,0.026l-0.218,0.029l-0.104,0.015l-0.1,0.021
		l-0.097,0.021l-0.047,0.012l-0.048,0.011l-0.045,0.014l-0.044,0.014l-0.044,0.015l-0.043,0.014l-0.041,0.017l-0.039,0.017
		l-0.043,0.019l-0.039,0.02l-0.039,0.019l-0.037,0.022l-0.036,0.023l-0.037,0.023l-0.036,0.022l-0.016,0.014l-0.018,0.013
		l-0.018,0.013l-0.017,0.015l-0.017,0.014l-0.017,0.016l-0.015,0.013l-0.016,0.017l-0.018,0.014l-0.015,0.017l-0.017,0.016
		l-0.014,0.016l-0.014,0.017l-0.015,0.018l-0.016,0.019l-0.014,0.019l-0.014,0.018l-0.013,0.019l-0.027,0.039l-0.026,0.042
		l-0.026,0.042l-0.022,0.043l-0.024,0.047l-0.022,0.047l-0.022,0.049l-0.022,0.052l-0.018,0.053l-0.02,0.055l-0.021,0.06
		l-0.015,0.059l-0.019,0.061l-0.016,0.065l-0.015,0.066l-0.014,0.069l-0.026,0.144l-0.021,0.153l-0.019,0.161l-0.016,0.169
		l-0.012,0.173l-0.006,0.179l-0.007,0.182v0.183l0.004,0.186l0.006,0.185l0.009,0.183l0.016,0.179l0.017,0.177l0.022,0.169
		l0.024,0.166l0.03,0.155l0.018,0.074l0.016,0.072l0.02,0.069l0.018,0.066l0.021,0.066l0.018,0.062l0.023,0.058l0.022,0.056
		l0.024,0.053l0.024,0.052l0.011,0.024l0.012,0.023l0.014,0.023l0.013,0.023l0.013,0.021l0.014,0.02l0.013,0.02l0.015,0.021
		l0.011,0.018l0.014,0.02l0.016,0.015l0.013,0.015l0.016,0.018l0.014,0.013l0.015,0.016l0.013,0.012l0.014,0.014l0.008,0.004
		l0.007,0.007l0.009,0.005l0.006,0.005l0.006,0.005l0.01,0.005l0.006,0.004l0.009,0.006l0.007,0.003l0.009,0.004l0.006,0.003
		l0.007,0.005l0.009,0.002l0.007,0.003l0.008,0.005l0.008,0.003l0.008,0.002l0.009,0.004h0.007l0.007,0.001l0.008,0.003l0.006,0.002
		l0.01,0.001l0.007,0.001l0.008,0.002h0.008l0.008,0.001h0.009l0.006,0.002h0.01h0.006l0.009-0.002h0.006l0.01-0.001h0.006
		l0.008-0.002l0.007-0.001l0.01-0.001l0.008-0.002l0.007-0.003l0.007-0.001l0.009-0.002l0.008-0.002l0.007-0.002l0.007-0.005
		l0.008-0.003l0.01-0.004l0.006-0.003l0.008-0.004l0.01-0.004l0.007-0.002l0.007-0.006l0.009-0.006l0.006-0.004l0.01-0.006
		l0.007-0.004l0.008-0.005l0.008-0.006l0.008-0.006l0.009-0.007l0.013-0.012l0.018-0.015l0.014-0.014l0.015-0.017l0.018-0.017
		l0.011-0.019l0.018-0.018l0.014-0.019l0.016-0.021l0.03-0.041l0.028-0.046l0.031-0.047l0.029-0.05l0.061-0.106l0.058-0.115
		l0.497-1.06l0.067-0.132l0.068-0.126l0.068-0.123l0.038-0.06l0.037-0.058l0.037-0.056l0.036-0.055l0.04-0.053l0.039-0.053
		l0.04-0.05l0.042-0.05l0.041-0.05l0.041-0.047l0.047-0.046l0.045-0.045l0.045-0.043l0.049-0.044l0.049-0.042l0.049-0.04
		l0.052-0.041l0.052-0.04l0.055-0.036l0.055-0.038l0.057-0.036l0.059-0.034l0.061-0.035l0.061-0.034l0.064-0.03l0.062-0.03
		l0.069-0.032l0.067-0.029l0.069-0.029l0.071-0.029l0.152-0.053l0.156-0.052l0.162-0.047l0.169-0.049l1.381-0.341l0.161-0.044
		l0.154-0.045l0.149-0.048l0.14-0.05l0.07-0.025l0.062-0.028l0.062-0.026l0.059-0.027l0.059-0.029l0.055-0.03l0.053-0.028
		l0.05-0.031l0.047-0.03l0.044-0.029l0.041-0.032l0.021-0.014l0.02-0.014l0.018-0.019l0.02-0.013l0.016-0.016l0.016-0.015
		l0.018-0.017l0.016-0.014l0.013-0.017l0.015-0.016l0.013-0.016l0.013-0.014l0.012-0.016l0.01-0.014l0.011-0.018l0.009-0.014
		l0.006-0.007L153.901,56.986z"/>
	<path fill="#FFFFFF" d="M144.661,60.592l-0.127-1.72l-0.016-0.171l-0.02-0.168l-0.023-0.166l-0.027-0.163l-0.016-0.079
		l-0.014-0.078l-0.02-0.076l-0.021-0.075l-0.02-0.075l-0.025-0.069l-0.022-0.071l-0.027-0.068l-0.016-0.034l-0.013-0.032
		l-0.016-0.032l-0.016-0.031l-0.018-0.032l-0.016-0.032l-0.021-0.029l-0.016-0.031l-0.019-0.029l-0.021-0.027l-0.022-0.03
		l-0.018-0.027l-0.021-0.027l-0.021-0.026l-0.024-0.026l-0.024-0.024l-0.023-0.024l-0.025-0.022l-0.023-0.025l-0.026-0.022
		l-0.028-0.022l-0.027-0.021l-0.027-0.021l-0.031-0.02l-0.029-0.019l-0.027-0.02l-0.033-0.018l-0.031-0.019l-0.03-0.017
		l-0.033-0.017l-0.033-0.016l-0.032-0.015l-0.035-0.017l-0.033-0.013l-0.036-0.015l-0.037-0.014l-0.073-0.023l-0.075-0.024
		l-0.076-0.02l-0.079-0.02l-0.082-0.016l-0.082-0.016l-0.085-0.016l-0.087-0.012l-0.087-0.007l-0.089-0.01l-0.09-0.008l-0.092-0.005
		l-0.188-0.006h-0.191l-0.194,0.003l-0.199,0.008l-0.202,0.014l-0.2,0.016L141,56.649l-0.411,0.053l-0.416,0.066l-0.414,0.082
		l-0.412,0.095l-0.404,0.105l-0.393,0.115l-0.382,0.128l-0.186,0.066l-0.179,0.069l-0.175,0.07l-0.173,0.075l-0.166,0.074
		l-0.161,0.076l-0.154,0.078l-0.147,0.079l-0.143,0.081l-0.134,0.082l-0.131,0.081l-0.118,0.082l-0.058,0.042l-0.054,0.042
		l-0.055,0.041l-0.052,0.043l-0.048,0.039l-0.048,0.042l-0.044,0.043l-0.042,0.041l-0.041,0.043l-0.038,0.04l-0.038,0.042
		l-0.032,0.042l-0.033,0.04l-0.015,0.021l-0.014,0.019l-0.013,0.02l-0.012,0.021l-0.013,0.019l-0.012,0.02l-0.01,0.021l-0.01,0.02
		l-0.011,0.018l-0.007,0.02l-0.008,0.021l-0.009,0.019l-0.007,0.021l-0.006,0.017l-0.006,0.02l-0.008,0.018l-0.003,0.02
		l-0.004,0.017l-0.003,0.019l-0.003,0.017l-0.001,0.011l-0.001,0.009v0.007v0.011v0.009v0.007V59.2v0.01v0.009v0.007v0.01v0.009
		l0.001,0.006l0.001,0.009l0.002,0.009l0.001,0.007l0.001,0.009l0.001,0.007l0.003,0.009l0.001,0.008l0.002,0.007l0.001,0.009
		l0.003,0.007l0.005,0.006l0.003,0.009l0.003,0.007l0.003,0.008l0.004,0.007l0.003,0.007l0.004,0.007l0.005,0.008l0.004,0.007
		l0.003,0.007c0.006,0.006,0.01,0.015,0.01,0.015l0.005,0.006l0.006,0.007c0.003,0.008,0.009,0.016,0.009,0.016
		c0.005,0.006,0.013,0.013,0.013,0.013c0.005,0.006,0.011,0.014,0.011,0.014c0.006,0.006,0.014,0.012,0.014,0.012
		c0.008,0.006,0.016,0.012,0.016,0.012l0.006,0.006l0.009,0.005l0.007,0.006l0.006,0.006l0.009,0.006l0.016,0.012l0.02,0.011
		l0.016,0.012l0.021,0.009l0.019,0.01l0.021,0.01l0.021,0.01l0.021,0.009l0.024,0.009l0.024,0.008l0.023,0.009l0.028,0.007
		L136,59.658l0.025,0.008l0.057,0.013l0.058,0.014l0.062,0.011l0.066,0.011l0.063,0.009l0.143,0.015l0.151,0.014l2.271,0.083
		l0.416,0.033l0.411,0.044l0.403,0.056l0.195,0.032l0.191,0.035l0.188,0.04l0.183,0.041l0.176,0.045l0.167,0.049l0.161,0.053
		l0.079,0.027l0.075,0.029l0.074,0.029l0.07,0.03l0.07,0.03l0.066,0.032l0.066,0.03l0.062,0.035l0.064,0.033l0.061,0.035
		l0.115,0.071l0.113,0.07l0.105,0.074l0.103,0.074l0.194,0.151l0.459,0.369l0.092,0.068l0.095,0.067l0.095,0.064l0.094,0.059
		l0.047,0.029l0.049,0.027l0.047,0.026l0.047,0.026l0.047,0.021l0.047,0.021l0.045,0.021l0.045,0.017l0.044,0.017l0.021,0.006
		l0.023,0.007l0.021,0.007l0.022,0.006l0.021,0.003l0.021,0.006l0.021,0.004l0.02,0.003l0.021,0.003l0.021,0.003l0.017,0.001
		l0.021,0.001l0.018,0.001h0.02h0.012l0.007-0.001h0.011h0.009l0.008-0.001l0.009-0.001h0.012l0.006-0.003l0.008-0.001l0.01-0.002
		l0.009-0.001l0.007-0.002l0.008-0.003l0.009-0.003l0.009-0.001l0.008-0.003l0.009-0.003l0.006-0.003l0.009-0.003l0.006-0.003
		l0.01-0.004l0.006-0.005c0.006-0.002,0.016-0.007,0.016-0.007l0.006-0.004l0.01-0.004c0.005-0.005,0.012-0.01,0.012-0.01
		c0.006-0.005,0.012-0.012,0.012-0.012c0.01-0.005,0.015-0.011,0.015-0.011c0.006-0.005,0.013-0.012,0.013-0.012
		c0.004-0.008,0.01-0.012,0.01-0.012c0.006-0.008,0.012-0.015,0.012-0.015l0.006-0.008l0.006-0.007l0.004-0.007l0.006-0.007
		l0.005-0.009l0.005-0.007l0.005-0.009l0.005-0.009l0.006-0.007l0.005-0.009l0.003-0.011l0.003-0.01l0.009-0.02l0.007-0.019
		l0.009-0.022l0.006-0.021l0.006-0.025l0.007-0.022l0.006-0.025l0.003-0.026l0.006-0.026l0.008-0.053l0.008-0.056l0.006-0.058
		l0.004-0.062l0.002-0.063l0.003-0.133l-0.001-0.142L144.661,60.592z"/>
	<polygon fill="#FFFFFF" points="144.81,69.12 144.813,69.065 144.819,69.009 144.827,68.95 144.834,68.892 144.847,68.831 
		144.868,68.711 145.019,68.037 145.079,67.744 145.106,67.591 145.129,67.438 145.15,67.282 145.157,67.203 145.165,67.124 
		145.172,67.043 145.175,66.962 145.179,66.802 145.178,66.641 145.172,66.481 145.159,66.324 145.141,66.176 145.133,66.103 
		145.123,66.032 145.11,65.961 145.099,65.896 145.083,65.83 145.069,65.768 145.053,65.707 145.038,65.648 145.019,65.594 
		145.001,65.544 144.992,65.519 144.979,65.496 144.974,65.473 144.962,65.453 144.952,65.43 144.943,65.41 144.932,65.392 
		144.921,65.372 144.91,65.356 144.904,65.348 144.899,65.339 144.892,65.333 144.888,65.325 144.883,65.317 144.877,65.31 
		144.87,65.306 144.864,65.299 144.858,65.292 144.853,65.287 144.847,65.28 144.841,65.277 144.834,65.271 144.829,65.268 
		144.825,65.264 144.822,65.261 144.819,65.26 144.815,65.258 144.813,65.255 144.81,65.254 144.809,65.252 144.804,65.251 
		144.801,65.25 144.798,65.25 144.795,65.247 144.794,65.244 144.788,65.244 144.785,65.243 144.782,65.242 144.779,65.24 
		144.776,65.24 144.774,65.238 144.771,65.237 144.767,65.237 144.763,65.237 144.761,65.237 144.757,65.235 144.754,65.234 
		144.751,65.234 144.747,65.234 144.743,65.234 144.741,65.234 144.737,65.234 144.733,65.234 144.731,65.234 144.728,65.234 
		144.725,65.234 144.722,65.234 144.719,65.235 144.716,65.235 144.712,65.237 144.708,65.237 144.706,65.237 144.702,65.237 
		144.697,65.238 144.694,65.24 144.691,65.24 144.688,65.242 144.687,65.243 144.682,65.244 144.676,65.247 144.669,65.25 
		144.661,65.251 144.655,65.255 144.649,65.258 144.644,65.263 144.634,65.268 144.628,65.271 144.621,65.275 144.616,65.28 
		144.606,65.286 144.601,65.29 144.594,65.296 144.587,65.303 144.579,65.307 144.566,65.32 144.552,65.334 144.54,65.348 
		144.524,65.365 144.511,65.379 144.497,65.398 144.481,65.415 144.47,65.431 144.454,65.453 144.427,65.493 144.401,65.535 
		144.374,65.579 144.349,65.628 144.321,65.678 144.295,65.728 144.272,65.782 144.245,65.837 144.199,65.95 144.152,66.065 
		144.11,66.184 144.071,66.304 144.038,66.423 144.008,66.539 143.983,66.653 143.963,66.764 143.944,66.871 143.929,66.974 
		143.864,67.551 143.852,67.643 143.835,67.733 143.825,67.778 143.816,67.823 143.806,67.868 143.796,67.912 143.78,67.958 
		143.765,68.002 143.75,68.049 143.734,68.093 143.716,68.139 143.696,68.182 143.675,68.23 143.651,68.274 143.606,68.366 
		143.553,68.459 143.498,68.552 143.078,69.206 143.021,69.3 142.966,69.393 142.914,69.488 142.865,69.58 142.844,69.627 
		142.823,69.673 142.802,69.72 142.783,69.766 142.767,69.813 142.751,69.858 142.735,69.904 142.723,69.95 142.71,69.995 
		142.7,70.041 142.691,70.086 142.683,70.13 142.677,70.174 142.676,70.197 142.674,70.218 142.673,70.24 142.671,70.262 
		142.671,70.283 142.671,70.305 142.671,70.327 142.671,70.349 142.673,70.37 142.674,70.39 142.676,70.414 142.677,70.434 
		142.681,70.456 142.685,70.475 142.688,70.496 142.692,70.517 142.698,70.536 142.704,70.558 142.709,70.579 142.716,70.597 
		142.722,70.618 142.729,70.637 142.736,70.656 142.746,70.677 142.753,70.696 142.762,70.715 142.773,70.735 142.783,70.753 
		142.796,70.772 142.806,70.791 142.817,70.81 142.829,70.829 142.841,70.847 142.856,70.864 142.871,70.882 142.886,70.9 
		142.898,70.918 142.914,70.935 142.933,70.952 142.95,70.971 142.969,70.985 142.985,71.004 143.003,71.02 143.023,71.037 
		143.062,71.069 143.103,71.101 143.145,71.131 143.19,71.162 143.236,71.189 143.28,71.218 143.327,71.246 143.374,71.271 
		143.422,71.295 143.468,71.32 143.517,71.341 143.613,71.385 143.705,71.422 143.796,71.458 143.841,71.47 143.882,71.485 
		143.923,71.496 143.961,71.508 143.999,71.517 144.033,71.526 144.066,71.534 144.097,71.539 144.11,71.54 144.124,71.543 
		144.139,71.543 144.149,71.544 144.16,71.544 144.17,71.546 144.177,71.546 144.181,71.544 144.186,71.544 144.19,71.544 
		144.196,71.544 144.199,71.544 144.202,71.543 144.206,71.543 144.208,71.543 144.208,71.543 144.212,71.542 144.212,71.542 
		144.214,71.54 144.22,71.54 144.224,71.537 144.229,71.534 144.231,71.532 144.234,71.531 144.235,71.529 144.237,71.528 
		144.239,71.524 144.24,71.523 144.24,71.521 144.243,71.519 144.243,71.517 144.243,71.516 144.245,71.513 144.245,71.511 
		144.245,71.5 144.245,71.493 144.245,71.49 144.243,71.487 144.243,71.484 144.243,71.481 144.241,71.477 144.24,71.474 
		144.239,71.47 144.237,71.464 144.234,71.458 144.231,71.45 144.229,71.443 144.224,71.435 144.217,71.421 144.174,71.338 
		144.164,71.32 144.157,71.302 144.152,71.292 144.147,71.283 144.146,71.274 144.142,71.265 144.139,71.256 144.136,71.248 
		144.132,71.24 144.132,71.234 144.132,71.23 144.132,71.225 144.13,71.22 144.13,71.218 144.126,71.212 144.126,71.208 
		144.126,71.204 144.126,71.199 144.126,71.195 144.126,71.191 144.126,71.188 144.126,71.183 144.126,71.178 144.126,71.174 
		144.13,71.169 144.13,71.167 144.132,71.162 144.132,71.162 144.132,71.159 144.132,71.157 144.132,71.154 144.132,71.152 
		144.132,71.151 144.136,71.148 144.136,71.146 144.136,71.145 144.136,71.142 144.139,71.141 144.139,71.139 144.139,71.136 
		144.14,71.134 144.142,71.133 144.142,71.131 144.142,71.13 144.146,71.128 144.146,71.126 144.147,71.124 144.149,71.122 
		144.149,71.121 144.151,71.119 144.154,71.116 144.154,71.113 144.157,71.112 144.16,71.11 144.16,71.107 144.163,71.105 
		144.165,71.103 144.169,71.099 144.174,71.096 144.177,71.093 144.181,71.09 144.186,71.087 144.19,71.084 144.196,71.082 
		144.199,71.079 144.202,71.075 144.208,71.072 144.214,71.07 144.22,71.067 144.233,71.062 144.245,71.057 144.258,71.051 
		144.272,71.046 144.287,71.04 144.3,71.037 144.329,71.028 144.364,71.019 144.396,71.011 144.433,71.005 144.509,70.99 
		144.588,70.979 145.095,70.916 145.172,70.903 145.208,70.897 145.241,70.892 145.274,70.882 145.306,70.876 145.32,70.872 
		145.335,70.867 145.348,70.863 145.361,70.859 145.372,70.854 145.388,70.849 145.397,70.844 145.407,70.838 145.421,70.834 
		145.43,70.829 145.438,70.824 145.448,70.818 145.457,70.812 145.462,70.81 145.467,70.807 145.47,70.803 145.474,70.801 
		145.478,70.798 145.481,70.795 145.484,70.792 145.487,70.79 145.49,70.787 145.495,70.784 145.497,70.781 145.499,70.776 
		145.503,70.772 145.506,70.771 145.509,70.767 145.512,70.764 145.513,70.761 145.517,70.758 145.518,70.753 145.521,70.75 
		145.524,70.747 145.526,70.742 145.527,70.741 145.527,70.738 145.53,70.733 145.53,70.729 145.533,70.726 145.533,70.721 
		145.534,70.718 145.536,70.715 145.539,70.712 145.539,70.709 145.539,70.705 145.539,70.7 145.54,70.695 145.54,70.692 
		145.542,70.688 145.542,70.683 145.542,70.682 145.542,70.677 145.542,70.673 145.542,70.667 145.542,70.665 145.542,70.659 
		145.542,70.656 145.54,70.651 145.54,70.648 145.539,70.644 145.539,70.641 145.539,70.636 145.539,70.63 145.539,70.625 
		145.534,70.618 145.532,70.608 145.53,70.6 145.527,70.592 145.524,70.582 145.52,70.572 145.515,70.563 145.512,70.554 
		145.506,70.543 145.499,70.532 145.497,70.525 145.484,70.502 145.473,70.483 145.457,70.463 145.442,70.443 145.427,70.418 
		145.408,70.397 145.39,70.375 145.351,70.328 145.172,70.12 145.126,70.062 145.079,70.001 145.056,69.967 145.035,69.937 
		145.013,69.904 144.989,69.868 144.972,69.832 144.95,69.796 144.932,69.76 144.913,69.72 144.897,69.682 144.88,69.641 
		144.874,69.622 144.868,69.6 144.858,69.579 144.853,69.556 144.847,69.534 144.841,69.514 144.835,69.491 144.831,69.468 
		144.827,69.445 144.825,69.422 144.819,69.399 144.815,69.373 144.813,69.351 144.81,69.327 144.81,69.302 144.809,69.276 
		144.809,69.25 144.807,69.225 144.809,69.173 	"/>
	<path fill="#FFFFFF" d="M135.449,76.933l-0.052,0.075l-0.045,0.078l-0.049,0.079l-0.047,0.082l-0.044,0.082l-0.045,0.085
		l-0.043,0.087l-0.042,0.09l-0.04,0.091l-0.04,0.093l-0.04,0.095l-0.035,0.098l-0.035,0.1l-0.034,0.103l-0.033,0.104l-0.03,0.108
		l-0.03,0.108l-0.027,0.111l-0.024,0.115l-0.024,0.118l-0.023,0.118l-0.019,0.122l-0.019,0.125l-0.015,0.127l-0.015,0.131
		l-0.023,0.271l-0.016,0.279l-0.004,0.292l0.003,0.306l0.013,0.318v0.011l0.003,0.01v0.011l0.001,0.012l0.001,0.011v0.01
		l0.003,0.011l0.001,0.011l0.004,0.02l0.007,0.021l0.006,0.021l0.006,0.019l0.009,0.019l0.006,0.021l0.007,0.019l0.007,0.016
		l0.01,0.019l0.012,0.017l0.009,0.016l0.011,0.016l0.01,0.016l0.013,0.014l0.011,0.016l0.009,0.012l0.016,0.013l0.012,0.013
		c0.007,0.006,0.013,0.012,0.013,0.012c0.006,0.006,0.013,0.011,0.013,0.011c0.007,0.004,0.014,0.01,0.014,0.01
		c0.006,0.005,0.012,0.011,0.012,0.011c0.006,0.004,0.016,0.009,0.016,0.009c0.005,0.003,0.012,0.007,0.012,0.007l0.008,0.004
		c0.007,0.005,0.013,0.008,0.013,0.008c0.006,0.004,0.014,0.007,0.014,0.007c0.007,0.003,0.013,0.004,0.013,0.004l0.009,0.004
		l0.007,0.003c0.009,0.001,0.012,0.003,0.012,0.003c0.007,0.003,0.016,0.005,0.016,0.005l0.009,0.003
		c0.006,0.001,0.013,0.001,0.013,0.001c0.006,0.003,0.014,0.003,0.014,0.003c0.005,0.001,0.013,0.001,0.013,0.001
		c0.007,0,0.014,0.001,0.014,0.001h0.006c0.006,0,0.015-0.001,0.015-0.001c0.006,0,0.012-0.001,0.012-0.001
		c0.006,0,0.013-0.003,0.013-0.003c0.007,0,0.013-0.001,0.013-0.001c0.008-0.003,0.013-0.004,0.013-0.004
		c0.006-0.003,0.012-0.005,0.012-0.005c0.005-0.003,0.014-0.006,0.014-0.006c0.005-0.003,0.009-0.003,0.009-0.003
		c0.004-0.003,0.007-0.006,0.007-0.006c0.006-0.004,0.008-0.006,0.008-0.006c0.003-0.001,0.009-0.006,0.009-0.006
		c0.006-0.005,0.011-0.009,0.011-0.009c0.004-0.004,0.01-0.01,0.01-0.01c0.003-0.006,0.009-0.011,0.009-0.011
		c0.003-0.007,0.009-0.012,0.009-0.012c0.003-0.006,0.01-0.012,0.01-0.012c0.004-0.007,0.007-0.015,0.007-0.015
		c0.002-0.006,0.007-0.014,0.007-0.014l0.002-0.009l0.003-0.007l0.005-0.008l0.003-0.008l0.004-0.009l0.001-0.008l0.003-0.01
		l0.001-0.008l0.003-0.01v-0.01l0.003-0.01l0.003-0.01v-0.012l0.003-0.011l0.001-0.01l0.028-0.241l0.031-0.227l0.036-0.214
		l0.043-0.202l0.021-0.096l0.023-0.094l0.024-0.093l0.025-0.088l0.027-0.087l0.03-0.083l0.027-0.081l0.031-0.078l0.033-0.075
		l0.031-0.075l0.033-0.07l0.036-0.069l0.037-0.064l0.036-0.065l0.04-0.061l0.04-0.06l0.04-0.058l0.042-0.055l0.044-0.055l0.043-0.05
		l0.045-0.048l0.049-0.047l0.047-0.044l0.049-0.043l0.052-0.042l0.052-0.04l0.052-0.038l0.056-0.036l0.057-0.034l0.056-0.033
		l0.059-0.032l0.061-0.029l0.059-0.029l0.063-0.027l0.062-0.027l0.065-0.024l0.064-0.023l0.067-0.021l0.069-0.019l0.069-0.021
		l0.073-0.019l0.073-0.016l0.148-0.033l0.152-0.029l0.161-0.024l0.165-0.02l0.17-0.019l0.358-0.032l0.778-0.044l2.604-0.104
		l0.441-0.033l0.436-0.041l0.423-0.05l0.208-0.029l0.205-0.034l0.201-0.036l0.192-0.041l0.193-0.042l0.183-0.049l0.182-0.052
		l0.173-0.056l0.085-0.03l0.082-0.03l0.082-0.033l0.079-0.034l0.044,0.022l0.047,0.02l0.049,0.02l0.052,0.021l0.055,0.02
		l0.055,0.019l0.118,0.038l0.128,0.035l0.137,0.037l0.14,0.032l0.15,0.032l0.316,0.061l0.338,0.058l0.723,0.104l2.253,0.273
		l0.675,0.094l0.303,0.049l0.282,0.055l0.132,0.03l0.13,0.03l0.121,0.036l0.122,0.036l0.112,0.038l0.058,0.021l0.054,0.021
		l0.054,0.021l0.054,0.024l0.052,0.024l0.052,0.024l0.049,0.026l0.049,0.027l0.048,0.027l0.046,0.029l0.047,0.032l0.046,0.03
		l0.045,0.034l0.045,0.033l0.042,0.034l0.041,0.037l0.043,0.036l0.042,0.042l0.04,0.041l0.041,0.042l0.04,0.043l0.035,0.044
		l0.04,0.047l0.038,0.047l0.035,0.049l0.037,0.052l0.037,0.052l0.037,0.055l0.033,0.056l0.034,0.058l0.035,0.062l0.035,0.062
		l0.067,0.129l0.064,0.137l0.066,0.146l0.062,0.155l0.063,0.163l0.064,0.17l0.062,0.183l0.007,0.021l0.01,0.021l0.006,0.019
		l0.009,0.017l0.011,0.02l0.008,0.016l0.006,0.01l0.005,0.007l0.004,0.007l0.007,0.008l0.004,0.007l0.005,0.009
		c0.008,0.004,0.012,0.012,0.012,0.012c0.007,0.007,0.013,0.015,0.013,0.015c0.005,0.005,0.01,0.011,0.01,0.011
		c0.005,0.006,0.012,0.012,0.012,0.012c0.006,0.006,0.009,0.011,0.009,0.011c0.007,0.005,0.013,0.01,0.013,0.01
		c0.008,0.006,0.014,0.01,0.014,0.01c0.004,0.004,0.012,0.008,0.012,0.008c0.006,0.004,0.011,0.008,0.011,0.008
		c0.006,0.003,0.012,0.006,0.012,0.006c0.007,0.004,0.013,0.007,0.013,0.007c0.008,0.003,0.012,0.004,0.012,0.004
		c0.006,0.004,0.013,0.005,0.013,0.005c0.006,0.003,0.013,0.005,0.013,0.005c0.007,0.001,0.013,0.004,0.013,0.004
		c0.007,0,0.013,0.001,0.013,0.001c0.006,0.002,0.014,0.003,0.014,0.003c0.006,0,0.012,0.002,0.012,0.002c0.006,0,0.012,0,0.012,0
		c0.007,0,0.01,0,0.01,0c0.009,0,0.015-0.002,0.015-0.002c0.003,0,0.013-0.001,0.013-0.001c0.006-0.002,0.01-0.003,0.01-0.003
		c0.006-0.001,0.014-0.003,0.014-0.003c0.004-0.003,0.01-0.004,0.01-0.004c0.006-0.001,0.011-0.003,0.011-0.003
		c0.008-0.004,0.014-0.005,0.014-0.005c0.003-0.003,0.009-0.006,0.009-0.006c0.006-0.003,0.013-0.007,0.013-0.007
		c0.004-0.003,0.009-0.007,0.009-0.007c0.006-0.001,0.009-0.006,0.009-0.006c0.007-0.005,0.011-0.009,0.011-0.009
		c0.006-0.004,0.011-0.009,0.011-0.009c0.003-0.004,0.01-0.008,0.01-0.008c0.006-0.008,0.009-0.012,0.009-0.012
		c0.003-0.006,0.009-0.011,0.009-0.011c0.003-0.005,0.006-0.011,0.006-0.011c0.005-0.006,0.01-0.012,0.01-0.012
		c0.003-0.008,0.006-0.014,0.006-0.014c0.004-0.006,0.009-0.014,0.009-0.014l0.002-0.008l0.005-0.007l0.003-0.006l0.003-0.007
		l0.003-0.008l0.001-0.007l0.002-0.007l0.003-0.01l0.003-0.009l0.001-0.006l0.002-0.009l0.003-0.009v-0.01l0.004-0.005v-0.011
		l0.003-0.01l0.002-0.017l0.001-0.02v-0.021v-0.021v-0.02v-0.023l-0.003-0.023l-0.079-0.721l-0.043-0.321l-0.046-0.296l-0.048-0.275
		l-0.049-0.254l-0.054-0.233l-0.056-0.219l-0.056-0.202l-0.063-0.188l-0.062-0.176l-0.065-0.166l-0.07-0.156l-0.069-0.151
		l-0.076-0.144l-0.076-0.144l-0.079-0.138l-0.085-0.136l-0.172-0.269l-0.18-0.265l-0.188-0.256l-0.387-0.501l-0.39-0.486
		l-0.389-0.472l-0.098-0.113l-0.1-0.111l-0.103-0.108l-0.103-0.104l-0.109-0.099l-0.054-0.049l-0.056-0.047l-0.059-0.045
		l-0.055-0.046l-0.058-0.042l-0.062-0.044l-0.059-0.04l-0.062-0.038l-0.064-0.038l-0.064-0.037l-0.063-0.035l-0.066-0.033
		l-0.067-0.03l-0.069-0.029l-0.07-0.029l-0.072-0.024l-0.076-0.022l-0.076-0.023l-0.079-0.021l-0.082-0.018l-0.087-0.018
		l-0.09-0.017l-0.09-0.013l-0.098-0.014l-0.207-0.021l-0.225-0.019l-0.248-0.013l-0.569-0.017l-2.461,0.02l-1.069-0.105
		l-0.891-0.062l-0.384-0.014l-0.351-0.008l-0.316,0.006l-0.146,0.005l-0.141,0.007l-0.135,0.009l-0.129,0.013l-0.12,0.013
		l-0.12,0.017l-0.111,0.017l-0.111,0.021l-0.104,0.021l-0.101,0.024l-0.097,0.026l-0.097,0.027l-0.092,0.029l-0.094,0.03
		l-0.089,0.033l-0.089,0.035l-0.176,0.071l-0.179,0.081l-0.176,0.086l-0.18,0.091l-0.18,0.097l-0.184,0.104l-0.185,0.109
		l-0.383,0.239l-0.392,0.266l-0.41,0.289l-0.881,0.655l-0.23,0.181l-0.237,0.19l-0.118,0.098l-0.12,0.105l-0.118,0.104l-0.117,0.111
		l-0.114,0.115l-0.115,0.122l-0.111,0.124l-0.111,0.131l-0.052,0.067l-0.053,0.069l-0.052,0.072l-0.053,0.073L135.449,76.933z"/>
	<path fill="#FFFFFF" d="M120.598,172.707l1.802-1.433l3.974-3.33l2.916,1.483l2.802,1.357l5.022,2.288l4.682,1.953l4.37,1.662
		l4.091,1.413l3.827,1.198l12.747,3.67l0.658,0.179l0.304,0.075l0.29,0.065l0.276,0.055l0.136,0.021l0.135,0.021l0.128,0.018
		l0.13,0.016l0.128,0.012l0.128,0.01l0.124,0.006h0.126h0.123l0.123-0.004l0.123-0.007l0.121-0.011l0.119-0.014l0.121-0.019
		l0.119-0.022l0.118-0.025l0.118-0.027l0.118-0.035l0.114-0.037l0.117-0.041l0.055-0.024l0.058-0.024l0.059-0.023l0.058-0.025
		l0.055-0.026l0.057-0.027l0.113-0.062l0.112-0.064l0.112-0.072l0.109-0.072l0.111-0.08l0.109-0.084l0.107-0.09l0.111-0.096
		l0.107-0.099l0.108-0.106l0.108-0.112l0.105-0.116l0.105-0.124l0.105-0.129l0.106-0.134l0.104-0.141l0.104-0.147l0.106-0.153
		l0.104-0.162l0.213-0.34l0.216-0.367l0.221-0.4l0.226-0.428l6.89-14.117l2.201-4.612l2.196-4.862l2.065-4.969l0.964-2.49
		l0.905-2.48l0.844-2.46l0.77-2.425l0.693-2.382l0.606-2.324l0.517-2.261l0.223-1.107l0.201-1.096l0.177-1.08l0.151-1.072
		l0.129-1.061l0.109-1.053l0.082-1.046l0.06-1.037l0.036-1.032l0.011-1.03l-0.011-1.025l-0.037-1.022l-0.059-1.022l-0.082-1.022
		l-0.109-1.024l-0.129-1.021l-0.15-1.018l-0.165-1.011l-0.382-1.994l-0.43-1.937l-0.461-1.855l-0.479-1.756l-0.944-3.122
		l-0.438-1.331l-0.411-1.177l-0.388-1.036l-0.374-0.907l-0.181-0.409l-0.179-0.381l-0.178-0.354l-0.176-0.33l-0.174-0.305
		l-0.173-0.283l-0.089-0.134l-0.086-0.129l-0.087-0.124l-0.088-0.119l-0.089-0.115l-0.088-0.111l-0.089-0.106l-0.089-0.104
		l-0.09-0.097L186.931,97l-0.094-0.09l-0.093-0.086l-0.091-0.084l-0.098-0.081l-0.098-0.074l-0.099-0.073l-0.099-0.07l-0.104-0.066
		l-0.105-0.062l-0.104-0.062l-0.109-0.056l-0.109-0.055l-0.112-0.052l-0.112-0.05l-0.118-0.045l-0.119-0.044l-0.123-0.041
		l-0.125-0.04l-0.129-0.038l-0.131-0.034l-0.135-0.034l-0.137-0.032l-0.283-0.056l-0.299-0.052l-0.315-0.044l-0.329-0.041
		l-0.719-0.069l-10.012-0.632l-4.261-0.2l-2.506-0.045l-2.788,0.015l-3.092,0.09l-3.42,0.184l-0.1,0.005l-0.104,0.002l-0.105-0.002
		l-0.107-0.004l-0.111-0.008l-0.111-0.009l-0.117-0.013l-0.115-0.018l-0.117-0.017l-0.117-0.02l-0.241-0.049l-0.243-0.055
		l-0.243-0.062l-0.243-0.068l-0.24-0.075l-0.232-0.079l-0.233-0.083l-0.222-0.086l-0.216-0.089l-0.204-0.088l-0.191-0.09
		l-0.11-0.055l-0.11-0.057l-0.225-0.124l-0.225-0.132l-0.226-0.141l-0.229-0.148l-0.225-0.152l-0.435-0.314l-0.419-0.316
		l-0.386-0.306l-0.641-0.531l-0.234-0.207l-0.098-0.088l-0.042-0.04l-0.04-0.039l-0.037-0.039l-0.033-0.035l-0.029-0.036
		l-0.013-0.017l-0.015-0.015l-0.011-0.018l-0.015-0.016l-0.009-0.016l-0.01-0.016l-0.01-0.015l-0.009-0.017l-0.008-0.016
		l-0.003-0.007l-0.003-0.007l-0.004-0.008l-0.006-0.008l-0.003-0.007v-0.007l-0.003-0.01l-0.003-0.006l-0.001-0.007l-0.003-0.007
		l-0.002-0.008l-0.003-0.007v-0.007l-0.004-0.008v-0.007v-0.007l-0.002-0.008v-0.01v-0.006l-0.002-0.007v-0.01l-0.002-0.007v-0.007
		v-0.006l0.002-0.009l0.002-0.008v-0.007v-0.01l0.002-0.007v-0.009l0.004-0.016l0.002-0.018l0.004-0.017l0.003-0.016l0.006-0.02
		l0.007-0.017l0.006-0.019l0.003-0.018l0.015-0.039l0.02-0.039l0.018-0.042l0.042-0.09l0.377-0.73l0.073-0.152l0.07-0.161
		l0.071-0.171l0.071-0.18l0.063-0.188l0.061-0.195l0.027-0.102l0.028-0.104l0.026-0.104l0.024-0.106l0.021-0.112l0.02-0.111
		l0.017-0.112l0.015-0.115l0.006-0.042l0.001-0.041l0.005-0.039l0.001-0.039v-0.038l-0.001-0.037l-0.004-0.033l-0.001-0.035
		l-0.005-0.034l-0.004-0.031l-0.002-0.015l-0.004-0.017l-0.002-0.014l-0.005-0.017l-0.003-0.014l-0.004-0.015l-0.005-0.016
		l-0.005-0.013l-0.004-0.014l-0.007-0.014l-0.003-0.014l-0.006-0.012l-0.007-0.014l-0.005-0.012l-0.007-0.012l-0.006-0.012
		l-0.006-0.012l-0.009-0.012l-0.007-0.01l-0.007-0.011l-0.006-0.014l-0.01-0.009l-0.008-0.01l-0.009-0.01l-0.008-0.01l-0.011-0.01
		l-0.006-0.009l-0.009-0.009l-0.01-0.009l-0.011-0.008l-0.008-0.008l-0.01-0.009l-0.012-0.009l-0.008-0.01l-0.013-0.004
		l-0.009-0.009l-0.013-0.008l-0.009-0.007l-0.013-0.004l-0.011-0.007l-0.01-0.008l-0.013-0.004l-0.014-0.007l-0.013-0.005
		l-0.01-0.005l-0.014-0.005l-0.014-0.006l-0.013-0.004l-0.012-0.005l-0.016-0.004l-0.013-0.004l-0.014-0.004l-0.028-0.007
		l-0.027-0.007l-0.028-0.004l-0.029-0.007l-0.03-0.003l-0.032-0.004l-0.031-0.001l-0.031-0.003h-0.033h-0.033h-0.034l-0.035,0.003
		l-0.034,0.001l-0.036,0.003l-0.036,0.004l-0.037,0.005l-0.037,0.006l-0.039,0.004l-0.075,0.016l-0.082,0.016l-0.079,0.021
		l-0.082,0.024l-0.083,0.025l-0.728,0.223l-0.688,0.192l-0.65,0.156l-0.312,0.065l-0.304,0.06l-0.298,0.052l-0.289,0.042
		l-0.279,0.039l-0.276,0.03l-0.269,0.024l-0.264,0.019l-0.258,0.011l-0.252,0.008l-0.246,0.001l-0.243-0.004l-0.24-0.007
		l-0.233-0.014l-0.232-0.017l-0.23-0.022l-0.449-0.053l-0.443-0.067l-0.439-0.079l-0.876-0.183l-1.777-0.427l-1.741-0.482
		l-0.826-0.251l-0.772-0.255l-0.711-0.252l-0.328-0.125l-0.308-0.123l-0.284-0.12l-0.266-0.122l-0.245-0.12l-0.114-0.061
		l-0.112-0.061l-0.106-0.062l-0.103-0.062l-0.101-0.063l-0.098-0.066l-0.094-0.065l-0.09-0.07l-0.087-0.068l-0.084-0.073
		l-0.083-0.073l-0.079-0.076l-0.079-0.075l-0.077-0.082l-0.074-0.084l-0.073-0.085l-0.071-0.088l-0.071-0.092l-0.069-0.095
		l-0.072-0.099l-0.068-0.102l-0.066-0.106l-0.14-0.222l-0.137-0.242l-0.14-0.257l-0.145-0.272l-0.29-0.586l-0.289-0.622
		l-0.284-0.641l-0.521-1.268l-0.229-0.591l-0.771-2.262l-0.055-0.142l-0.056-0.136l-0.03-0.066l-0.03-0.065l-0.032-0.064
		l-0.034-0.063l-0.035-0.063l-0.036-0.063l-0.037-0.062l-0.039-0.062l-0.043-0.064l-0.042-0.062l-0.047-0.064l-0.051-0.063
		l-0.1-0.128l-0.589-0.708l-0.125-0.157l-0.125-0.17l-0.124-0.176l-0.061-0.093l-0.058-0.092l-0.058-0.099l-0.058-0.101
		l-0.055-0.101l-0.058-0.108l-0.052-0.109l-0.05-0.111l-0.05-0.117l-0.045-0.119l-0.046-0.123l-0.043-0.125l-0.039-0.131
		l-0.036-0.134l-0.034-0.138l-0.033-0.138l-0.03-0.144l-0.027-0.146l-0.052-0.299l-0.036-0.309l-0.033-0.312l-0.024-0.319
		l-0.016-0.322l-0.009-0.322l-0.006-0.325l0.006-0.322l0.006-0.317l0.034-0.62l0.048-0.587l0.03-0.275l0.035-0.264l0.042-0.254
		l0.046-0.243l0.024-0.117l0.027-0.114l0.027-0.109l0.033-0.111l0.03-0.104l0.035-0.105l0.039-0.099l0.039-0.099l0.04-0.096
		l0.043-0.094l0.047-0.09l0.024-0.042l0.024-0.044l0.024-0.042l0.027-0.042l0.027-0.042l0.026-0.039l0.027-0.042l0.03-0.039
		l0.029-0.04l0.03-0.038l0.031-0.038l0.032-0.037l0.034-0.036l0.033-0.037l0.032-0.035l0.036-0.035l0.036-0.036l0.037-0.032
		l0.038-0.033l0.04-0.033l0.037-0.032l0.043-0.031l0.039-0.032l0.042-0.028l0.042-0.029l0.044-0.029l0.045-0.029l0.044-0.028
		l0.049-0.027l0.046-0.026l0.049-0.026l0.05-0.025l0.048-0.022l0.05-0.023l0.052-0.022l0.052-0.018l0.053-0.02l0.053-0.019
		l0.053-0.015l0.053-0.016l0.056-0.012l0.055-0.013l0.056-0.007l0.055-0.009l0.058-0.007l0.058-0.005l0.055-0.003h0.029h0.031h0.029
		l0.03,0.001l0.027,0.001l0.029,0.003l0.028,0.003l0.029,0.003l0.029,0.003l0.03,0.004l0.029,0.004l0.029,0.004l0.029,0.008
		l0.029,0.006l0.031,0.007l0.03,0.008l0.028,0.01l0.029,0.008l0.029,0.009l0.029,0.013l0.03,0.01l0.03,0.011l0.027,0.015l0.03,0.011
		l0.029,0.015l0.029,0.014l0.03,0.016l0.03,0.016l0.027,0.017l0.031,0.018l0.027,0.018l0.03,0.02l0.031,0.018l0.027,0.023l0.03,0.02
		l0.028,0.023l0.03,0.023l0.028,0.023l0.029,0.026l0.029,0.025l0.058,0.053l0.056,0.058l0.057,0.06l0.056,0.065l0.055,0.066
		l0.056,0.072l0.052,0.076l0.056,0.078l0.053,0.083l0.053,0.087l0.053,0.091l0.052,0.095l0.05,0.099l0.05,0.105l0.048,0.105
		l0.05,0.112l0.047,0.117l0.049,0.12l0.046,0.126l0.091,0.265l0.085,0.283l0.021,0.075l0.02,0.079l0.035,0.155l0.066,0.315
		l0.067,0.3l0.015,0.069l0.019,0.069l0.02,0.063l0.02,0.064l0.009,0.029l0.01,0.029l0.012,0.027l0.011,0.026l0.012,0.025
		l0.012,0.026l0.012,0.024l0.007,0.01l0.007,0.012l0.005,0.013l0.009,0.009l0.006,0.01l0.006,0.011l0.006,0.009l0.007,0.009
		l0.008,0.01l0.007,0.007l0.008,0.009l0.008,0.008l0.008,0.009l0.008,0.006l0.01,0.006c0.003,0.005,0.007,0.008,0.007,0.008
		c0.004,0.003,0.007,0.006,0.007,0.006c0.004,0.001,0.009,0.004,0.009,0.004c0.003,0.003,0.009,0.006,0.009,0.006
		c0.006,0.003,0.007,0.004,0.007,0.004c0.005,0.004,0.009,0.006,0.009,0.006c0.005,0.002,0.011,0.005,0.011,0.005
		c0.003,0.001,0.009,0.004,0.009,0.004c0.005,0.001,0.009,0.001,0.009,0.001c0.004,0.001,0.01,0.003,0.01,0.003
		c0.004,0.001,0.008,0.003,0.008,0.003c0.006,0.001,0.011,0.001,0.011,0.001c0.004,0.001,0.011,0.003,0.011,0.003
		c0.002,0,0.009,0.002,0.009,0.002c0.006,0,0.011,0,0.011,0c0.006,0.001,0.01,0.001,0.01,0.001c0.006,0,0.01,0,0.01,0
		c0.007,0,0.011,0,0.011,0c0.006,0,0.012-0.001,0.012-0.001c0.006,0,0.012-0.002,0.012-0.002c0.005,0,0.01-0.001,0.01-0.001
		c0.006-0.001,0.011-0.001,0.011-0.001l0.014-0.003l0.01-0.003l0.012-0.001l0.013-0.004l0.016-0.006l0.011-0.004l0.012-0.007
		l0.015-0.006l0.014-0.006l0.013-0.006l0.014-0.01l0.014-0.007l0.016-0.007l0.104-0.066l0.101-0.065l0.098-0.067l0.094-0.066
		l0.088-0.065l0.085-0.067l0.082-0.066l0.077-0.068l0.073-0.065l0.069-0.068l0.064-0.07l0.03-0.034l0.03-0.033l0.027-0.035
		l0.03-0.036l0.024-0.033l0.027-0.035l0.024-0.034l0.024-0.034l0.021-0.036l0.021-0.035l0.04-0.067l0.04-0.068l0.04-0.07
		l0.036-0.073l0.037-0.074l0.034-0.076l0.03-0.075l0.015-0.039l0.013-0.04l0.012-0.036l0.013-0.04l0.01-0.038l0.011-0.04
		l0.008-0.036l0.008-0.038l0.008-0.038l0.003-0.038l0.006-0.036v-0.019l0.001-0.019l0.002-0.018V66.63v-0.017v-0.02v-0.016
		l-0.002-0.017l-0.001-0.018l-0.002-0.017l-0.001-0.02l-0.002-0.015l-0.003-0.019l-0.005-0.017l-0.119-0.606l-0.101-0.572
		l-0.076-0.542l-0.061-0.513l-0.044-0.486l-0.029-0.458l-0.015-0.437l-0.004-0.414l0.004-0.394l0.011-0.375l0.123-1.969l0.018-0.589
		l-0.003-0.564l-0.012-0.532l-0.132-2.15l-0.001-0.059l0.001-0.058l0.001-0.053l0.001-0.028l0.003-0.026v-0.024l0.004-0.026
		l0.003-0.024l0.005-0.024l0.004-0.023l0.003-0.024l0.006-0.024l0.006-0.021l0.007-0.023l0.009-0.021l0.006-0.024l0.009-0.021
		l0.012-0.021l0.01-0.021l0.01-0.025l0.013-0.021l0.011-0.021l0.015-0.023l0.012-0.023l0.016-0.021l0.017-0.022l0.016-0.021
		l0.019-0.026l0.018-0.022l0.042-0.047l0.043-0.05l0.049-0.052l0.055-0.053l0.118-0.115l0.299-0.269l0.88-0.752l0.286-0.233
		l0.316-0.248l0.348-0.26l0.378-0.27l0.413-0.276l0.45-0.281l0.483-0.284l0.525-0.284l0.562-0.282l0.603-0.28l0.647-0.27
		l0.691-0.261l0.735-0.25l0.784-0.239l0.811-0.213l0.854-0.198l0.891-0.177l0.92-0.154l0.95-0.125l0.975-0.099l0.992-0.067
		l0.503-0.02l0.504-0.012l0.506-0.003l0.511,0.007l0.51,0.017l0.512,0.027l0.513,0.038l0.511,0.05l0.509,0.059l0.509,0.072
		l0.508,0.083l0.503,0.096l0.499,0.109l0.496,0.122l0.492,0.134l0.486,0.149l0.482,0.163l0.475,0.176l0.029,0.009l0.014,0.005
		l0.014,0.006l0.014,0.003l0.015,0.004l0.013,0.003l0.012,0.003l0.015,0.002l0.013,0.003l0.013,0.001l0.011,0.003h0.016l0.01,0.001
		l0.012,0.001h0.012h0.012h0.012l0.014-0.003h0.008l0.01-0.001c0.006-0.001,0.013-0.001,0.013-0.001
		c0.006-0.001,0.01-0.001,0.01-0.001c0.005-0.003,0.012-0.003,0.012-0.003c0.002,0,0.009-0.002,0.009-0.002
		c0.004-0.001,0.008-0.003,0.008-0.003c0.007-0.001,0.01-0.004,0.01-0.004c0.006-0.001,0.01-0.003,0.01-0.003
		c0.004-0.003,0.008-0.004,0.008-0.004c0.005-0.003,0.01-0.004,0.01-0.004c0.004-0.003,0.01-0.007,0.01-0.007
		c0.002-0.003,0.006-0.003,0.006-0.003c0.003-0.003,0.01-0.005,0.01-0.005c0.004-0.003,0.009-0.006,0.009-0.006
		c0.002-0.003,0.005-0.006,0.005-0.006c0.005-0.003,0.008-0.008,0.008-0.008c0.003-0.003,0.008-0.004,0.008-0.004
		c0.003-0.004,0.006-0.007,0.006-0.007c0.004-0.004,0.006-0.009,0.006-0.009c0.005-0.003,0.01-0.008,0.01-0.008
		c0.002-0.003,0.005-0.007,0.005-0.007c0.003-0.003,0.007-0.007,0.007-0.007c0.002-0.004,0.005-0.009,0.005-0.009
		c0.001-0.006,0.005-0.009,0.005-0.009l0.006-0.009l0.006-0.011l0.003-0.011l0.007-0.009l0.003-0.013l0.003-0.009l0.006-0.013
		l0.004-0.012l0.002-0.011l0.004-0.013l0.002-0.012l0.003-0.014v-0.013l0.003-0.013l0.004-0.016v-0.013l0.002-0.016v-0.013v-0.017
		v-0.015l0.004-0.177l-0.004-0.167l-0.002-0.078l-0.007-0.076l-0.005-0.076l-0.01-0.071l-0.002-0.021l-0.004-0.021l-0.005-0.021
		l-0.005-0.023l-0.006-0.02l-0.006-0.02l-0.006-0.022l-0.008-0.019l-0.008-0.02l-0.01-0.02l-0.008-0.018l-0.01-0.02l-0.011-0.019
		l-0.01-0.019l-0.013-0.018l-0.012-0.017l-0.013-0.015l-0.013-0.017l-0.015-0.017l-0.014-0.015l-0.016-0.016l-0.015-0.013
		l-0.017-0.014l-0.015-0.014l-0.01-0.008l-0.008-0.006l-0.009-0.004l-0.008-0.007l-0.009-0.006l-0.01-0.005l-0.01-0.005
		l-0.008-0.005l-0.01-0.006l-0.009-0.004l-0.009-0.006l-0.01-0.005l-0.01-0.004l-0.012-0.003l-0.008-0.005l-0.01-0.003l-0.865-0.341
		l-0.809-0.302l-0.754-0.266l-0.709-0.231l-0.668-0.197l-0.627-0.168l-0.591-0.14l-0.562-0.115l-0.537-0.091l-0.51-0.07
		l-0.496-0.047l-0.48-0.031l-0.47-0.018l-0.466-0.003l-0.461,0.009l-0.466,0.019l-1.004,0.059l-1.025,0.09l-1.04,0.122l-1.05,0.148
		l-1.051,0.179l-1.046,0.208l-1.033,0.237l-1.018,0.264l-0.991,0.293l-0.486,0.158l-0.484,0.164l-0.478,0.174l-0.476,0.184
		l-0.47,0.192l-0.47,0.202l-0.464,0.213l-0.464,0.22l-0.464,0.236l-0.462,0.243l-0.46,0.256l-0.463,0.269l-0.462,0.279l-0.463,0.293
		l-0.831,0.555l-4.49,3.183l-1.011,0.678l-1.066,0.674l-0.045,0.029l-0.043,0.028l-0.043,0.03l-0.039,0.03l-0.04,0.032l-0.042,0.033
		l-0.037,0.032l-0.036,0.032l-0.033,0.035l-0.037,0.034l-0.033,0.035l-0.033,0.035l-0.03,0.036l-0.031,0.037l-0.028,0.038
		l-0.029,0.037l-0.028,0.039l-0.026,0.039l-0.025,0.04l-0.022,0.04l-0.023,0.041l-0.024,0.041l-0.018,0.042l-0.02,0.043l-0.02,0.042
		l-0.019,0.043l-0.019,0.042l-0.015,0.045l-0.016,0.044l-0.015,0.047l-0.012,0.044l-0.012,0.047l-0.013,0.045l-0.01,0.049
		l-0.011,0.046l-0.008,0.047l-0.007,0.05l-0.009,0.048l-0.003,0.049l-0.006,0.05l-0.006,0.049l-0.003,0.05l-0.002,0.101
		l-0.001,0.104l0.001,0.104l0.006,0.106l0.007,0.106l0.013,0.106l0.011,0.109l0.019,0.109l0.02,0.109l0.025,0.112l0.023,0.111
		l0.011,0.046l0.01,0.042l0.01,0.045l0.007,0.045l0.012,0.091l0.011,0.095l0.009,0.096l0.005,0.096l0.006,0.099v0.101l-0.001,0.206
		l-0.01,0.209l-0.012,0.213l-0.144,1.548l-0.011,0.217l-0.006,0.219v0.214l0.009,0.211l0.012,0.207l0.018,0.202l0.025,0.197
		l0.027,0.192l0.031,0.188l0.034,0.182l0.036,0.175l0.037,0.168l0.08,0.317l0.278,0.96l0.026,0.097l0.022,0.099l0.02,0.098
		l0.017,0.104l0.014,0.109l0.012,0.119l0.008,0.124l0.003,0.14l0.001,0.152l-0.001,0.167l-0.219,4.173l-0.01,0.809l0.016,0.84
		l0.036,0.861l0.058,0.87l0.359,3.971l0.039,0.614l0.013,0.273l0.006,0.255l-0.003,0.239l-0.002,0.114l-0.007,0.111l-0.009,0.111
		l-0.012,0.106l-0.011,0.106l-0.015,0.106l-0.018,0.104l-0.021,0.106l-0.021,0.106l-0.023,0.107l-0.026,0.108l-0.031,0.109
		l-0.068,0.231l-0.078,0.241l-0.091,0.262l-1.202,3.138l-0.43,1.198l-0.472,1.412l-0.513,1.646l-0.544,1.904l-0.576,2.189
		l-0.598,2.493l-0.089,0.377l-0.097,0.379l-0.109,0.38l-0.116,0.379l-0.125,0.376l-0.139,0.369l-0.073,0.181l-0.076,0.18
		l-0.079,0.176l-0.084,0.172l-0.086,0.168l-0.088,0.167l-0.094,0.163l-0.097,0.157l-0.101,0.155l-0.105,0.147l-0.053,0.071
		l-0.055,0.071l-0.055,0.07l-0.056,0.066l-0.058,0.066l-0.059,0.066l-0.059,0.064l-0.061,0.061l-0.062,0.062l-0.063,0.058
		l-0.066,0.059l-0.063,0.053l-0.067,0.055l-0.065,0.052l-0.07,0.049l-0.07,0.047l-0.07,0.049l-0.072,0.042l-0.076,0.044l-0.073,0.04
		l-8.265,4.493l-3.384,1.961l-2.932,1.772l-2.512,1.59l-2.136,1.409l-3.275,2.28l-1.209,0.884l-0.972,0.74l-0.405,0.323
		l-0.357,0.298l-0.311,0.274l-0.142,0.131l-0.13,0.126l-0.122,0.122l-0.113,0.12l-0.103,0.114l-0.1,0.112l-0.089,0.112l-0.082,0.109
		l-0.078,0.106l-0.069,0.109l-0.067,0.105l-0.059,0.108l-0.058,0.106l-0.052,0.108l-0.049,0.109l-0.047,0.111l-0.042,0.113
		l-0.042,0.115l-0.042,0.118l-0.037,0.123l-0.076,0.253l-0.07,0.269l-0.068,0.28l-0.129,0.616l-3.29,15.538l-0.177,1.043
		l-0.143,0.985l-0.115,0.956l-0.09,0.945l-0.068,0.953l-0.094,2.021l-0.045,2.277l0.007,1.229l0.035,1.278l0.067,1.323l0.105,1.357
		l0.155,1.387l0.095,0.702l0.112,0.705l0.122,0.709l0.139,0.713l0.155,0.713l0.167,0.717l0.182,0.716l0.195,0.718l0.209,0.718
		l0.224,0.719l0.488,1.43l0.541,1.423l0.589,1.412l0.316,0.699l0.328,0.692l0.689,1.374l0.732,1.348l0.763,1.318l0.784,1.287
		l1.599,2.457l1.577,2.275l1.485,2.061l0.702,0.932l0.671,0.857l0.639,0.779l0.307,0.356l0.295,0.331l0.287,0.311l0.278,0.283
		l0.268,0.26l0.128,0.12l0.129,0.113l0.124,0.104l0.123,0.099l0.12,0.095l0.062,0.043l0.059,0.04l0.059,0.04l0.061,0.041
		l0.058,0.035l0.061,0.033l0.061,0.035l0.061,0.031l0.061,0.03l0.061,0.027l0.06,0.026l0.063,0.023l0.062,0.025l0.064,0.019
		l0.064,0.019l0.063,0.019l0.067,0.015l0.067,0.016l0.067,0.01l0.068,0.012l0.071,0.01l0.07,0.005l0.073,0.005l0.07,0.002
		l0.076,0.003h0.078l0.078-0.003l0.081-0.004l0.081-0.006l0.082-0.006l0.085-0.012l0.084-0.01l0.18-0.029l0.188-0.033l0.197-0.041
		l0.205-0.051l0.215-0.056l0.465-0.136l0.509-0.164l1.175-0.418l1.358-0.529l0.775-0.326l0.843-0.383l0.918-0.447l0.998-0.521
		l1.078-0.601l1.168-0.692l1.266-0.794l1.358-0.901l1.465-1.021l1.573-1.147L120.598,172.707z M120.716,99.217v-0.026l0.004-0.026
		v-0.026l0.002-0.026l0.006-0.026l0.003-0.026l0.003-0.025l0.006-0.026l0.006-0.026l0.006-0.027l0.009-0.026l0.006-0.026
		l0.008-0.026l0.01-0.026l0.009-0.026l0.011-0.026l0.02-0.055l0.022-0.052l0.026-0.053l0.029-0.053l0.029-0.053l0.031-0.053
		l0.034-0.053l0.035-0.053l0.039-0.052l0.039-0.056l0.041-0.053l0.043-0.054l0.044-0.053l0.092-0.108l0.1-0.108l0.106-0.108
		l0.109-0.109l0.118-0.106l0.121-0.108l0.125-0.109l0.132-0.106l0.274-0.214l1.445-1.083l1.346-0.969l1.251-0.865l1.161-0.767
		l1.074-0.675l0.995-0.588l0.918-0.512l0.847-0.438l0.779-0.373l0.718-0.317l0.66-0.263l0.608-0.216l0.56-0.179l0.515-0.149
		l0.48-0.122l0.444-0.105l0.805-0.168l0.368-0.069l0.343-0.055l0.331-0.042l0.158-0.016l0.155-0.014l0.154-0.009l0.153-0.006
		l0.147-0.003h0.146l0.146,0.003l0.144,0.007l0.146,0.009l0.146,0.015l0.142,0.017l0.146,0.021l0.145,0.024l0.147,0.027l0.148,0.033
		l0.15,0.034l0.153,0.038l0.158,0.042l0.322,0.096l0.337,0.111l0.338,0.12l0.352,0.134l0.37,0.154l0.388,0.174l0.402,0.199
		l0.42,0.224l0.438,0.251l0.452,0.281l0.469,0.316l0.486,0.35l0.501,0.387l0.516,0.429l0.535,0.471l0.547,0.517l0.568,0.562
		l0.579,0.61l0.038,0.042l0.036,0.043l0.036,0.042l0.032,0.042l0.034,0.041l0.031,0.044l0.03,0.042l0.029,0.044l0.028,0.044
		l0.027,0.042l0.024,0.045l0.024,0.043l0.021,0.045l0.021,0.043l0.021,0.045l0.021,0.044l0.018,0.046l0.017,0.042l0.016,0.047
		l0.015,0.044l0.013,0.046l0.011,0.044l0.01,0.045l0.013,0.046l0.009,0.046l0.006,0.046l0.007,0.045l0.005,0.046l0.004,0.046
		l0.002,0.047l0.001,0.044l0.002,0.048l-0.002,0.047l-0.003,0.047l-0.002,0.045l-0.004,0.047l-0.004,0.047l-0.009,0.047
		l-0.007,0.048l-0.008,0.046l-0.013,0.049l-0.009,0.047l-0.014,0.047l-0.011,0.049l-0.016,0.047l-0.015,0.047l-0.016,0.047
		l-0.02,0.047l-0.017,0.048l-0.021,0.048l-0.02,0.048l-0.022,0.046l-0.021,0.047l-0.024,0.048l-0.052,0.096l-0.055,0.094
		l-0.059,0.095l-0.064,0.096l-0.068,0.094l-0.14,0.187l-0.147,0.182l-0.16,0.183l-0.16,0.181l-0.17,0.176l-0.178,0.178l-0.184,0.173
		l-0.193,0.17l-0.199,0.169l-0.21,0.167l-0.212,0.164l-0.223,0.161l-0.227,0.161l-0.24,0.158l-0.242,0.154l-0.25,0.154l-0.435,0.249
		l-0.231,0.125l-0.24,0.124l-0.242,0.119l-0.251,0.114l-0.253,0.109l-0.255,0.099l-0.256,0.091l-0.128,0.043l-0.128,0.039
		l-0.128,0.035l-0.125,0.033l-0.129,0.029l-0.124,0.027l-0.123,0.023l-0.125,0.016l-0.121,0.016l-0.118,0.009l-0.061,0.003
		l-0.059,0.003l-0.057,0.001h-0.06l-0.06-0.001l-0.055-0.003l-0.059-0.003l-0.054-0.004l-1.717-0.15l-1.723-0.111l-1.72-0.071
		l-1.724-0.032l-1.721,0.007l-1.723,0.047l-1.719,0.088l-1.722,0.128l-1.256,0.092l-0.674,0.029l-0.34,0.003l-0.344-0.001
		l-0.337-0.011l-0.333-0.021l-0.163-0.017l-0.162-0.016l-0.16-0.023l-0.154-0.024l-0.154-0.025l-0.151-0.032l-0.146-0.035
		l-0.14-0.039l-0.07-0.022l-0.07-0.021l-0.067-0.023l-0.066-0.024l-0.064-0.024l-0.063-0.028l-0.061-0.027l-0.061-0.028
		l-0.207-0.103l-0.206-0.105l-0.199-0.108l-0.2-0.112l-0.195-0.115l-0.188-0.118l-0.19-0.121l-0.184-0.122l-0.066-0.045
		l-0.059-0.044l-0.06-0.047l-0.051-0.045l-0.052-0.047l-0.025-0.023l-0.024-0.023l-0.021-0.023l-0.024-0.024l-0.019-0.024
		l-0.021-0.022l-0.021-0.025l-0.017-0.024l-0.019-0.024l-0.016-0.024l-0.018-0.023l-0.015-0.024l-0.016-0.022l-0.015-0.025
		l-0.013-0.024l-0.014-0.024l-0.014-0.024l-0.01-0.023l-0.011-0.027l-0.009-0.024l-0.01-0.024l-0.008-0.025l-0.009-0.024
		l-0.005-0.026l-0.006-0.026l-0.01-0.023l-0.003-0.024l-0.006-0.026l-0.002-0.024l-0.003-0.026l-0.002-0.024l-0.004-0.026v-0.026
		v-0.026v-0.026V99.217z M136.241,134.978l0.038,0.036l0.038,0.036l0.037,0.037l0.038,0.041l0.034,0.04l0.035,0.04l0.032,0.043
		l0.033,0.042l0.03,0.046l0.032,0.045l0.033,0.045l0.03,0.05l0.029,0.049l0.029,0.048l0.027,0.051l0.027,0.053l0.052,0.105
		l0.05,0.107l0.047,0.113l0.042,0.117l0.046,0.119l0.038,0.121l0.039,0.125l0.035,0.129l0.035,0.131l0.033,0.132l0.055,0.273
		l0.814,3.917l0.866,3.736l0.922,3.55l0.977,3.37l0.014,0.047l0.008,0.023l0.006,0.021l0.003,0.023l0.006,0.021l0.003,0.024
		l0.004,0.021l0.002,0.02l0.003,0.021l0.001,0.021l0.001,0.02v0.02l0.002,0.021l-0.002,0.019v0.019l-0.001,0.019l-0.001,0.018
		l-0.003,0.02l-0.002,0.016l-0.004,0.02l-0.003,0.015l-0.006,0.017l-0.003,0.016l-0.006,0.016l-0.006,0.018l-0.005,0.016
		l-0.007,0.015l-0.007,0.013l-0.007,0.016l-0.008,0.015l-0.01,0.015l-0.008,0.013l-0.01,0.013l-0.01,0.015l-0.007,0.012
		l-0.012,0.013l-0.009,0.014l-0.012,0.01l-0.012,0.013l-0.013,0.012l-0.013,0.013l-0.012,0.009l-0.012,0.012l-0.013,0.011
		l-0.016,0.01l-0.015,0.01l-0.014,0.011l-0.014,0.009l-0.018,0.01l-0.013,0.01l-0.017,0.007l-0.018,0.011l-0.016,0.008l-0.018,0.009
		l-0.015,0.007l-0.037,0.016l-0.036,0.014l-0.037,0.016l-0.039,0.013l-0.039,0.013l-0.043,0.014l-0.041,0.01l-0.044,0.01
		l-0.088,0.02l-0.094,0.016l-0.095,0.016l-0.101,0.013l-0.208,0.019l-0.216,0.018l-0.224,0.009l-0.463,0.017l-8.555,0.156
		l-0.245-0.001l-0.24-0.003l-0.232-0.012l-0.113-0.01l-0.11-0.009l-0.106-0.013l-0.104-0.013l-0.1-0.016l-0.097-0.021l-0.047-0.01
		l-0.048-0.013l-0.043-0.011l-0.044-0.012l-0.042-0.014l-0.042-0.016l-0.041-0.014l-0.039-0.017l-0.04-0.015l-0.036-0.019
		l-0.035-0.019l-0.017-0.009l-0.018-0.009l-0.017-0.012l-0.016-0.01l-0.017-0.01l-0.016-0.01l-0.015-0.012l-0.015-0.01l-0.016-0.013
		l-0.013-0.011l-0.014-0.012l-0.015-0.014l-0.013-0.011l-0.012-0.012l-0.013-0.015l-0.012-0.012l-0.012-0.016l-0.011-0.012
		l-0.01-0.016l-0.01-0.012l-0.012-0.016l-0.009-0.014l-0.01-0.015l-0.009-0.015l-0.006-0.016l-0.01-0.015l-0.008-0.017l-0.007-0.018
		l-0.006-0.016l-0.007-0.018l-0.006-0.018l-0.004-0.018l-0.004-0.017l-0.006-0.021l-0.004-0.016l-0.003-0.02l-0.003-0.02
		l-0.002-0.019l-0.003-0.021v-0.02l-0.001-0.02v-0.021v-0.021v-0.02l0.001-0.021v-0.021l0.002-0.023l0.004-0.023l0.003-0.021
		l0.003-0.023l0.004-0.025l0.006-0.021l0.004-0.024l0.006-0.024l0.014-0.052l0.013-0.05l0.975-3.37l0.923-3.55l0.867-3.736
		l0.812-3.917l0.058-0.273l0.03-0.132l0.035-0.131l0.035-0.129l0.039-0.125l0.041-0.121l0.042-0.119l0.043-0.117l0.049-0.113
		l0.048-0.107l0.052-0.105l0.027-0.053l0.029-0.051l0.029-0.048l0.031-0.049l0.027-0.05l0.032-0.045l0.032-0.045l0.03-0.046
		l0.033-0.042l0.033-0.043l0.036-0.04l0.035-0.04l0.036-0.041l0.037-0.037l0.038-0.036l0.038-0.036l0.038-0.034l0.042-0.033
		l0.039-0.032l0.044-0.03l0.042-0.028l0.044-0.028l0.043-0.026l0.046-0.026l0.047-0.024l0.045-0.022l0.048-0.021l0.05-0.019
		l0.05-0.02l0.052-0.018l0.052-0.016l0.053-0.014l0.053-0.012l0.058-0.013l0.055-0.011l0.057-0.008l0.058-0.006l0.061-0.006
		l0.06-0.003l0.061-0.003l0.65-0.006l0.65,0.006l0.063,0.003l0.059,0.003l0.061,0.006l0.058,0.006l0.058,0.008l0.057,0.011
		l0.054,0.013l0.055,0.012l0.053,0.014l0.052,0.016l0.052,0.018l0.05,0.02l0.05,0.019l0.047,0.021l0.048,0.022l0.045,0.024
		l0.044,0.026l0.047,0.026l0.043,0.028l0.042,0.028l0.042,0.03l0.043,0.032l0.038,0.033L136.241,134.978z M116.725,121.216
		l0.003,0.047v0.049l0.003,0.049l0.009,0.098l0.01,0.101l0.017,0.103l0.018,0.102l0.021,0.108l0.029,0.106l0.03,0.112l0.035,0.111
		l0.04,0.115l0.042,0.119l0.049,0.123l0.055,0.126l0.061,0.129l0.067,0.137l0.072,0.139l0.081,0.146l0.087,0.152l0.096,0.16
		l0.104,0.166l0.232,0.352l0.269,0.386l0.311,0.421l0.354,0.46l0.848,1.05l1.057,1.245l1.288,1.463l0.016,0.021l0.008,0.012
		l0.006,0.009l0.012,0.011l0.006,0.011l0.007,0.011l0.007,0.01l0.007,0.012l0.006,0.01l0.006,0.011l0.006,0.011l0.006,0.011
		l0.006,0.011l0.006,0.01l0.003,0.01l0.006,0.012l0.002,0.012l0.003,0.01l0.004,0.012l0.005,0.011l0.003,0.01l0.003,0.013
		l0.003,0.011v0.011l0.004,0.011l0.002,0.01v0.013l0.003,0.012v0.01l0.003,0.012v0.012v0.01v0.012v0.01v0.012l-0.001,0.012
		l-0.001,0.01v0.014l-0.003,0.01l-0.002,0.012l-0.001,0.012l-0.003,0.008l-0.003,0.014l-0.003,0.012l-0.002,0.01l-0.004,0.012
		l-0.006,0.012v0.01l-0.006,0.012l-0.006,0.012l-0.003,0.011l-0.006,0.013l-0.005,0.009l-0.004,0.012l-0.006,0.011l-0.007,0.011
		l-0.006,0.013l-0.007,0.01l-0.007,0.011l-0.007,0.013l-0.008,0.009l-0.015,0.022l-0.073,0.098l-0.076,0.098l-0.077,0.096
		l-0.081,0.092l-0.006,0.01l-0.009,0.009l-0.01,0.009l-0.007,0.01l-0.007,0.006l-0.008,0.008l-0.01,0.008l-0.006,0.008l-0.009,0.006
		l-0.009,0.006l-0.009,0.006l-0.008,0.007l-0.008,0.005l-0.009,0.006l-0.009,0.004l-0.01,0.004l-0.009,0.005l-0.008,0.005
		l-0.009,0.003l-0.007,0.003l-0.009,0.003l-0.01,0.003l-0.009,0.002l-0.009,0.002l-0.009,0.002h-0.007l-0.011,0.004h-0.01h-0.007
		l-0.008,0.002h-0.012l-0.007-0.002h-0.01h-0.01l-0.009-0.002l-0.009-0.002l-0.009-0.002h-0.009l-0.009-0.004h-0.01l-0.01-0.003
		l-0.01-0.003l-0.01-0.004l-0.006-0.004l-0.013-0.004l-0.009-0.005l-0.009-0.005l-0.008-0.002l-0.012-0.006l-0.009-0.005
		l-0.009-0.005l-0.009-0.006l-0.01-0.007l-0.009-0.004l-0.018-0.015l-0.02-0.015l-0.02-0.015l-0.019-0.016l-0.019-0.018
		l-0.866-0.793l-0.847-0.818l-0.823-0.838l-0.802-0.859l-0.781-0.879l-0.76-0.9l-0.73-0.919l-0.709-0.938l-0.049-0.07l-0.05-0.07
		l-0.044-0.069l-0.048-0.071l-0.04-0.07l-0.039-0.071l-0.041-0.072l-0.036-0.071l-0.033-0.072l-0.036-0.073l-0.032-0.07
		l-0.027-0.071l-0.028-0.073l-0.024-0.072l-0.025-0.072l-0.021-0.073l-0.018-0.072l-0.02-0.072l-0.017-0.073l-0.013-0.071
		l-0.01-0.074l-0.013-0.072l-0.008-0.072l-0.006-0.074l-0.007-0.073l-0.001-0.073l-0.001-0.071v-0.075l0.001-0.073l0.001-0.072
		l0.007-0.073l0.007-0.073l0.009-0.074l0.011-0.071l0.012-0.074l0.012-0.073l0.017-0.074l0.017-0.071l0.021-0.075l0.02-0.071
		l0.021-0.074l0.023-0.072l0.028-0.075l0.027-0.072l0.027-0.072l0.03-0.073l0.033-0.071l0.031-0.073l0.037-0.072l0.036-0.072
		l0.077-0.144l0.084-0.143l0.09-0.143l0.096-0.143l0.103-0.14l0.106-0.141l0.114-0.14l3.245-3.825l0.837-0.934l0.852-0.918
		l0.876-0.898l0.899-0.872l0.021-0.019l0.021-0.018l0.021-0.018l0.021-0.017l0.021-0.015l0.021-0.013l0.011-0.007l0.009-0.007
		l0.011-0.004l0.01-0.007l0.011-0.005l0.011-0.005l0.011-0.006l0.008-0.006l0.013-0.004l0.012-0.004l0.009-0.004l0.012-0.003
		l0.009-0.005l0.012-0.002l0.009-0.003l0.012-0.004l0.012-0.003l0.008-0.001l0.013-0.002l0.009-0.001l0.013-0.001l0.01-0.002h0.012
		l0.011-0.001h0.012h0.009h0.012h0.01l0.011,0.001l0.01,0.002h0.011l0.012,0.002l0.009,0.002l0.012,0.001l0.009,0.002l0.012,0.003
		l0.012,0.005l0.01,0.002l0.011,0.005l0.013,0.003l0.011,0.004l0.01,0.004l0.011,0.005l0.01,0.006l0.012,0.004l0.011,0.006
		l0.01,0.007l0.009,0.005l0.013,0.007l0.009,0.006l0.013,0.009l0.011,0.006l0.021,0.017l0.019,0.016l0.022,0.019l0.021,0.014
		l0.02,0.019l0.021,0.017l0.018,0.018l0.02,0.02l0.019,0.016l0.018,0.021l0.019,0.019l0.019,0.019l0.019,0.022l0.015,0.019
		l0.019,0.02l0.015,0.023l0.009,0.01l0.009,0.013l0.007,0.01l0.006,0.012l0.008,0.014c0.003,0.003,0.006,0.01,0.006,0.01
		c0.002,0.004,0.005,0.011,0.005,0.011c0.001,0.007,0.004,0.012,0.004,0.012c0.001,0.006,0.005,0.012,0.005,0.012
		c0.001,0.006,0.003,0.012,0.003,0.012c0,0.006,0.003,0.01,0.003,0.01c0.002,0.008,0.002,0.013,0.002,0.013
		c0.003,0.007,0.003,0.012,0.003,0.012c0.001,0.007,0.003,0.013,0.003,0.013c0,0.007,0,0.013,0,0.013
		c0.003,0.004,0.003,0.011,0.003,0.011c0,0.006,0,0.012,0,0.012c0,0.006,0,0.013,0,0.013v0.012v0.014v0.01l-0.003,0.013v0.011
		l-0.001,0.013l-0.005,0.013v0.012l-0.006,0.014l-0.001,0.01l-0.005,0.013l-0.003,0.012l-0.006,0.014l-0.005,0.012l-0.003,0.012
		l-0.006,0.014l-0.006,0.01l-0.006,0.014l-0.012,0.026l-0.015,0.026l-0.015,0.024l-0.016,0.028l-0.019,0.027l-0.016,0.024
		l-0.039,0.053l-0.04,0.053l-0.088,0.109l-2.252,2.769l-1.476,1.895l-0.512,0.701l-0.401,0.578l-0.316,0.485l-0.263,0.427
		l-0.226,0.393l-0.101,0.188l-0.091,0.185l-0.043,0.091l-0.039,0.092l-0.04,0.089l-0.034,0.089l-0.033,0.092l-0.031,0.088
		l-0.024,0.089l-0.026,0.09l-0.02,0.091l-0.019,0.091l-0.015,0.092l-0.011,0.092l-0.006,0.044l-0.003,0.047l-0.002,0.047
		l-0.003,0.047v0.047l-0.003,0.047V121.216z M117.537,168.491l-1.191,0.859l-1.117,0.771l-1.045,0.692l-0.978,0.611l-0.915,0.547
		l-0.85,0.48l-0.794,0.422l-0.735,0.368l-0.683,0.32l-0.633,0.28l-0.583,0.244l-1.044,0.402l-1.017,0.36l-0.44,0.144l-0.401,0.117
		l-0.185,0.049l-0.176,0.045l-0.17,0.033l-0.165,0.029l-0.151,0.025l-0.076,0.008l-0.073,0.01l-0.072,0.006l-0.07,0.006
		l-0.068,0.004h-0.067h-0.065h-0.064l-0.063-0.002l-0.063-0.005l-0.062-0.006l-0.059-0.007l-0.061-0.012l-0.056-0.008l-0.058-0.014
		l-0.058-0.012l-0.055-0.017l-0.058-0.015l-0.055-0.019l-0.054-0.021l-0.053-0.021l-0.055-0.022l-0.052-0.024l-0.052-0.026
		l-0.053-0.027l-0.05-0.027l-0.053-0.03l-0.052-0.031l-0.053-0.034l-0.049-0.035l-0.055-0.034l-0.052-0.038l-0.104-0.081
		l-0.106-0.087l-0.108-0.09l-0.111-0.098l-0.113-0.104l-0.23-0.224l-0.239-0.245l-0.25-0.268l-0.255-0.287l-0.264-0.309l-0.55-0.674
		l-0.581-0.741l-0.606-0.806l-1.287-1.78l-1.36-1.968l-1.383-2.124l-0.677-1.112l-0.659-1.139l-0.632-1.166l-0.599-1.186
		l-0.283-0.601l-0.27-0.604l-0.514-1.219l-0.465-1.23l-0.422-1.236l-0.194-0.62l-0.18-0.62L89.77,153.6l-0.157-0.618l-0.144-0.619
		l-0.134-0.617l-0.119-0.615l-0.106-0.613l-0.097-0.607l-0.082-0.608l-0.134-1.198l-0.093-1.174l-0.06-1.143l-0.029-1.106
		l-0.005-1.062l0.039-1.97l0.081-1.746l0.061-0.825l0.077-0.816l0.099-0.826l0.125-0.854l0.148-0.9l2.847-13.429l0.113-0.532
		l0.059-0.245l0.06-0.231l0.064-0.22l0.033-0.105l0.036-0.103l0.037-0.099l0.036-0.099l0.04-0.095l0.042-0.095l0.046-0.093
		l0.046-0.093l0.053-0.091l0.058-0.093l0.062-0.094l0.063-0.094l0.07-0.095l0.08-0.096l0.082-0.099l0.088-0.104l0.096-0.104
		l0.104-0.107l0.112-0.109l0.119-0.116l0.265-0.244l0.304-0.264l0.345-0.289l0.823-0.661l1.025-0.795l2.768-2.058l1.805-1.274
		l2.126-1.445l2.482-1.614l2.867-1.79l7.01-4.12l1.196-0.68l0.284-0.152l0.139-0.07l0.141-0.066l0.134-0.065l0.135-0.057
		l0.132-0.053l0.132-0.047l0.067-0.023l0.063-0.018l0.066-0.02l0.064-0.017l0.063-0.017l0.063-0.014l0.062-0.012l0.064-0.011
		l0.061-0.009l0.063-0.006l0.06-0.005l0.062-0.002l0.061-0.001l0.058,0.001l0.032,0.002l0.028,0.001l0.031,0.003l0.027,0.003
		l0.03,0.003l0.031,0.004l0.03,0.004l0.028,0.005l0.029,0.006l0.029,0.006l0.03,0.007l0.027,0.008l0.03,0.007l0.027,0.009
		l0.027,0.011l0.028,0.007l0.03,0.01l0.027,0.013l0.026,0.01l0.03,0.014l0.027,0.012l0.029,0.014l0.028,0.015l0.025,0.015
		l0.027,0.013l0.029,0.019l0.027,0.018l0.024,0.018l0.027,0.019l0.027,0.019l0.027,0.021l0.024,0.02l0.029,0.021l0.026,0.022
		l0.024,0.023l0.029,0.022l0.504,0.469l0.479,0.468l0.449,0.462l0.424,0.458l0.053,0.06l0.049,0.061l0.048,0.059l0.046,0.059
		l0.04,0.061l0.042,0.062l0.037,0.06l0.036,0.06l0.03,0.059l0.032,0.061l0.026,0.06l0.024,0.061l0.024,0.059l0.022,0.061l0.009,0.03
		l0.007,0.031l0.01,0.03l0.007,0.029l0.006,0.031l0.01,0.028l0.006,0.032l0.004,0.03l0.005,0.028l0.006,0.031l0.003,0.031
		l0.003,0.03l0.003,0.029l0.002,0.03v0.031v0.03l0.003,0.03v0.031l-0.003,0.06l-0.002,0.06l-0.006,0.059l-0.007,0.061l-0.011,0.062
		l-0.011,0.059l-0.013,0.059l-0.017,0.061l-0.017,0.061l-0.019,0.06l-0.021,0.061l-0.021,0.061l-0.028,0.059l-0.025,0.061
		l-0.029,0.061l-0.03,0.059l-0.03,0.061l-0.035,0.061l-0.032,0.059l-0.04,0.061l-0.038,0.059l-0.042,0.061l-0.042,0.061l-0.088,0.12
		l-0.095,0.121l-0.099,0.121l-0.104,0.119l-0.113,0.121l-0.118,0.12l-0.118,0.121l-0.127,0.12l-0.134,0.12l-0.346,0.319
		l-0.376,0.357l-0.824,0.831l-0.927,0.983l-1.027,1.136l-2.36,2.727l-2.768,3.339l-0.097,0.121l-0.092,0.121l-0.086,0.123
		l-0.081,0.124l-0.079,0.125l-0.07,0.125l-0.066,0.124l-0.062,0.126l-0.029,0.063l-0.029,0.063l-0.026,0.064l-0.026,0.063
		l-0.023,0.063l-0.024,0.063l-0.021,0.063l-0.019,0.063l-0.018,0.064l-0.019,0.064l-0.016,0.065l-0.015,0.063l-0.013,0.062
		l-0.011,0.064l-0.01,0.065l-0.01,0.064l-0.009,0.064l-0.003,0.065l-0.006,0.063l-0.003,0.064l-0.002,0.063v0.066l0.002,0.063
		l0.003,0.065l0.004,0.064l0.004,0.063l0.007,0.062l0.01,0.064l0.01,0.065l0.012,0.064l0.013,0.062l0.015,0.065l0.017,0.064
		l0.017,0.061l0.021,0.063l0.021,0.064l0.021,0.062l0.025,0.063l0.026,0.064l0.027,0.062l0.027,0.062l0.032,0.063l0.032,0.062
		l0.037,0.062l0.033,0.061l0.039,0.061l0.037,0.062l0.042,0.062l0.96,1.363l1.003,1.329l1.048,1.297l1.092,1.265l1.137,1.229
		l1.18,1.198l1.225,1.163l1.27,1.131l0.056,0.049l0.056,0.043l0.056,0.043l0.057,0.037l0.054,0.036l0.028,0.017l0.028,0.016
		l0.027,0.016l0.027,0.014l0.028,0.017l0.026,0.011l0.025,0.013l0.028,0.011l0.027,0.012l0.027,0.012l0.025,0.008l0.027,0.008
		l0.026,0.01l0.025,0.008l0.027,0.006l0.026,0.007l0.024,0.007l0.026,0.004l0.024,0.005l0.029,0.002l0.026,0.005l0.025,0.001
		l0.024,0.001l0.026,0.002h0.024h0.024h0.025l0.027-0.002l0.024-0.001l0.024-0.003l0.024-0.003l0.024-0.003l0.027-0.004l0.023-0.006
		l0.026-0.006l0.022-0.006l0.026-0.006l0.021-0.006l0.026-0.01l0.023-0.008l0.024-0.008l0.024-0.012l0.025-0.009l0.024-0.009
		l0.021-0.013l0.024-0.013l0.024-0.01l0.021-0.014l0.026-0.013l0.023-0.013l0.044-0.029l0.046-0.031l0.046-0.033l0.045-0.035
		l0.045-0.034l0.044-0.038l0.043-0.041l0.046-0.04l0.043-0.045l0.043-0.044l0.044-0.047l0.042-0.049l0.044-0.051l0.043-0.051
		l0.085-0.106l0.083-0.114l0.083-0.119l0.081-0.124l0.082-0.129l0.079-0.134l0.161-0.277l0.155-0.295l0.771-1.448l0.823-1.441
		l0.882-1.433l0.937-1.428l0.992-1.42l1.047-1.414l1.102-1.407l1.157-1.401l0.037-0.043l0.04-0.041l0.035-0.04l0.038-0.036
		l0.036-0.039l0.037-0.034l0.037-0.034l0.036-0.031l0.037-0.029l0.036-0.028l0.035-0.026l0.037-0.024l0.034-0.023l0.019-0.011
		l0.016-0.009l0.017-0.008l0.018-0.01l0.017-0.009l0.017-0.007l0.018-0.008l0.016-0.006l0.018-0.007l0.017-0.006l0.017-0.006
		l0.015-0.003l0.018-0.006l0.016-0.003l0.015-0.003l0.017-0.004l0.015-0.001l0.016-0.003l0.016-0.002h0.015h0.01h0.007h0.006H132
		h0.007h0.006l0.006,0.002l0.009,0.001h0.009l0.006,0.002l0.008,0.001l0.008,0.001l0.006,0.002l0.009,0.001l0.006,0.003
		c0.007,0,0.016,0.003,0.016,0.003l0.006,0.003c0.007,0.001,0.015,0.003,0.015,0.003c0.007,0.001,0.013,0.005,0.013,0.005
		c0.006,0.003,0.014,0.007,0.014,0.007c0.007,0.003,0.013,0.006,0.013,0.006c0.007,0.004,0.014,0.007,0.014,0.007
		c0.004,0.005,0.012,0.008,0.012,0.008c0.006,0.004,0.015,0.008,0.015,0.008c0.004,0.003,0.011,0.009,0.011,0.009
		c0.006,0.005,0.013,0.009,0.013,0.009c0.006,0.004,0.012,0.009,0.012,0.009c0.005,0.005,0.012,0.012,0.012,0.012
		c0.006,0.007,0.012,0.011,0.012,0.011l0.012,0.011l0.009,0.015l0.012,0.011l0.013,0.016l0.011,0.012l0.01,0.017l0.01,0.015
		l0.012,0.018l0.008,0.016l0.011,0.018l0.009,0.018l0.01,0.02l0.009,0.018l0.007,0.022l0.008,0.02l0.009,0.023l0.009,0.022
		l0.006,0.023l0.008,0.022l0.007,0.024l0.006,0.025l0.013,0.055l0.012,0.054l0.013,0.058l0.007,0.063l0.007,0.063l0.008,0.065
		l0.005,0.07l0.003,0.075l0.003,0.074l0.003,0.077l-0.003,0.169l-0.006,0.179l-0.014,0.191l-0.02,0.207l-0.024,0.217l-1.215,8.428
		l-0.677,3.967l-0.725,3.799l-0.769,3.635l-0.817,3.467l-0.866,3.303l-0.91,3.135l-0.019,0.057l-0.018,0.056l-0.02,0.054
		l-0.021,0.053l-0.021,0.051l-0.023,0.053l-0.024,0.049l-0.026,0.047l-0.023,0.049l-0.028,0.047l-0.029,0.045l-0.029,0.044
		l-0.03,0.046l-0.03,0.041l-0.03,0.043l-0.033,0.039l-0.033,0.039l-0.034,0.04l-0.035,0.038l-0.038,0.035l-0.037,0.036l-0.036,0.035
		l-0.04,0.033l-0.038,0.033l-0.041,0.032l-0.04,0.029l-0.042,0.03l-0.043,0.03l-0.044,0.027l-0.043,0.027l-0.044,0.025l-0.045,0.025
		l-0.047,0.023l-0.046,0.025l-0.049,0.021l-0.047,0.023l-0.05,0.02l-0.049,0.021l-0.052,0.018l-0.052,0.019l-0.048,0.019
		l-0.055,0.015l-0.052,0.017l-0.055,0.016l-0.108,0.025l-0.112,0.025l-0.113,0.02l-0.114,0.018l-0.119,0.016l-0.119,0.012
		l-0.121,0.008l-0.124,0.004l-0.126,0.003l-0.125-0.001l-1.388-0.029l-0.031,1.25l6.359,0.076l6.361-0.061l20.249-0.892l1.346-0.04
		l1.343-0.008l0.557,0.008l0.557,0.019l0.555,0.032l0.556,0.044l0.464,0.05l0.462,0.062l0.229,0.039l0.229,0.04l0.229,0.046
		l0.226,0.05l0.201,0.048l0.197,0.054l0.197,0.058l0.197,0.061l0.193,0.062l0.193,0.068l0.191,0.076l0.188,0.077l0.496-1.147
		l-0.275-0.112l-0.278-0.104l-0.278-0.099l-0.289-0.088l-0.294-0.083l-0.299-0.075l-0.304-0.068l-0.312-0.061l-0.275-0.055
		l-0.244-0.055l-0.108-0.025l-0.103-0.027l-0.096-0.029l-0.045-0.014l-0.041-0.016l-0.043-0.016l-0.037-0.017l-0.038-0.016
		l-0.034-0.017l-0.034-0.015l-0.014-0.011l-0.019-0.008l-0.014-0.01l-0.014-0.008l-0.016-0.01l-0.012-0.009l-0.015-0.009
		l-0.013-0.012l-0.012-0.009l-0.011-0.009l-0.014-0.011l-0.009-0.011l-0.012-0.009l-0.01-0.013l-0.01-0.009l-0.009-0.013
		l-0.009-0.01l-0.008-0.012l-0.01-0.01l-0.007-0.012l-0.006-0.013l-0.007-0.013c-0.003-0.006-0.008-0.01-0.008-0.01
		c-0.002-0.006-0.004-0.013-0.004-0.013c-0.003-0.006-0.006-0.014-0.006-0.014c-0.004-0.006-0.006-0.013-0.006-0.013l-0.004-0.014
		l-0.002-0.012l-0.007-0.014l-0.001-0.014l-0.002-0.014l-0.003-0.014l-0.003-0.016v-0.014v-0.015l-0.003-0.017v-0.014v-0.015
		l0.003-0.016v-0.017l0.002-0.016l0.001-0.017l0.003-0.019l0.002-0.015l0.004-0.019l0.004-0.016l0.002-0.02l0.004-0.018l0.012-0.038
		l0.012-0.036l0.013-0.04l0.015-0.042l0.016-0.04l0.019-0.044l0.018-0.044l0.046-0.093l0.049-0.1l0.058-0.102l0.061-0.113
		l0.144-0.24l0.075-0.127l0.073-0.131l0.143-0.264l0.099-0.199l0.097-0.197l0.177-0.402l0.169-0.408l0.158-0.41l0.312-0.864
		l0.296-0.868l1.716-5.355l1.878-6.439l1.74-6.476l-1.209-0.315l-2.904,10.53l-1.388,4.552l-1.353,4.076l-0.258,0.721l-0.128,0.334
		l-0.128,0.312l-0.127,0.296l-0.128,0.281l-0.131,0.26l-0.065,0.127l-0.068,0.119l-0.066,0.119l-0.066,0.113l-0.07,0.109
		l-0.07,0.107l-0.072,0.102l-0.07,0.098l-0.072,0.097l-0.076,0.093l-0.076,0.09l-0.078,0.085l-0.08,0.081l-0.082,0.08l-0.082,0.076
		l-0.086,0.072l-0.086,0.07l-0.09,0.066l-0.089,0.065l-0.093,0.061l-0.094,0.06l-0.098,0.056l-0.103,0.054l-0.102,0.05l-0.105,0.05
		l-0.108,0.047l-0.111,0.043l-0.113,0.041l-0.117,0.041l-0.12,0.039l-0.123,0.033l-0.124,0.033l-0.13,0.031l-0.132,0.031
		l-0.277,0.055l-0.291,0.047l-0.304,0.042l-0.322,0.036l-0.692,0.058l-0.766,0.044l-8.569,0.461l-0.579,0.02l-0.275,0.002
		l-0.271-0.008l-0.131-0.006l-0.127-0.01l-0.127-0.012l-0.123-0.018l-0.12-0.02l-0.118-0.02l-0.059-0.012l-0.055-0.014l-0.055-0.014
		l-0.055-0.015l-0.055-0.017l-0.054-0.016l-0.053-0.02l-0.052-0.019l-0.049-0.021l-0.051-0.022l-0.046-0.021l-0.049-0.024
		l-0.046-0.024l-0.045-0.025l-0.046-0.027l-0.042-0.029l-0.043-0.029l-0.043-0.029l-0.039-0.033l-0.038-0.033l-0.038-0.035
		l-0.02-0.018l-0.018-0.02l-0.018-0.018l-0.019-0.02l-0.017-0.02l-0.016-0.018l-0.02-0.021l-0.015-0.021l-0.016-0.02l-0.017-0.022
		l-0.015-0.021l-0.017-0.021l-0.014-0.022l-0.014-0.024l-0.016-0.021l-0.016-0.023l-0.025-0.047l-0.024-0.051l-0.026-0.051
		l-0.021-0.053l-0.021-0.057l-0.021-0.056l-0.02-0.058l-0.91-3.135l-0.865-3.303l-0.818-3.467l-0.769-3.635l-0.727-3.799
		l-0.677-3.967l-1.214-8.428l-0.026-0.217l-0.019-0.207l-0.013-0.191l-0.008-0.179v-0.169v-0.077l0.005-0.074l0.003-0.075
		l0.004-0.07l0.009-0.065l0.006-0.063l0.01-0.063l0.012-0.058l0.01-0.054l0.012-0.055l0.007-0.025l0.008-0.024l0.007-0.022
		l0.006-0.023l0.007-0.022l0.009-0.023l0.009-0.02l0.009-0.022l0.007-0.018l0.009-0.02l0.012-0.018l0.01-0.018l0.009-0.016
		l0.01-0.018l0.01-0.015l0.01-0.017l0.011-0.012l0.01-0.016l0.012-0.011l0.01-0.015l0.013-0.011
		c0.005-0.004,0.014-0.011,0.014-0.011c0.004-0.006,0.01-0.012,0.01-0.012c0.005-0.005,0.012-0.009,0.012-0.009
		c0.007-0.004,0.015-0.009,0.015-0.009c0.006-0.006,0.01-0.009,0.01-0.009c0.008-0.004,0.014-0.008,0.014-0.008
		c0.006-0.003,0.012-0.008,0.012-0.008c0.007-0.003,0.014-0.007,0.014-0.007c0.007-0.003,0.013-0.006,0.013-0.006
		c0.006-0.004,0.014-0.007,0.014-0.007l0.008-0.004c0.006-0.001,0.013-0.003,0.013-0.003l0.007-0.001
		c0.007-0.003,0.014-0.006,0.014-0.006h0.009l0.006-0.003c0.005-0.001,0.014-0.003,0.014-0.003l0.007-0.001l0.006-0.001l0.009-0.002
		h0.006l0.009-0.001l0.006-0.002h0.01h0.006h0.009h0.006h0.009h0.006h0.015l0.017,0.002l0.017,0.003l0.015,0.001l0.016,0.004
		l0.018,0.003l0.016,0.003l0.016,0.006l0.018,0.003l0.016,0.006l0.015,0.006l0.019,0.007l0.018,0.006l0.017,0.008l0.017,0.007
		l0.018,0.009l0.014,0.01l0.018,0.008l0.02,0.009l0.017,0.011l0.035,0.023l0.036,0.024l0.037,0.026l0.037,0.028l0.036,0.029
		l0.035,0.031l0.039,0.034l0.035,0.034l0.038,0.039l0.037,0.036l0.037,0.04l0.036,0.041l0.037,0.043l1.158,1.401l1.103,1.407
		l1.046,1.414l0.993,1.42l0.936,1.428l0.881,1.433l0.827,1.441l0.771,1.448l0.152,0.295l0.16,0.277l0.08,0.134l0.081,0.129
		l0.081,0.124l0.084,0.119l0.084,0.114l0.085,0.106l0.043,0.051l0.042,0.051l0.044,0.049l0.043,0.047l0.044,0.044l0.045,0.045
		l0.043,0.04l0.045,0.041l0.045,0.038l0.046,0.034l0.045,0.035l0.044,0.033l0.048,0.031l0.047,0.029l0.021,0.013l0.024,0.013
		l0.023,0.014l0.022,0.01l0.024,0.013l0.024,0.013l0.021,0.009l0.025,0.009l0.023,0.012l0.023,0.008l0.024,0.008l0.024,0.01
		l0.024,0.006l0.024,0.006l0.025,0.006l0.023,0.006l0.024,0.006l0.024,0.004l0.023,0.003l0.024,0.003l0.026,0.003l0.025,0.001
		l0.025,0.002h0.023h0.025h0.026l0.024-0.002l0.025-0.001l0.026-0.001l0.025-0.005l0.026-0.002l0.024-0.005l0.027-0.004l0.023-0.007
		l0.024-0.007l0.027-0.006l0.027-0.008l0.025-0.01l0.026-0.008l0.027-0.008l0.027-0.012l0.024-0.012l0.027-0.011l0.027-0.013
		l0.027-0.011l0.027-0.017l0.027-0.014l0.024-0.016l0.028-0.016l0.027-0.017l0.057-0.036l0.055-0.037l0.056-0.043l0.057-0.043
		l0.057-0.049l1.269-1.131l1.225-1.163l1.182-1.198l1.136-1.229l1.093-1.265l1.048-1.297l1.004-1.329l0.959-1.363l0.04-0.062
		l0.041-0.062l0.035-0.061l0.037-0.061l0.033-0.062l0.033-0.062l0.03-0.063l0.029-0.062l0.027-0.062l0.026-0.064l0.023-0.063
		l0.023-0.062l0.022-0.064l0.019-0.063l0.018-0.061l0.016-0.064l0.015-0.065l0.015-0.062l0.013-0.064l0.008-0.065l0.011-0.064
		l0.006-0.062l0.006-0.063l0.004-0.064l0.004-0.065l0.002-0.063v-0.066l-0.002-0.063l-0.004-0.064l-0.004-0.063l-0.006-0.065
		l-0.009-0.064l-0.008-0.064l-0.011-0.065l-0.012-0.064l-0.013-0.062l-0.015-0.063l-0.016-0.065l-0.018-0.064l-0.016-0.064
		l-0.021-0.063l-0.021-0.063l-0.021-0.063l-0.024-0.063l-0.024-0.063l-0.027-0.064l-0.026-0.063l-0.031-0.063l-0.062-0.126
		l-0.065-0.124l-0.074-0.125l-0.075-0.125l-0.083-0.124l-0.086-0.123l-0.092-0.121l-0.095-0.121l-2.77-3.339l-2.36-2.727
		l-1.029-1.136l-0.926-0.983l-0.824-0.831l-0.373-0.357l-0.35-0.319l-1.898-1.627l-0.443-0.392l-0.416-0.386l-0.192-0.19
		l-0.183-0.188l-0.173-0.187l-0.079-0.092l-0.076-0.092l-0.074-0.091l-0.069-0.092l-0.065-0.091l-0.061-0.092l-0.059-0.089
		l-0.053-0.09l-0.025-0.045l-0.023-0.042l-0.024-0.045l-0.02-0.044l-0.021-0.043l-0.02-0.044l-0.018-0.044l-0.017-0.042
		l-0.017-0.046l-0.012-0.043l-0.014-0.043l-0.012-0.042l-0.01-0.042l-0.012-0.044l-0.006-0.043l-0.005-0.042l-0.006-0.043
		l-0.005-0.042v-0.044l-0.001-0.041l0.001-0.021v-0.021v-0.021l0.002-0.02l0.002-0.023l0.002-0.02l0.005-0.022l0.002-0.021
		l0.003-0.019l0.004-0.022l0.002-0.02l0.006-0.023l0.006-0.02l0.004-0.02l0.006-0.021l0.008-0.021l0.004-0.02l0.01-0.021
		l0.006-0.021l0.01-0.02l0.006-0.02l0.01-0.021l0.009-0.02l0.009-0.02l0.021-0.042l0.021-0.04l0.022-0.041l0.026-0.04l0.026-0.041
		l0.028-0.04l0.033-0.039l0.028-0.042l0.034-0.038l0.037-0.042l0.036-0.039l0.04-0.038l0.042-0.04l0.045-0.04l0.044-0.037
		l0.049-0.04l0.049-0.038l0.051-0.039l0.052-0.039l0.058-0.038l1.905-1.327l1.816-1.351l1.735-1.372l1.648-1.395l0.049-0.042
		l0.053-0.043l0.055-0.039l0.055-0.04l0.055-0.038l0.055-0.038l0.057-0.033l0.062-0.035l0.061-0.033l0.061-0.034l0.061-0.03
		l0.063-0.03l0.063-0.029l0.067-0.027l0.066-0.027l0.063-0.026l0.141-0.05l0.14-0.044l0.144-0.043l0.145-0.036l0.146-0.035
		l0.15-0.032l0.153-0.029l0.155-0.026l0.155-0.022l0.157-0.02l0.316-0.032l0.317-0.024l0.32-0.017l0.315-0.008l0.314-0.003
		l0.61,0.006l5.55,0.19l4.497,0.284l3.603,0.339l2.879,0.359l2.303,0.351l0.971,0.17l0.861,0.171l0.765,0.169l0.681,0.168
		l0.604,0.17l0.28,0.085l0.261,0.088l0.249,0.087l0.238,0.089l0.226,0.092l0.214,0.094l0.105,0.05l0.101,0.05l0.098,0.052
		l0.096,0.051l0.095,0.056l0.09,0.057l0.091,0.058l0.088,0.059l0.082,0.063l0.085,0.062l0.082,0.066l0.078,0.069l0.08,0.071
		l0.076,0.071l0.077,0.077l0.073,0.078l0.074,0.081l0.071,0.085l0.071,0.088l0.066,0.09l0.07,0.093l0.066,0.097l0.067,0.104
		l0.067,0.101l0.064,0.109l0.066,0.113l0.062,0.115l0.064,0.12l0.126,0.253l0.126,0.273l0.125,0.293l0.124,0.314l0.122,0.336
		l0.123,0.36l0.247,0.798l0.253,0.908l0.258,1.028l0.27,1.161l0.562,2.716l0.276,1.523l0.262,1.609l0.238,1.676l0.205,1.724
		l0.161,1.751l0.109,1.761l0.033,0.88l0.016,0.877l0.003,0.88l-0.015,0.878l-0.033,0.881l-0.048,0.883l-0.065,0.888l-0.082,0.892
		l-0.1,0.899l-0.119,0.906l-0.134,0.914l-0.154,0.924l-0.365,1.878l-0.44,1.93l-0.516,1.98l-0.59,2.026l-0.65,2.061l-0.707,2.078
		l-1.542,4.164l-1.664,4.092l-1.723,3.917l-4.81,10.091l-2.363,4.812l-0.493,0.941l-0.464,0.832l-0.227,0.375l-0.221,0.35
		l-0.216,0.324l-0.106,0.151l-0.106,0.146l-0.106,0.137l-0.104,0.132l-0.105,0.125l-0.105,0.119l-0.107,0.112l-0.052,0.055
		l-0.056,0.052l-0.053,0.05l-0.055,0.05l-0.059,0.048l-0.055,0.047l-0.058,0.041l-0.058,0.047l-0.059,0.039l-0.058,0.039
		l-0.06,0.042l-0.061,0.034l-0.062,0.035l-0.062,0.037l-0.063,0.031l-0.065,0.032l-0.063,0.028l-0.068,0.029l-0.068,0.027
		l-0.068,0.024l-0.072,0.026l-0.072,0.022l-0.072,0.021l-0.074,0.02l-0.076,0.021l-0.078,0.019l-0.079,0.013l-0.082,0.016
		l-0.081,0.015l-0.085,0.012l-0.175,0.02l-0.182,0.017l-0.188,0.011l-0.197,0.004l-0.208,0.002l-0.215-0.004l-0.225-0.007
		l-0.237-0.015l-0.501-0.039l-0.546-0.059l-1.228-0.164l-1.396-0.228l-1.539-0.286l-1.669-0.339l-3.618-0.818l-3.855-0.974
		l-3.961-1.104l-4.09-1.271l-4.278-1.479l-4.531-1.74l-4.891-2.062l-5.519-2.507l-14.19-6.892l-0.063-0.032l-0.061-0.033
		l-0.06-0.034l-0.059-0.034l-0.058-0.035l-0.054-0.037l-0.056-0.037l-0.053-0.038l-0.055-0.039l-0.052-0.039l-0.05-0.044
		l-0.049-0.039l-0.047-0.044l-0.048-0.043l-0.046-0.045l-0.045-0.045l-0.042-0.047l-0.044-0.045l-0.041-0.049l-0.042-0.047
		l-0.041-0.051l-0.037-0.05l-0.038-0.05l-0.036-0.052l-0.036-0.054l-0.033-0.053l-0.033-0.053l-0.031-0.055l-0.03-0.053l-0.03-0.059
		l-0.027-0.057l-0.028-0.057l-0.027-0.057l-0.025-0.059l-0.023-0.059l-0.021-0.059l-0.022-0.062l-0.023-0.06l-0.02-0.062
		l-0.017-0.062l-0.018-0.062l-0.017-0.062l-0.016-0.062l-0.014-0.065l-0.024-0.13l-0.021-0.129l-0.016-0.135l-0.014-0.135
		l-0.008-0.139l-0.003-0.139v-0.14l0.004-0.143l0.008-0.142l0.015-0.145l0.126-1.497l0.174-3.499l0.478-15.41l-0.939-0.025
		l-0.474,15.395l-0.176,3.471l-0.085,1.119l-0.098,0.872l-0.052,0.378l-0.027,0.181l-0.033,0.175l-0.034,0.167l-0.037,0.166
		l-0.023,0.081l-0.021,0.078l-0.024,0.077l-0.025,0.077l-0.027,0.078l-0.027,0.076l-0.031,0.076l-0.032,0.074l-0.033,0.074
		l-0.036,0.074l-0.036,0.074l-0.04,0.072l-0.042,0.074l-0.043,0.072l-0.048,0.074l-0.047,0.073l-0.05,0.071l-0.055,0.075
		l-0.057,0.071l-0.058,0.074l-0.062,0.073l-0.063,0.075l-0.07,0.072l-0.069,0.077l-0.15,0.151l-0.166,0.156l-0.176,0.156
		l-0.193,0.165l-0.207,0.166l-0.223,0.171l-0.498,0.364l-0.568,0.392l-1.373,0.879l0.495,0.797l1.402-0.895l0.561-0.385l0.548-0.402
		l0.224-0.173l0.222-0.175l0.036-0.028l0.037-0.027l0.036-0.026l0.037-0.025l0.037-0.025l0.038-0.021l0.037-0.021l0.039-0.022
		l0.038-0.019l0.039-0.019l0.037-0.017l0.039-0.017l0.04-0.015l0.037-0.016l0.039-0.012l0.038-0.011l0.042-0.013l0.039-0.011
		l0.04-0.007l0.039-0.008l0.036-0.008l0.042-0.006l0.041-0.005l0.039-0.003l0.043-0.002l0.039-0.002l0.04-0.002h0.04l0.041,0.002
		l0.043,0.002l0.04,0.002l0.042,0.003l0.041,0.003l0.04,0.006l0.042,0.008l0.041,0.008l0.042,0.006l0.042,0.011l0.04,0.01
		l0.042,0.011l0.042,0.012l0.039,0.012l0.083,0.027l0.084,0.03l0.085,0.033l0.082,0.036l0.085,0.04l0.082,0.044l0.084,0.044
		l0.083,0.049l0.083,0.05l0.083,0.055l0.083,0.054l3.84,2.591l3.646,2.342l3.466,2.117l3.301,1.916l-2.778,2.2L117.537,168.491z"/>
	<polygon fill="#FFFFFF" points="70.868,66.292 70.875,66.423 70.885,66.553 70.897,66.681 70.911,66.808 70.926,66.934 
		70.944,67.059 70.965,67.183 70.988,67.306 71.015,67.427 71.042,67.546 71.068,67.666 71.099,67.784 71.133,67.9 71.169,68.015 
		71.206,68.129 71.245,68.244 71.288,68.356 71.33,68.468 71.375,68.578 71.447,68.74 71.525,68.901 71.605,69.061 71.691,69.22 
		71.783,69.377 71.88,69.531 71.98,69.685 72.089,69.837 72.201,69.987 72.317,70.136 72.441,70.282 72.566,70.428 72.7,70.571 
		72.84,70.712 72.983,70.852 73.132,70.988 73.287,71.125 73.448,71.258 73.611,71.391 73.785,71.521 73.961,71.646 74.144,71.772 
		74.332,71.897 74.523,72.017 74.724,72.135 74.927,72.252 75.14,72.366 75.356,72.477 75.578,72.588 75.804,72.696 76.038,72.8 
		76.276,72.902 76.771,73.101 77.291,73.285 77.832,73.461 78.396,73.628 78.983,73.786 79.594,73.928 80.229,74.06 80.886,74.182 
		81.563,74.292 82.265,74.388 82.991,74.475 83.738,74.548 84.506,74.61 85.295,74.658 86.941,74.717 88.139,74.724 89.338,74.694 
		90.535,74.625 91.729,74.52 92.919,74.38 94.104,74.201 94.147,74.192 94.187,74.185 94.224,74.175 94.245,74.169 94.261,74.165 
		94.278,74.159 94.296,74.151 94.314,74.145 94.331,74.141 94.348,74.133 94.363,74.127 94.378,74.119 94.395,74.113 94.41,74.104 
		94.423,74.096 94.439,74.089 94.451,74.082 94.465,74.074 94.479,74.064 94.491,74.057 94.504,74.048 94.518,74.039 94.527,74.028 
		94.539,74.021 94.552,74.011 94.56,74.001 94.571,73.992 94.58,73.981 94.591,73.972 94.6,73.962 94.609,73.952 94.618,73.942 
		94.626,73.931 94.633,73.92 94.641,73.91 94.649,73.9 94.655,73.889 94.661,73.877 94.668,73.869 94.672,73.857 94.679,73.848 
		94.682,73.835 94.688,73.823 94.694,73.812 94.697,73.802 94.7,73.79 94.705,73.779 94.707,73.767 94.711,73.756 94.713,73.744 
		94.715,73.734 94.717,73.722 94.717,73.71 94.717,73.699 94.718,73.688 94.718,73.676 94.718,73.665 94.718,73.654 94.717,73.643 
		94.717,73.632 94.717,73.62 94.715,73.607 94.713,73.597 94.713,73.586 94.708,73.575 94.707,73.565 94.702,73.552 94.699,73.544 
		94.694,73.533 94.691,73.521 94.685,73.512 94.681,73.5 94.677,73.489 94.669,73.48 94.664,73.469 94.658,73.458 94.652,73.449 
		94.644,73.438 94.636,73.428 94.63,73.42 94.623,73.41 94.615,73.401 94.606,73.393 94.597,73.383 94.588,73.374 94.579,73.365 
		94.57,73.357 94.56,73.348 94.55,73.339 94.539,73.333 94.527,73.324 94.518,73.316 94.505,73.31 94.492,73.302 94.481,73.295 
		94.469,73.287 94.456,73.281 94.442,73.274 94.43,73.269 94.416,73.263 94.401,73.256 94.387,73.25 94.372,73.248 94.357,73.241 
		94.342,73.237 94.327,73.232 94.312,73.228 94.296,73.223 94.278,73.222 94.262,73.219 94.245,73.214 94.229,73.212 94.211,73.209 
		94.193,73.206 94.174,73.205 94.156,73.203 94.138,73.202 94.12,73.2 94.099,73.2 94.059,73.2 94.02,73.202 93.978,73.205 
		92.408,73.308 90.924,73.364 89.526,73.371 88.861,73.358 88.219,73.333 87.6,73.296 87.002,73.249 86.427,73.19 85.877,73.12 
		85.349,73.039 84.844,72.948 84.361,72.846 83.902,72.735 83.465,72.612 83.255,72.548 83.052,72.48 82.854,72.412 82.662,72.339 
		82.474,72.266 82.294,72.189 82.119,72.111 81.949,72.029 81.785,71.947 81.625,71.86 81.471,71.773 81.325,71.684 81.184,71.593 
		81.047,71.499 80.915,71.402 80.787,71.306 80.666,71.204 80.551,71.103 80.441,71.001 80.335,70.893 80.238,70.787 80.19,70.733 
		80.144,70.679 80.098,70.624 80.053,70.566 80.01,70.51 79.968,70.454 79.928,70.397 79.891,70.34 79.852,70.282 79.814,70.224 
		79.78,70.166 79.746,70.106 79.714,70.046 79.682,69.987 79.652,69.927 79.623,69.866 79.594,69.805 79.57,69.744 79.537,69.666 
		79.504,69.585 79.476,69.502 79.451,69.422 79.425,69.338 79.402,69.253 79.382,69.17 79.361,69.084 79.343,68.997 79.329,68.909 
		79.314,68.821 79.304,68.731 79.294,68.638 79.284,68.547 79.278,68.454 79.277,68.36 79.275,68.264 79.275,68.171 79.278,68.073 
		79.281,67.975 79.287,67.877 79.296,67.775 79.307,67.675 79.321,67.574 79.334,67.47 79.353,67.367 79.369,67.26 79.39,67.156 
		79.442,66.941 79.5,66.721 79.567,66.5 79.644,66.272 79.725,66.041 79.819,65.805 79.922,65.566 80.035,65.323 80.153,65.076 
		80.285,64.827 80.427,64.57 80.575,64.313 80.733,64.051 80.9,63.785 81.08,63.514 81.266,63.239 81.669,62.682 82.113,62.107 
		82.593,61.52 83.115,60.919 83.671,60.303 84.27,59.676 84.908,59.034 85.583,58.383 86.296,57.718 87.837,56.356 89.526,54.957 
		91.355,53.523 93.32,52.062 95.415,50.579 97.628,49.076 99.949,47.566 102.371,46.05 107.468,43.033 112.826,40.069 
		118.35,37.198 123.949,34.461 129.536,31.883 135.037,29.486 140.587,27.203 146.327,24.985 152.19,22.87 158.096,20.9 
		163.954,19.115 169.667,17.556 172.44,16.872 175.144,16.254 177.759,15.71 180.282,15.24 182.7,14.845 185.003,14.527 
		187.185,14.29 189.232,14.132 190.204,14.081 191.146,14.051 192.049,14.04 192.916,14.045 193.747,14.073 194.54,14.117 
		195.296,14.181 196.017,14.261 196.699,14.362 197.025,14.417 197.343,14.477 197.652,14.542 197.95,14.612 198.239,14.684 
		198.52,14.761 198.79,14.842 199.053,14.927 199.304,15.015 199.548,15.107 199.781,15.205 200.007,15.304 200.222,15.408 
		200.428,15.515 200.625,15.627 200.813,15.741 200.905,15.8 200.993,15.858 201.079,15.919 201.164,15.979 201.248,16.042 
		201.327,16.106 201.403,16.167 201.479,16.23 201.554,16.295 201.624,16.362 201.693,16.43 201.759,16.495 201.826,16.565 
		201.888,16.633 201.948,16.703 202.008,16.772 202.062,16.844 202.118,16.914 202.172,16.988 202.221,17.061 202.269,17.134 
		202.315,17.209 202.359,17.283 202.401,17.359 202.442,17.437 202.479,17.513 202.515,17.59 202.55,17.669 202.594,17.778 
		202.636,17.891 202.673,18.004 202.706,18.118 202.737,18.237 202.765,18.355 202.786,18.478 202.804,18.602 202.819,18.727 
		202.831,18.852 202.84,18.981 202.844,19.112 202.844,19.244 202.84,19.381 202.831,19.516 202.819,19.656 202.804,19.795 
		202.784,19.938 202.761,20.081 202.731,20.229 202.698,20.377 202.664,20.526 202.622,20.68 202.578,20.833 202.528,20.99 
		202.476,21.148 202.415,21.307 202.354,21.469 202.287,21.632 202.217,21.799 202.062,22.136 201.89,22.48 201.699,22.831 
		201.491,23.19 201.264,23.559 201.018,23.932 200.755,24.315 200.471,24.702 200.169,25.097 199.849,25.501 199.511,25.91 
		199.152,26.324 198.776,26.749 197.969,27.611 197.086,28.5 196.129,29.412 195.099,30.346 193.996,31.299 192.823,32.27 
		191.58,33.256 190.274,34.259 187.467,36.302 184.426,38.379 181.174,40.476 177.738,42.577 174.15,44.664 174.112,44.688 
		174.075,44.711 174.056,44.723 174.038,44.737 174.022,44.749 174.005,44.76 173.989,44.773 173.974,44.786 173.958,44.799 
		173.942,44.812 173.927,44.826 173.914,44.838 173.901,44.854 173.886,44.865 173.874,44.881 173.862,44.893 173.849,44.908 
		173.837,44.92 173.828,44.936 173.815,44.947 173.808,44.963 173.798,44.979 173.787,44.992 173.78,45.006 173.771,45.019 
		173.761,45.035 173.756,45.048 173.746,45.063 173.74,45.077 173.733,45.092 173.728,45.105 173.722,45.12 173.716,45.133 
		173.71,45.148 173.708,45.162 173.704,45.177 173.699,45.19 173.694,45.206 173.694,45.218 173.69,45.233 173.688,45.247 
		173.688,45.262 173.686,45.276 173.684,45.29 173.683,45.303 173.683,45.317 173.683,45.331 173.683,45.344 173.684,45.358 
		173.686,45.37 173.686,45.384 173.688,45.396 173.688,45.409 173.69,45.423 173.694,45.435 173.699,45.448 173.701,45.459 
		173.705,45.474 173.71,45.485 173.712,45.497 173.719,45.51 173.726,45.519 173.729,45.533 173.735,45.543 173.74,45.554 
		173.746,45.564 173.754,45.575 173.761,45.587 173.768,45.598 173.774,45.607 173.786,45.617 173.792,45.628 173.8,45.636 
		173.811,45.645 173.817,45.654 173.828,45.665 173.837,45.672 173.847,45.68 173.858,45.689 173.868,45.695 173.878,45.702 
		173.89,45.71 173.901,45.718 173.914,45.724 173.925,45.73 173.937,45.738 173.95,45.742 173.963,45.749 173.976,45.752 
		173.989,45.757 174.002,45.762 174.017,45.767 174.03,45.771 174.044,45.774 174.058,45.777 174.075,45.78 174.088,45.783 
		174.104,45.785 174.12,45.786 174.136,45.788 174.15,45.79 174.167,45.79 174.185,45.79 174.199,45.79 174.217,45.79 
		174.233,45.788 174.252,45.786 174.269,45.785 174.287,45.783 174.306,45.78 174.322,45.777 174.341,45.772 174.36,45.77 
		174.378,45.765 174.396,45.759 174.414,45.754 174.436,45.75 174.456,45.742 174.476,45.736 174.493,45.728 174.515,45.721 
		174.536,45.713 174.575,45.695 174.618,45.675 177.131,44.382 179.606,43.013 182.034,41.567 184.419,40.047 186.754,38.454 
		189.669,36.338 192.407,34.23 194.953,32.142 196.146,31.109 197.286,30.083 198.373,29.068 199.402,28.067 200.373,27.078 
		201.289,26.103 202.145,25.145 202.94,24.2 203.677,23.275 204.354,22.371 204.669,21.925 204.968,21.483 205.256,21.047 
		205.526,20.618 205.78,20.192 206.021,19.773 206.248,19.359 206.458,18.951 206.657,18.548 206.837,18.152 207.007,17.76 
		207.157,17.376 207.298,16.998 207.422,16.623 207.531,16.257 207.629,15.896 207.712,15.541 207.78,15.193 207.812,15.019 
		207.839,14.851 207.859,14.681 207.881,14.514 207.896,14.348 207.907,14.184 207.921,14.021 207.927,13.861 207.929,13.701 
		207.929,13.543 207.927,13.388 207.921,13.233 207.911,13.08 207.899,12.928 207.882,12.777 207.864,12.63 207.843,12.482 
		207.819,12.338 207.791,12.196 207.761,12.051 207.729,11.911 207.692,11.773 207.651,11.635 207.61,11.5 207.564,11.366 
		207.517,11.234 207.468,11.102 207.413,10.972 207.366,10.863 207.317,10.755 207.265,10.647 207.212,10.542 207.154,10.434 
		207.097,10.329 207.036,10.224 206.974,10.119 206.908,10.016 206.839,9.912 206.769,9.809 206.697,9.709 206.623,9.607 
		206.548,9.508 206.467,9.41 206.386,9.309 206.302,9.212 206.216,9.117 206.128,9.019 206.036,8.924 205.847,8.737 205.647,8.553 
		205.438,8.372 205.22,8.194 204.991,8.019 204.753,7.85 204.505,7.686 204.247,7.521 203.977,7.363 203.7,7.209 203.411,7.06 
		203.11,6.912 202.801,6.771 202.479,6.636 202.15,6.502 201.811,6.374 201.461,6.251 201.1,6.133 200.729,6.017 200.346,5.908 
		199.954,5.805 199.552,5.704 198.715,5.52 197.839,5.357 196.922,5.215 195.964,5.094 194.966,4.995 193.929,4.917 192.851,4.861 
		191.737,4.83 190.585,4.82 189.396,4.833 188.175,4.87 186.915,4.932 184.301,5.12 181.562,5.403 178.71,5.779 175.756,6.245 
		172.715,6.798 169.597,7.436 166.415,8.156 163.187,8.953 156.634,10.757 150.048,12.807 143.525,15.059 137.153,17.459 
		131.007,19.967 124.929,22.637 118.771,25.54 112.615,28.659 106.559,31.959 100.704,35.409 97.884,37.174 95.153,38.956 
		92.525,40.752 90.011,42.552 87.621,44.349 85.369,46.137 83.258,47.905 81.302,49.651 80.384,50.513 79.504,51.367 78.667,52.209 
		77.873,53.042 77.121,53.867 76.41,54.678 75.744,55.477 75.122,56.262 74.542,57.035 74.007,57.792 73.513,58.536 73.065,59.264 
		72.855,59.621 72.658,59.976 72.47,60.326 72.293,60.673 72.126,61.014 71.974,61.353 71.829,61.686 71.693,62.015 71.568,62.34 
		71.455,62.661 71.352,62.978 71.257,63.29 71.175,63.596 71.103,63.9 71.039,64.198 70.984,64.492 70.941,64.781 70.908,65.067 
		70.882,65.346 70.865,65.623 70.859,65.896 70.863,66.16 	"/>
	<polygon fill="#FFFFFF" points="130.202,18.066 135.761,15.794 141.511,13.611 140.171,11.117 138.938,8.973 138.355,8.027 
		137.798,7.155 137.264,6.358 136.75,5.626 136.256,4.965 135.781,4.359 135.325,3.813 134.885,3.319 134.463,2.875 134.258,2.671 
		134.057,2.477 133.856,2.292 133.663,2.119 133.471,1.955 133.283,1.799 133.099,1.651 132.917,1.512 132.736,1.382 132.561,1.258 
		132.387,1.142 132.215,1.031 132.046,0.931 131.879,0.835 131.715,0.748 131.551,0.666 131.39,0.589 131.232,0.518 131.074,0.454 
		130.919,0.396 130.764,0.342 130.61,0.292 130.46,0.249 130.309,0.208 130.156,0.173 130.008,0.141 129.858,0.114 129.713,0.089 
		129.564,0.07 129.418,0.052 129.269,0.038 129.124,0.026 128.829,0.01 128.534,0.001 128.238,0 127.635,0.012 127.331,0.026 
		127.025,0.046 126.719,0.076 126.414,0.111 126.108,0.158 125.806,0.211 125.653,0.243 125.502,0.278 125.353,0.313 125.205,0.354 
		125.055,0.396 124.907,0.442 124.761,0.492 124.614,0.544 124.471,0.599 124.328,0.658 124.184,0.721 124.044,0.787 123.904,0.855 
		123.767,0.929 123.63,1.005 123.495,1.089 123.361,1.174 123.229,1.264 123.102,1.358 122.973,1.455 122.845,1.557 122.722,1.663 
		122.599,1.774 122.479,1.888 122.36,2.006 122.242,2.13 122.127,2.256 122.011,2.388 121.9,2.524 121.789,2.664 121.681,2.807 
		121.574,2.956 121.47,3.109 121.367,3.268 121.267,3.427 121.167,3.594 121.07,3.764 120.972,3.939 120.877,4.117 120.787,4.302 
		120.611,4.682 120.438,5.08 120.276,5.497 120.121,5.933 119.976,6.387 119.836,6.871 119.77,7.127 119.705,7.398 119.583,7.978 
		119.471,8.619 119.364,9.338 119.271,10.145 119.183,11.049 119.039,13.203 118.933,15.889 118.848,23.226 124.562,20.542 	"/>
</g>
</svg>
